<svg xmlns="http://www.w3.org/2000/svg" viewBox="0 0 410.76 419.67"><defs>
<style>
.cls-1{fill:#61b960;}.cls-2{fill:#299d2a;}.cls-3{fill:#707173;}.cls-4{fill:#707173;}.cls-5{fill:#fff;}
@media (prefers-color-scheme: dark) {
    .cls-3{fill:#fff;}.cls-4{fill:#fff;}
}
</style>
</defs><g id="Слой_2" data-name="Слой 2"><g id="Слой_1-2" data-name="Слой 1"><polygon class="cls-1" points="205.38 419.67 221.38 397.65 251.06 356.82 244.72 305.34 205.38 358.87 166.73 306.28 160.5 357.92 189.38 397.65 205.38 419.67"/><polygon class="cls-2" points="273.7 184.21 273.7 227.72 304.94 227.72 315.23 227.72 337.66 227.72 337.66 185.56 337.66 184.21 273.7 184.21"/><polygon class="cls-2" points="155.75 150.85 184.06 162.75 166.73 306.28 205.38 358.87 244.72 305.34 227.14 162.75 254.75 151.14 205.17 56.63 155.75 150.85"/><path class="cls-3" d="M344.62,227.72v.36l66.14-91L342.8.29,205.38,20.46,71.56,0,0,137.08,160.5,357.92l6.23-51.64L34.81,136.2,55.64,99.74,149.9,162l5.84-11.15,49.43-94.22,49.58,94.51,5.7,10.86,94.38-62.75L376,136.2l-31.84,41.05h.51v50.47ZM146,147,64,85.2,94,32.64l95.26,18.47Zm118.36,0L221.12,51.18l95.65-18.54,29.79,52.13Z"/><polygon class="cls-4" points="315.23 234.69 299.54 234.69 244.72 305.34 251.06 356.82 339.82 234.69 337.66 234.69 315.23 234.69"/><rect class="cls-5" x="282.13" y="210.35" width="47.42" height="7.92"/><rect class="cls-5" x="282.13" y="195.99" width="32.77" height="7.92"/></g></g></svg>