<?xml version="1.0" encoding="utf-8"?>
<!-- Generator: Adobe Illustrator 22.0.1, SVG Export Plug-In . SVG Version: 6.00 Build 0)  -->
<svg version="1.1" id="Слой_1" xmlns="http://www.w3.org/2000/svg" xmlns:xlink="http://www.w3.org/1999/xlink" x="0px" y="0px"
	 viewBox="0 0 100 100" style="enable-background:new 0 0 100 100;" xml:space="preserve">
<style type="text/css">
	.st0{fill:#60A55E;}
	.st1{fill:#308A2D;}
	.st2{fill:url(#SVGID_1_);}
	.st3{fill:#FFFFFF;}
	.st4{fill:#666666;}
</style>
<polygon class="st0" points="50,100 53.9,95 61.1,85.8 59.6,74.2 50,86.3 40.6,74.4 39.1,86.1 46.1,95 "/>
<polygon class="st1" points="66.6,46.9 66.6,56.7 74.2,56.7 76.7,56.7 82.2,56.7 82.2,47.2 82.2,46.9 "/>
<polygon class="st1" points="37.9,39.4 44.8,42 40.6,74.4 50,86.3 59.6,74.2 55.3,42 62,39.4 50,18.1 "/>
<linearGradient id="SVGID_1_" gradientUnits="userSpaceOnUse" x1="50" y1="8.7805" x2="50" y2="64.9816">
	<stop  offset="0" style="stop-color:#FFFFFF"/>
	<stop  offset="0.4308" style="stop-color:#FFFFFF"/>
	<stop  offset="0.4664" style="stop-color:#CECFD1"/>
	<stop  offset="1" style="stop-color:#EBEBEA"/>
</linearGradient>
<path class="st2" d="M83.9,56.7L83.9,56.7L100,36.2L83.5,5.4L50,9.9L17.4,5.3L0,36.2l39.1,49.8l1.5-11.6L8.5,36.1l5.1-8.2l23,14
	l1.4-2.5l12-21.3L62,39.4l1.4,2.4l23-14.2l5.1,8.3l-7.8,9.3h0.1v1.6V56.7z M35.5,38.5l-20-13.9l7.3-11.9l23.2,4.2L35.5,38.5z
	 M64.4,38.5L53.8,16.9l23.3-4.2l7.2,11.8L64.4,38.5z"/>
<polygon class="st3" points="76.7,58.3 72.9,58.3 59.6,74.2 61.1,85.8 82.7,58.3 82.2,58.3 "/>
<rect x="68.7" y="52.8" class="st3" width="11.5" height="1.8"/>
<rect x="68.7" y="49.5" class="st3" width="8" height="1.8"/>
<polygon class="st0" points="50,98.8 53.9,93.9 61.1,84.6 59.6,73 50,85.1 40.6,73.2 39.1,84.9 46.1,93.9 "/>
<polygon class="st1" points="66.6,45.7 66.6,55.5 74.2,55.5 76.7,55.5 82.2,55.5 82.2,46 82.2,45.7 "/>
<polygon class="st1" points="37.9,38.2 44.8,40.9 40.6,73.2 50,85.1 59.6,73 55.3,40.9 62,38.3 50,16.9 "/>
<path class="st4" d="M83.9,55.5L83.9,55.5L100,35.1L83.5,4.2L50,8.8L17.4,4.2L0,35.1l39.1,49.8l1.5-11.6L8.5,34.9l5.1-8.2l23,14
	l1.4-2.5l12-21.3L62,38.3l1.4,2.4l23-14.2l5.1,8.3l-7.8,9.3h0.1v1.6V55.5z M35.5,37.3l-20-13.9l7.3-11.9l23.2,4.2L35.5,37.3z
	 M64.4,37.3L53.8,15.7l23.3-4.2l7.2,11.8L64.4,37.3z"/>
<polygon class="st4" points="76.7,57.1 72.9,57.1 59.6,73 61.1,84.6 82.7,57.1 82.2,57.1 "/>
<rect x="68.7" y="51.6" class="st3" width="11.5" height="1.8"/>
<rect x="68.7" y="48.4" class="st3" width="8" height="1.8"/>
</svg>
