<?xml version="1.0" encoding="utf-8"?>
<!-- Generator: Adobe Illustrator 22.0.1, SVG Export Plug-In . SVG Version: 6.00 Build 0)  -->
<svg version="1.1" id="Слой_1" xmlns="http://www.w3.org/2000/svg" xmlns:xlink="http://www.w3.org/1999/xlink" x="0px" y="0px"
	 viewBox="0 0 420 420" style="enable-background:new 0 0 420 420;" xml:space="preserve">
<style type="text/css">
	.st0{opacity:0.19;}
	.st1{fill:#999999;}
	.st2{fill:#FFFFFF;}
	.st3{fill:#CCCCCC;}
	.st4{fill:#E6E6E6;}
	.st5{fill:#B3B3B3;}
	.st6{fill:none;}
	.st7{fill:#60A55E;}
	.st8{fill:#308A2D;}
	.st9{fill:url(#SVGID_1_);}
	.st10{opacity:0.72;fill:url(#SVGID_2_);}
	.st11{fill:url(#SVGID_3_);}
	.st12{fill:url(#SVGID_4_);}
	.st13{fill:url(#SVGID_5_);}
	.st14{fill:url(#SVGID_6_);}
	.st15{fill:url(#SVGID_7_);}
	.st16{fill:url(#SVGID_8_);}
	.st17{fill:url(#SVGID_9_);}
	.st18{fill:url(#SVGID_10_);}
	.st19{fill:url(#SVGID_11_);}
	.st20{fill:url(#SVGID_12_);}
	.st21{opacity:0.2;fill:url(#SVGID_13_);}
</style>
<g class="st0">
	<g>
		<g>
			<path class="st1" d="M258.2,228.2l8.2,3.5c3.2-7.5,4.8-15.6,4.9-23.8c0-8.1-1.6-16.3-4.7-23.8c-3.1-7.5-7.7-14.4-13.4-20.2
				c-5.7-5.8-12.7-10.4-20.2-13.5l-1.8-0.7c-0.6-0.2-1.2-0.5-1.8-0.7l-2.9,8.4c0.5,0.2,1,0.4,1.6,0.6l1.5,0.6
				c6.5,2.7,12.4,6.6,17.3,11.5c4.9,4.9,8.9,10.9,11.5,17.3c2.7,6.5,4,13.4,4,20.4C262.3,214.8,260.9,221.8,258.2,228.2z"/>
			<path class="st1" d="M252,252.4c3.2-3,6-6.4,8.5-10l-7.4-5c-2.1,3.1-4.6,6-7.3,8.6L252,252.4z"/>
			<path class="st1" d="M204.9,269.4c7.7,0.6,15.6-0.4,23-2.7l-2.7-8.5c-6.3,2-13.1,2.8-19.7,2.3c-6.6-0.5-13.2-2.2-19.2-5.1l-3.8,8
				C189.5,266.8,197.2,268.8,204.9,269.4z"/>
			<path class="st1" d="M166.4,238.8c-3.9-5.4-6.8-11.5-8.5-18l-8.6,2.2c1.9,7.5,5.3,14.7,9.9,20.9c4.6,6.3,10.3,11.7,16.9,15.9
				l4.8-7.5C175.2,248.8,170.3,244.2,166.4,238.8z"/>
			<path class="st1" d="M156.7,214.1l-0.1-0.9l-0.1-0.9c0-0.6-0.1-1.3-0.1-1.9l-0.1-1.9l0-0.5l0-0.5l0-0.9c0-0.6,0-1.3,0.1-1.9
				l0.1-1.9l0.2-1.9c0.3-2.5,0.8-5,1.5-7.4l0.2-0.9c0.1-0.3,0.2-0.6,0.3-0.9l0.6-1.8l0.7-1.8c0.1-0.3,0.2-0.6,0.3-0.9l0.4-0.9
				c1-2.3,2.2-4.5,3.5-6.7l1-1.6c0.3-0.5,0.7-1,1.1-1.5l0.5-0.8c0.2-0.3,0.4-0.5,0.6-0.7c0.4-0.5,0.8-1,1.2-1.5
				c1.6-1.9,3.4-3.7,5.3-5.4c1.9-1.7,3.9-3.2,6-4.6l-4.9-7.4c-2.4,1.6-4.8,3.5-7,5.4c-2.2,2-4.2,4.1-6.1,6.4
				c-0.5,0.6-0.9,1.2-1.4,1.7c-0.2,0.3-0.5,0.6-0.7,0.9l-0.6,0.9c-0.4,0.6-0.9,1.2-1.3,1.8l-1.2,1.9c-1.5,2.5-2.9,5.1-4.1,7.8
				l-0.4,1c-0.1,0.3-0.3,0.7-0.4,1l-0.8,2.1l-0.7,2.1c-0.1,0.4-0.2,0.7-0.3,1.1l-0.3,1.1c-0.8,2.8-1.4,5.7-1.7,8.7l-0.3,2.2
				l-0.1,2.2c-0.1,0.7-0.1,1.5-0.1,2.2l0,1.1l0,0.6l0,0.6l0.1,2.2c0,0.7,0.1,1.5,0.2,2.2l0.1,1.1l0.1,1.1c0.1,0.7,0.2,1.5,0.3,2.2
				l8.8-1.4C156.8,215.4,156.7,214.8,156.7,214.1z"/>
			<path class="st1" d="M217.9,155.3c0.5,0.1,1.1,0.2,1.6,0.3l1.7-8.7c-0.6-0.1-1.3-0.2-1.9-0.3l-1-0.2c-0.3-0.1-0.6-0.1-1-0.1
				l-1.2,8.8c0.3,0,0.5,0.1,0.8,0.1L217.9,155.3z"/>
		</g>
		<g>
			<path class="st1" d="M215.2,275.3l-1.8,0.1c-0.3,0-0.6,0-0.9,0l-0.9,0l0.2,4.7c-0.8,0-1.5,0.1-2.3,0.1l-2.3,0c-0.4,0-0.8,0-1.1,0
				l-1.1-0.1l-2.2-0.1l0.4-4.7l-3.5-0.4l-2.1,14.8c1.4,0.2,2.9,0.3,4.3,0.5l0.4-4.7l2.4,0.2l1.2,0.1c0.4,0,0.8,0,1.2,0l2.4,0
				c0.8,0,1.6,0,2.4-0.1l0.2,4.7l1.1,0c0.4,0,0.7,0,1.1-0.1l2.1-0.2L215.2,275.3z"/>
			<path class="st1" d="M223.2,289.3l2.1-0.4l-2.9-14.6l-1.7,0.3l-0.9,0.2c-0.3,0.1-0.6,0.1-0.9,0.1l2.1,14.8
				c0.4-0.1,0.7-0.1,1.1-0.1L223.2,289.3z"/>
			<path class="st1" d="M228.6,127l-3.5,14.5c1.1,0.3,2.3,0.6,3.4,0.9l4.2-14.3C231.4,127.8,230,127.4,228.6,127z"/>
			<path class="st1" d="M232,143.5l3.3,1.3l0,0l3.2,1.4l2-4.3c2.7,1.3,5.4,2.7,7.9,4.4l-2.5,4l1.5,0.9l1.4,1l8.7-12.1l-1.8-1.2
				l-1.8-1.2l-2.5,4c-2.7-1.8-5.6-3.3-8.5-4.7l2-4.3L241,131l0,0l-4-1.5L232,143.5z"/>
			<path class="st1" d="M193.7,289l2.8-14.6c-5.1-1-10.1-2.6-14.8-4.7l-6,13.6C181.4,285.9,187.5,287.8,193.7,289z"/>
			<path class="st1" d="M164.7,258.9l-9.8,11.3c4.8,4.1,10,7.8,15.6,10.7l7-13.2C172.9,265.3,168.6,262.3,164.7,258.9z"/>
			<path class="st1" d="M156.9,164.3c0.2-0.3,0.4-0.5,0.6-0.7l1.3-1.5c0.4-0.5,0.9-0.9,1.3-1.4l1.3-1.4l1.4-1.3
				c0.5-0.4,0.9-0.9,1.4-1.3l1.5-1.3c0.2-0.2,0.5-0.4,0.7-0.6l0.8-0.6l-9.2-11.7l-0.9,0.7c-0.3,0.2-0.6,0.5-0.9,0.8l-1.8,1.5
				c-0.6,0.5-1.2,1.1-1.8,1.6l-1.7,1.6l-1.6,1.7c-0.5,0.6-1.1,1.1-1.6,1.7l-1.6,1.8c-0.3,0.3-0.5,0.6-0.8,0.9l-0.7,0.9l11.6,9.3
				L156.9,164.3z"/>
			<path class="st1" d="M171.9,150.9l1.6-1l0.8-0.5c0.3-0.2,0.6-0.3,0.8-0.5l1.7-1l0.4-0.2c0.1-0.1,0.3-0.1,0.4-0.2l0.9-0.4l1.7-0.9
				l1.8-0.8c0.6-0.3,1.2-0.5,1.8-0.8l-9.1-22.5c-0.8,0.3-1.6,0.7-2.4,1l-2.4,1.1c-0.8,0.4-1.6,0.8-2.4,1.2l-1.2,0.6
				c-0.2,0.1-0.4,0.2-0.6,0.3l-0.6,0.3l-2.3,1.3c-0.4,0.2-0.8,0.4-1.1,0.7l-1.1,0.7l-2.2,1.4c-0.7,0.5-1.4,1-2.2,1.5l13.9,19.9
				C170.8,151.6,171.3,151.2,171.9,150.9z"/>
			<path class="st1" d="M187.3,143.3c4.9-1.7,10-2.8,15.2-3.3l-1.5-14.8c-6.3,0.6-12.5,2-18.5,4.1L187.3,143.3z"/>
			<path class="st1" d="M221.6,140.8l4.4-23.9c-6.9-1.3-14-1.7-21-1.4l1.2,24.3C211.3,139.5,216.5,139.8,221.6,140.8z"/>
			<path class="st1" d="M153.9,247c-2.2-3.1-4.2-6.4-5.8-9.8c-1.6-3.4-3-7-4.1-10.7c-1.1-3.7-1.8-7.4-2.3-11.2l-14.8,1.7
				c0.5,4.6,1.5,9.2,2.7,13.7c1.3,4.5,3,8.8,5,13c2,4.2,4.4,8.2,7.1,12c2.7,3.8,5.7,7.4,9,10.7l10.5-10.5
				C158.6,253,156.1,250.1,153.9,247z"/>
			<path class="st1" d="M286.5,237.8l0.6-1.5c0.2-0.5,0.4-1,0.6-1.5l1-3.1c0.3-1,0.6-2.1,0.9-3.2c0.3-1.1,0.5-2.1,0.8-3.2l0.4-1.6
				l0.1-0.4l0.1-0.4l0.1-0.8l0.3-1.6l0.1-0.8c0-0.3,0.1-0.5,0.1-0.8l0.4-3.3l0-0.4l0-0.4l0.1-0.8l0.1-1.6c0.2-4.4,0.1-8.8-0.3-13.1
				c-0.5-4.4-1.3-8.7-2.4-12.9c-1.1-4.2-2.6-8.4-4.4-12.4l-0.7-1.5c-0.2-0.5-0.5-1-0.7-1.5l-0.7-1.5l-0.4-0.7L282,168
				c-0.5-1-1.1-1.9-1.6-2.9l-1.7-2.8c-2.4-3.7-5.1-7.1-8-10.4l-2.2-2.4c-0.8-0.8-1.6-1.5-2.4-2.3l-0.6-0.6c-0.2-0.2-0.4-0.4-0.6-0.5
				l-1.2-1.1l-1.2-1.1l-1.3-1l-9.3,11.6l1.1,0.8l1,0.9l1,0.9c0.2,0.1,0.3,0.3,0.5,0.4l0.5,0.5c0.6,0.6,1.3,1.2,1.9,1.9l1.8,2
				c2.4,2.7,4.6,5.5,6.6,8.5l1.4,2.3l1.3,2.3l0.3,0.6l0.3,0.6l0.6,1.2c0.2,0.4,0.4,0.8,0.6,1.2l0.5,1.2c1.5,3.3,2.7,6.7,3.6,10.2
				c0.9,3.5,1.6,7,2,10.6c0.4,3.6,0.4,7.2,0.2,10.8l-0.1,1.3l0,0.7l0,0.3l0,0.3l-0.3,2.7c0,0.2-0.1,0.4-0.1,0.7l-0.1,0.7l-0.2,1.3
				l-0.1,0.7l-0.1,0.3l-0.1,0.3l-0.3,1.3c-0.2,0.9-0.4,1.8-0.6,2.6c-0.2,0.9-0.5,1.7-0.7,2.6l-0.8,2.6c-0.1,0.4-0.3,0.8-0.5,1.3
				l-0.5,1.3L286.5,237.8z"/>
			<path class="st1" d="M225.9,273.5l6,23.5c1.5-0.4,3.1-0.8,4.6-1.3l-7.2-23.2C228.2,272.9,227.1,273.2,225.9,273.5z"/>
			<path class="st1" d="M240.9,284.2c0.3-0.1,0.7-0.3,1-0.4l-5.9-13.7c-0.3,0.1-0.5,0.2-0.8,0.4l-0.8,0.3l-1.6,0.6l5.2,14l2-0.8
				L240.9,284.2z"/>
			<path class="st1" d="M241.7,267.3c-0.3,0.1-0.5,0.3-0.8,0.4l-1.6,0.8l10.7,21.8l2.1-1.1c0.4-0.2,0.7-0.4,1.1-0.6l1-0.6
				l-11.8-21.2L241.7,267.3z"/>
			<path class="st1" d="M248.5,263.1l-1.4,1c-0.5,0.3-1,0.6-1.5,0.9l8,12.6c0.6-0.4,1.2-0.8,1.8-1.2l1.8-1.2L248.5,263.1z"/>
			<polygon class="st1" points="252.8,259.8 252.1,260.4 251.4,260.9 266.5,280 267.4,279.3 268.3,278.5 270.2,276.9 254.2,258.7 
							"/>
			<path class="st1" d="M258,255l-0.6,0.6c-0.2,0.2-0.4,0.4-0.6,0.6l10.4,10.7c0.3-0.2,0.5-0.5,0.8-0.8l0.7-0.8l1.5-1.6l-11-10.1
				L258,255z"/>
			<path class="st1" d="M262.7,249.6l-1.1,1.4l18.7,15.5l1.5-1.9l0.7-0.9c0.2-0.3,0.5-0.6,0.7-1l-19.5-14.5
				c-0.2,0.2-0.3,0.5-0.5,0.7L262.7,249.6z"/>
			<path class="st1" d="M278.3,253.5l1.2-1.8l0.6-0.9c0.2-0.3,0.4-0.6,0.5-0.9l-12.8-7.6c-0.1,0.3-0.3,0.5-0.4,0.8l-0.5,0.7l-1,1.5
				L278.3,253.5z"/>
			<path class="st1" d="M291.1,250.3l1.1-2.1c0.2-0.4,0.4-0.7,0.5-1.1l0.5-1.1l-22.1-10.1l-0.4,0.8c-0.1,0.3-0.3,0.5-0.4,0.8
				l-0.8,1.6L291.1,250.3z"/>
			<path class="st1" d="M154.1,167.9l-19.7-14.2l-1.4,2c-0.5,0.7-0.9,1.3-1.3,2l20.4,13.1c0.3-0.5,0.6-1,1-1.5L154.1,167.9z"/>
			<path class="st1" d="M150.3,173.9l-13-7.4c-0.4,0.6-0.7,1.2-1.1,1.9l-1,1.9l13.3,6.7l0.8-1.6C149.7,174.9,150,174.4,150.3,173.9z
				"/>
			<path class="st1" d="M146.4,181.9c0.1-0.3,0.2-0.5,0.3-0.8l0.4-0.8l-22.2-9.8l-0.5,1.1c-0.2,0.4-0.3,0.7-0.5,1.1L123,175
				l22.7,8.6L146.4,181.9z"/>
			<path class="st1" d="M144.5,187l-14.2-4.5c-0.5,1.4-0.8,2.8-1.2,4.1l14.4,3.8C143.9,189.3,144.1,188.1,144.5,187z"/>
			<polygon class="st1" points="142.4,195.7 142.5,194.8 142.7,193.9 118.9,189 118.7,190.2 118.5,191.4 118.1,193.7 142.1,197.4 
							"/>
			<path class="st1" d="M141.5,202.8l0.1-0.9c0-0.1,0-0.3,0-0.4l0.1-0.4l-14.8-1.5l-0.1,0.5c0,0.2,0,0.4,0,0.5l-0.1,1.1l-0.1,2.2
				l14.9,0.7L141.5,202.8z"/>
			<path class="st1" d="M141.3,208.1l-24.3,0.2c0.1,1.6,0.1,3.2,0.2,4.8l24.2-1.5C141.4,210.5,141.4,209.3,141.3,208.1z"/>
		</g>
		<g>
			<path class="st1" d="M228.6,167.3l0.7,0.4l1.3-2.5l-0.8-0.4c-0.3-0.1-0.5-0.2-0.8-0.4l-1.6-0.7l-1.6-0.6
				c-0.3-0.1-0.5-0.2-0.8-0.3l-0.8-0.3l-0.9,2.7l0.8,0.3c0.3,0.1,0.5,0.2,0.8,0.3l1.5,0.6l1.5,0.7
				C228.1,167.1,228.3,167.2,228.6,167.3z"/>
			<path class="st1" d="M233.6,170.1l0.7,0.4c0.2,0.1,0.4,0.3,0.7,0.5c0.4,0.3,0.9,0.6,1.3,0.9l1.3,1l1.8-2.2l-1.3-1.1
				c-0.5-0.3-0.9-0.7-1.4-1c-0.2-0.2-0.5-0.3-0.7-0.5l-0.7-0.5c-0.5-0.3-1-0.6-1.5-0.9l-1.4,2.4
				C232.7,169.5,233.1,169.9,233.6,170.1z"/>
			<path class="st1" d="M241.1,176.3l1.1,1.2c0.4,0.4,0.7,0.8,1.1,1.2c0.3,0.4,0.7,0.8,1,1.2l2.2-1.7c-0.3-0.5-0.7-0.9-1.1-1.3
				c-0.4-0.4-0.7-0.9-1.1-1.3l-1.2-1.2l-1.2-1.2l-1.9,2.1L241.1,176.3z"/>
			<path class="st1" d="M247.1,183.9c0.3,0.5,0.6,0.9,0.8,1.4c0.3,0.5,0.5,0.9,0.8,1.4l0.7,1.4l2.5-1.2l-0.8-1.5
				c-0.3-0.5-0.6-1-0.8-1.5c-0.3-0.5-0.6-1-0.9-1.5c-0.3-0.5-0.6-1-0.9-1.4l-2.3,1.6C246.6,183,246.8,183.5,247.1,183.9z"/>
			<path class="st1" d="M252.7,197.3l2.7-0.7c-0.5-2.2-1.2-4.4-2.1-6.5l-2.6,1C251.6,193.2,252.2,195.2,252.7,197.3z"/>
			<path class="st1" d="M183.9,244.4l-0.7-0.5c-0.4-0.3-0.9-0.6-1.3-1l-1.3-1l-1.2-1.1l-1.9,2.1l1.3,1.1l1.3,1.1
				c0.4,0.4,0.9,0.7,1.4,1l0.7,0.5c0.2,0.2,0.5,0.3,0.7,0.5l1.6-2.4C184.3,244.7,184.1,244.5,183.9,244.4z"/>
			<path class="st1" d="M255,220.4c1.8-6.6,2.3-13.5,1.2-20.3l-2.8,0.4c1,6.3,0.6,12.9-1.1,19.1c-1.7,6.2-4.8,12-9,16.9l2.2,1.8
				C249.9,233.2,253.2,227,255,220.4z"/>
			<path class="st1" d="M210.1,163l0.1-2.8c-13.7-0.3-27.3,5.7-36.4,15.9l2.1,1.9C184.4,168.3,197.3,162.7,210.1,163z"/>
			<path class="st1" d="M194.8,249.9l-0.9,2.7c2.4,0.9,4.9,1.5,7.5,1.9c2.5,0.4,5.1,0.7,7.7,0.7c2.6,0,5.1-0.2,7.7-0.6
				c2.5-0.4,5-1,7.5-1.8l-0.9-2.7c-2.3,0.8-4.7,1.4-7,1.7c-2.4,0.4-4.8,0.6-7.2,0.6c-2.4,0-4.8-0.2-7.2-0.6
				C199.5,251.3,197.1,250.7,194.8,249.9z"/>
			<path class="st1" d="M164.7,204.9l-2.8-0.2c-0.7,10.3,2.2,20.7,7.9,29.3l2.3-1.6C166.8,224.4,164.1,214.6,164.7,204.9z"/>
		</g>
		<g>
			<polygon class="st1" points="241.5,129.8 239.9,129.2 227.8,160.3 228.7,160.6 229.7,161 243,130.4 			"/>
			<path class="st1" d="M232.9,162.6l10.2-19.5l-2.6-1.3l-9.4,19.9C231.7,162,232.3,162.3,232.9,162.6z"/>
			<path class="st1" d="M235.1,163.8c0.3,0.2,0.6,0.3,0.9,0.5l37.1-60.4c-0.7-0.4-1.4-0.8-2.1-1.2l-2.1-1.2l-34.7,61.8L235.1,163.8z
				"/>
			<path class="st1" d="M261.8,127.7l-24.6,37.4c0.6,0.3,1.1,0.8,1.6,1.1l26-36.4C263.9,129.2,262.9,128.4,261.8,127.7z"/>
			<path class="st1" d="M241.7,168.4l31.9-38.6l-3.1-2.5l-30.4,39.9C240.7,167.6,241.2,168,241.7,168.4z"/>
			<path class="st1" d="M244.4,170.8l19.5-20.5c-0.4-0.4-0.7-0.7-1.1-1.1l-1.2-1l-18.7,21.2l0.8,0.6
				C243.9,170.3,244.1,170.5,244.4,170.8z"/>
			<path class="st1" d="M246.8,173.3l11.3-10.3l-1.8-1.9l-10.8,10.7C245.9,172.3,246.4,172.8,246.8,173.3z"/>
			<path class="st1" d="M248.5,175.2c0.1,0.1,0.2,0.2,0.3,0.4l0.3,0.4l6.6-5.3l-0.4-0.5c-0.1-0.2-0.3-0.3-0.4-0.4l-0.8-0.9l-6.4,5.5
				L248.5,175.2z"/>
			<path class="st1" d="M250.7,178l0.6,0.8l26.6-18.2l-0.9-1.3c-0.3-0.4-0.6-0.9-1-1.3l-25.8,19.2
				C250.3,177.5,250.5,177.8,250.7,178z"/>
			<path class="st1" d="M252.6,181c0.2,0.3,0.4,0.6,0.5,0.9l53.2-31.2c-0.4-0.6-0.8-1.3-1.1-1.9l-1.2-1.9l-51.9,33.2L252.6,181z"/>
			<path class="st1" d="M254.2,183.6c0.1,0.1,0.1,0.3,0.2,0.5l0.4,0.9l40.1-19.9l-0.8-1.7c-0.1-0.3-0.3-0.6-0.4-0.8l-0.5-0.8
				l-39.3,21.4L254.2,183.6z"/>
			<path class="st1" d="M274.4,180.8c-0.4-0.9-0.8-1.7-1.1-2.5l-17.8,8.2l0.8,1.8L274.4,180.8z"/>
			<path class="st1" d="M257.2,190.6l0.3,1l26.8-8.9l-0.5-1.5c-0.2-0.5-0.4-1-0.5-1.5l-26.5,10C257,190,257.1,190.3,257.2,190.6z"/>
			<path class="st1" d="M258.6,195l49.6-12.8l-1.1-3.9l-49,14.7C258.2,193.7,258.4,194.3,258.6,195z"/>
			<polygon class="st1" points="278,192.2 258.9,196.5 259.1,197.5 259.3,198.5 278.6,194.9 278.3,193.5 			"/>
			<path class="st1" d="M259.8,202l32-3.6l-0.4-3.2l-31.8,4.9C259.7,200.7,259.8,201.3,259.8,202z"/>
			<path class="st1" d="M268.6,205.1c0-0.8-0.1-1.6-0.2-2.3l-8.4,0.7c0.1,0.7,0.1,1.3,0.1,2L268.6,205.1z"/>
			<path class="st1" d="M260.2,209.2c14.9,0.4,29.8,0.7,44.7,0.9l0-1.9c0-0.6,0-1.3,0-1.9c-14.9,0.4-29.8,0.7-44.7,0.9L260.2,209.2z
				"/>
			<path class="st1" d="M259.9,212.6l21.9,2.2c0.1-0.5,0.1-1,0.1-1.4l0.1-1.4l-22-1.3l-0.1,1C260,211.9,260,212.2,259.9,212.6z"/>
			<path class="st1" d="M259.4,216.1l58.9,10c0.2-1.4,0.5-2.9,0.7-4.3l-59.3-7.7C259.7,214.8,259.5,215.4,259.4,216.1z"/>
			<path class="st1" d="M258.8,219.5l49.7,12.1l0.9-3.9l-50.2-10.1C259,218.2,258.9,218.9,258.8,219.5z"/>
			<path class="st1" d="M258.1,222c-0.1,0.3-0.2,0.6-0.3,1l27,8.6c0.2-0.5,0.3-1,0.5-1.5l0.4-1.5l-27.3-7.5L258.1,222z"/>
			<path class="st1" d="M256.6,226.3l18.2,7.2c0.3-0.9,0.7-1.7,1-2.6l-18.5-6.5C257.1,225.1,256.8,225.7,256.6,226.3z"/>
			<path class="st1" d="M262.8,233.3c0.3-0.7,0.6-1.4,1-2.2l-7.8-3.3c-0.3,0.6-0.5,1.2-0.8,1.9L262.8,233.3z"/>
			<path class="st1" d="M253.5,232.8l44,24.9l1-1.7c0.3-0.6,0.6-1.2,0.9-1.8L254.4,231c-0.2,0.3-0.3,0.6-0.5,0.9L253.5,232.8z"/>
			<path class="st1" d="M251.6,235.8l26.8,17.8l1.8-2.8l-27.5-16.7C252.4,234.7,252,235.2,251.6,235.8z"/>
			<path class="st1" d="M250.2,237.9c-0.1,0.1-0.2,0.3-0.3,0.4l-0.3,0.4l47.4,36.4l0.7-0.9c0.2-0.3,0.4-0.6,0.6-0.9l1.3-1.8
				l-48.8-34.5L250.2,237.9z"/>
			<path class="st1" d="M279.9,265.5l-31.3-25.6c-0.2,0.3-0.4,0.5-0.6,0.8l-0.7,0.7l30.2,26.8l1.2-1.4
				C279.1,266.4,279.5,265.9,279.9,265.5z"/>
			<path class="st1" d="M246.3,242.5c-0.5,0.5-0.9,1-1.4,1.4l18.1,18.5c0.7-0.7,1.4-1.4,2.1-2.2L246.3,242.5z"/>
			<polygon class="st1" points="243.4,245.3 243.3,245.5 243.1,245.7 242.3,246.3 275.5,285.3 277,284 277.4,283.7 277.8,283.4 
				278.5,282.7 243.8,245 			"/>
			<path class="st1" d="M257.3,267.5l-16.2-20.2c-0.5,0.4-1.1,0.8-1.6,1.2l15.3,20.8L257.3,267.5z"/>
			<polygon class="st1" points="236.6,250.5 242.9,260.5 244,259.9 245,259.2 238.3,249.4 237.4,250 			"/>
			<path class="st1" d="M233.5,252.3l22.2,41.1l3.3-1.9l-23.8-40.2C234.7,251.7,234.1,252,233.5,252.3z"/>
			<polygon class="st1" points="234.6,261.3 234.9,261.1 235.9,260.6 232.1,253 231.2,253.5 231,253.6 230.8,253.7 230.3,253.9 
				233.8,261.6 234.4,261.4 			"/>
			<path class="st1" d="M227,255.3l17.9,48.1c1.2-0.5,2.5-1,3.7-1.5l-19.8-47.3C228.3,254.8,227.7,255,227,255.3z"/>
			<polygon class="st1" points="236,294.9 236.8,294.6 238.5,294.1 225.6,255.8 224.6,256.1 224.1,256.3 223.7,256.4 235.1,295.1 
							"/>
			<path class="st1" d="M220.2,257.3l4.8,21.5l1.4-0.3c0.5-0.1,0.9-0.2,1.4-0.3l-5.6-21.3c-0.3,0.1-0.6,0.2-1,0.2L220.2,257.3z"/>
			<path class="st1" d="M220.3,265.9l-1.6-8.3l-1,0.2c-0.3,0.1-0.7,0.1-1,0.2l1.2,8.4c0.4,0,0.8-0.1,1.2-0.2L220.3,265.9z"/>
			<path class="st1" d="M215.2,284.1c1-0.1,2-0.1,3-0.3l-3-25.7c-0.7,0.1-1.3,0.1-2,0.2L215.2,284.1z"/>
			<path class="st1" d="M209.7,258.5l0.4,51.2l4-0.1l-2.4-51.1C211,258.5,210.3,258.5,209.7,258.5z"/>
			<polygon class="st1" points="207.9,270.3 208.1,258.5 207.1,258.5 206.1,258.4 205.4,270.2 206.6,270.3 			"/>
			<path class="st1" d="M199.4,281.8l2.9,0.3l2.2-23.8c-0.7-0.1-1.3-0.2-2-0.2L199.4,281.8z"/>
			<path class="st1" d="M199.1,257.5L188.9,307c1.3,0.3,2.6,0.5,3.9,0.7l8.2-49.9C200.4,257.7,199.8,257.6,199.1,257.5z"/>
			<path class="st1" d="M195.7,256.6l-4.4,15.6l1.3,0.3c0.4,0.1,0.8,0.2,1.3,0.3l3.7-15.8c-0.3-0.1-0.6-0.2-1-0.2L195.7,256.6z"/>
			<path class="st1" d="M192.3,255.6l-20,56.3c1.4,0.5,2.8,0.9,4.1,1.4l17.8-57C193.6,256,192.9,255.8,192.3,255.6z"/>
			<polygon class="st1" points="171.9,293.5 173.5,294.2 175.3,294.9 190.8,255 189.9,254.6 189,254.2 			"/>
			<path class="st1" d="M185.7,252.7l-23.3,44.8c1.2,0.6,2.4,1.2,3.6,1.8l21.6-45.7L185.7,252.7z"/>
			<path class="st1" d="M169.2,275.9l1.4,0.8l13.8-24.7l-0.9-0.5c-0.3-0.2-0.6-0.3-0.9-0.5l-14.8,24.1
				C168.3,275.4,168.7,275.6,169.2,275.9z"/>
			<path class="st1" d="M172.4,263.7l8.9-13.6c-0.6-0.3-1.1-0.7-1.6-1.1l-9.4,13.2C171,262.7,171.7,263.2,172.4,263.7z"/>
			<path class="st1" d="M173.3,254.8l5.1-6.7c-0.5-0.4-1-0.8-1.6-1.2l-5.4,6.5C172.1,253.9,172.7,254.3,173.3,254.8z"/>
			<path class="st1" d="M175,245.2c-0.3-0.2-0.5-0.5-0.7-0.7l-32.2,33.8c0.5,0.4,0.9,0.9,1.4,1.3l1.4,1.3l30.8-35.1L175,245.2z"/>
			<path class="st1" d="M171.8,242l-20.9,19.1l2.1,2.3l20.1-19.9C172.7,243,172.2,242.5,171.8,242z"/>
			<path class="st1" d="M154.9,251.7c0.1,0.2,0.3,0.3,0.4,0.5l0.9,1l14.5-12.5l-0.7-0.8c-0.1-0.1-0.2-0.2-0.3-0.4l-0.3-0.4l-15,11.9
				L154.9,251.7z"/>
			<path class="st1" d="M158.3,244.1c0.2,0.3,0.5,0.7,0.7,1l9.5-7.1c-0.2-0.3-0.4-0.5-0.6-0.8l-0.6-0.8l-9.8,6.7L158.3,244.1z"/>
			<path class="st1" d="M158.8,238.7l0.6,1l7.1-4.6l-0.5-0.9c-0.2-0.3-0.4-0.6-0.5-0.9l-7.3,4.3
				C158.3,238.1,158.6,238.4,158.8,238.7z"/>
			<path class="st1" d="M163.8,230.3l-38.3,19.1c0.6,1.1,1.1,2.2,1.7,3.3l37.6-20.5C164.3,231.5,164.1,230.9,163.8,230.3z"/>
			<path class="st1" d="M147.3,233.2l1.1,2.4l14.7-6.8c-0.3-0.6-0.5-1.2-0.8-1.8L147.3,233.2z"/>
			<path class="st1" d="M161.4,224.7l-0.3-1l-48.5,16.2l0.6,1.9c0.2,0.6,0.5,1.3,0.7,1.9l47.9-18.1
				C161.6,225.3,161.5,225,161.4,224.7z"/>
			<path class="st1" d="M160,220.3l-30.2,7.8l0.9,3.1l29.9-9C160.4,221.6,160.2,220.9,160,220.3z"/>
			<path class="st1" d="M143.6,221.1l0.3,1.3l15.8-3.6l-0.2-1c-0.1-0.3-0.1-0.7-0.2-1l-15.9,3C143.4,220.2,143.5,220.6,143.6,221.1z
				"/>
			<path class="st1" d="M158.7,213.3l-40.1,4.6l0.5,3.6l39.9-6.2C158.9,214.6,158.8,214,158.7,213.3z"/>
			<path class="st1" d="M127.3,211.1c0,1.1,0.1,2.2,0.2,3.2l31.1-2.6c0-0.7-0.1-1.3-0.1-2L127.3,211.1z"/>
			<path class="st1" d="M158.4,207.2l0-1l-62-1.7l0,2.2c0,0.7,0,1.5,0,2.2l62-0.8C158.4,207.9,158.4,207.6,158.4,207.2z"/>
			<path class="st1" d="M158.6,203.7c0-0.3,0-0.7,0.1-1l-50.3-4.9c-0.1,0.7-0.1,1.3-0.2,2l-0.1,2l50.5,2.9L158.6,203.7z"/>
			<path class="st1" d="M159.1,199.2l-53.6-9.1c-0.2,1.4-0.5,2.7-0.6,4.1l53.9,6.9C158.9,200.5,159,199.9,159.1,199.2z"/>
			<path class="st1" d="M159.8,195.8l-27.5-6.7l-0.7,3l27.7,5.6C159.5,197.1,159.7,196.4,159.8,195.8z"/>
			<path class="st1" d="M160.5,193.3c0.1-0.3,0.2-0.6,0.3-1L120,179.4c-0.2,0.6-0.4,1.2-0.6,1.8l-0.5,1.8l41.3,11.3L160.5,193.3z"/>
			<path class="st1" d="M161.4,190.4l0.2-0.5l0.4-0.9l-7.9-3.1l-0.4,1.1l-0.2,0.5c-0.1,0.2-0.1,0.4-0.2,0.6l8,2.8
				C161.3,190.7,161.4,190.5,161.4,190.4z"/>
			<polygon class="st1" points="146.1,177.4 145,180 162.6,187.5 163.4,185.7 			"/>
			<path class="st1" d="M165.1,182.5l-44-24.9l-1,1.7c-0.3,0.6-0.6,1.2-0.9,1.8l45,23.1l0.4-0.9L165.1,182.5z"/>
			<path class="st1" d="M165.8,181.2c0.4-0.6,0.7-1.1,1.1-1.7l-21.5-14.2l-1.6,2.5L165.8,181.2z"/>
			<polygon class="st1" points="168.4,177.4 168.6,177 169,176.6 135,150.6 134.4,151.3 133.9,152 132.8,153.5 167.8,178.2 			"/>
			<path class="st1" d="M156,162.3l-0.5,0.5c-0.1,0.2-0.3,0.4-0.4,0.5l14.8,12.1c0.1-0.1,0.2-0.3,0.3-0.4l0.3-0.4l0.7-0.7
				l-14.3-12.7L156,162.3z"/>
			<path class="st1" d="M173.6,171.3l-36.5-37.2c-1,1-1.9,1.9-2.8,2.9l38,35.8L173.6,171.3z"/>
			<path class="st1" d="M156.7,148.4c-0.4,0.3-0.8,0.7-1.1,1.1l19.2,20.8c0.2-0.2,0.5-0.5,0.7-0.7l0.8-0.6l-18.4-21.5L156.7,148.4z"
				/>
			<path class="st1" d="M179,166.7l-5-6.8c-0.6,0.5-1.2,1-1.8,1.4l5.3,6.6C178,167.6,178.5,167.1,179,166.7z"/>
			<path class="st1" d="M181.1,165.3c0.3-0.2,0.6-0.4,0.9-0.5l-21.7-34.1c-0.5,0.3-1,0.6-1.5,1l-1.5,1l23,33.2L181.1,165.3z"/>
			<path class="st1" d="M175.9,146.1l-2.4,1.4l9.8,16.4c0.6-0.3,1.2-0.6,1.8-1L175.9,146.1z"/>
			<path class="st1" d="M188.2,161.3l-15.3-33.7c-1.1,0.4-2.1,1-3.1,1.5l16.6,33.1C187,161.9,187.6,161.6,188.2,161.3z"/>
			<path class="st1" d="M183.4,145.8l6.3,14.9c0.6-0.3,1.3-0.5,1.9-0.7l-5.7-15.2C185,145.1,184.2,145.4,183.4,145.8z"/>
			<polygon class="st1" points="193.9,159.1 194.4,159 194.9,158.8 180.2,109.3 179.2,109.6 178.3,109.9 176.4,110.6 193,159.5 			
				"/>
			<path class="st1" d="M189.5,129.5c-0.3,0.1-0.5,0.1-0.8,0.2l7.6,28.8c0.2,0,0.3-0.1,0.5-0.1l0.5-0.1l1-0.2l-6.5-29l-1.5,0.4
				L189.5,129.5z"/>
			<path class="st1" d="M194.9,117.5l-0.9,0.2l-1.8,0.3l7.6,39.7l1-0.2l0.5-0.1c0.2,0,0.3-0.1,0.5-0.1l-6-39.9
				C195.5,117.4,195.2,117.4,194.9,117.5z"/>
			<path class="st1" d="M200.7,134.8l2.7,22.3c0.7-0.1,1.3-0.1,2-0.2l-1.8-22.4C202.6,134.6,201.6,134.6,200.7,134.8z"/>
			<path class="st1" d="M208.9,156.7l-0.5-53l-4.1,0.1l2.6,53C207.5,156.8,208.2,156.8,208.9,156.7z"/>
			<polygon class="st1" points="211.2,119.8 210.4,156.8 211.4,156.8 212.4,156.8 214.7,119.9 212.9,119.8 			"/>
			<path class="st1" d="M215.4,140.8l-1.5,16.1c0.7,0.1,1.3,0.2,2,0.2l2.1-16.1L215.4,140.8z"/>
			<path class="st1" d="M218.9,157.7l0.5,0.1l1.7-8.3l-0.6-0.1c-0.2,0-0.4-0.1-0.6-0.1l-1.2-0.2l-1.4,8.4l1,0.2
				C218.6,157.6,218.7,157.6,218.9,157.7z"/>
			<path class="st1" d="M221.9,158.3l1,0.3l6-21.7l-1.4-0.4l-0.7-0.2c-0.2-0.1-0.5-0.1-0.7-0.2l-5.2,21.9c0.2,0,0.3,0.1,0.5,0.1
				L221.9,158.3z"/>
			<path class="st1" d="M237.6,116.4L224.3,159c0.6,0.2,1.3,0.4,1.9,0.6l14.9-42L237.6,116.4z"/>
		</g>
		<g>
			<path class="st1" d="M152.4,141.8L137.1,124c-6,5.2-11.5,11-16.2,17.3l18.8,14.1C143.4,150.4,147.7,145.9,152.4,141.8z"/>
			<path class="st1" d="M201.9,120.9l-4-46.9c-15.3,1.3-30.4,5.2-44.4,11.7l19.6,42.8C182.2,124.3,192,121.8,201.9,120.9z"/>
			<path class="st1" d="M128.2,176.3l-21.9-8.5c-2.9,7.4-4.9,15.1-6.2,22.9l23.2,3.6C124.3,188.2,125.9,182.1,128.2,176.3z"/>
			<path class="st1" d="M203.4,294.4l-1.6,23.4c7.9,0.5,15.9,0.2,23.7-0.9l-3.5-23.2C215.9,294.6,209.6,294.9,203.4,294.4z"/>
			<path class="st1" d="M320.1,283.1c5.4-8,10-16.5,13.5-25.4L290,240.1c-2.4,5.8-5.3,11.4-8.8,16.5L320.1,283.1z"/>
			<path class="st1" d="M293.4,230L316,236c2.1-7.7,3.3-15.5,3.6-23.5l-23.4-1C295.9,217.7,295,223.9,293.4,230z"/>
			<path class="st1" d="M272.4,116.9c-6.5-4.5-13.5-8.4-20.8-11.4c-1.9-0.7-3.7-1.4-5.6-2.1l-7.8,22.1l4.4,1.7
				c5.8,2.4,11.3,5.4,16.4,9L272.4,116.9z"/>
			<path class="st1" d="M122.2,208.2l0-2.3l0-1.2c0-0.4,0-0.8,0-1.2l0.2-2.3l-46.9-3.5l-0.2,3.6c0,0.6-0.1,1.2-0.1,1.8l0,1.8
				l-0.1,3.6l0.1,3.6l47-1.6L122.2,208.2z"/>
			<path class="st1" d="M141.8,262.6l-2-2.6c-0.7-0.8-1.3-1.8-1.9-2.7l-0.9-1.3c-0.2-0.2-0.3-0.5-0.4-0.7l-0.4-0.7l-0.9-1.4
				l-0.4-0.7l-0.2-0.3l-0.2-0.4l-1.6-2.9c-0.3-0.5-0.5-1-0.8-1.5l-0.7-1.5c-0.2-0.5-0.5-1-0.7-1.5l-0.7-1.5c-0.9-2-1.7-4-2.5-6.1
				l-1-3.1l-0.3-0.8l-0.2-0.8l-0.4-1.6c-1.1-4.2-2.1-8.5-2.5-12.9l-23.3,2.8c0.6,5.5,1.8,11,3.2,16.3l0.6,2l0.3,1l0.3,1l1.3,4
				c1,2.6,2,5.2,3.1,7.7l0.8,1.9c0.3,0.6,0.6,1.2,0.9,1.9l0.9,1.9c0.3,0.6,0.6,1.2,1,1.8l2,3.6l0.3,0.5l0.3,0.4l0.6,0.9l1.1,1.8
				l0.6,0.9c0.2,0.3,0.4,0.6,0.6,0.9l1.2,1.7c0.8,1.1,1.6,2.3,2.4,3.4c0.9,1.1,1.7,2.2,2.5,3.3l2.7,3.2l17.6-15.5L141.8,262.6z"/>
			<path class="st1" d="M273.4,266.5c-0.2,0.2-0.4,0.4-0.6,0.6l-2.3,2.4c-0.8,0.8-1.6,1.5-2.4,2.2c-0.8,0.8-1.6,1.5-2.5,2.2
				c-0.8,0.7-1.6,1.4-2.5,2.1c-0.9,0.7-1.7,1.3-2.6,2l-2.7,1.9c-0.2,0.2-0.4,0.3-0.7,0.5l-0.7,0.4l-1.4,0.9l-1.4,0.9l-1.4,0.8
				l-1.4,0.8l-0.7,0.4l-0.7,0.4l-2.9,1.5l-3,1.3l-0.7,0.3c-0.2,0.1-0.5,0.2-0.8,0.3l-1.5,0.6l-1.5,0.6c-0.5,0.2-1,0.3-1.6,0.5
				l-1.6,0.5c-0.5,0.2-1,0.4-1.6,0.5l-3.2,0.9l5.9,22.7l4-1.1c0.7-0.2,1.3-0.4,2-0.6l2-0.7c0.7-0.2,1.3-0.4,2-0.7l1.9-0.8l1.9-0.8
				c0.3-0.1,0.7-0.2,1-0.4l1-0.4l3.8-1.7l3.7-1.9l0.9-0.5l0.9-0.5l1.8-1l1.8-1l1.8-1.1l1.8-1.1l0.9-0.6c0.3-0.2,0.6-0.4,0.9-0.6
				l3.4-2.4c1.1-0.8,2.2-1.7,3.3-2.5c1.1-0.8,2.2-1.7,3.2-2.6c1.1-0.9,2.1-1.8,3.1-2.8c1-1,2-1.9,3-2.9l2.9-3
				c0.2-0.3,0.5-0.5,0.7-0.8l0.7-0.8l1.4-1.6L275,264.6l-1.1,1.2L273.4,266.5z"/>
			<path class="st1" d="M158.9,331.9l4.7,1.8c0.8,0.3,1.6,0.6,2.4,0.8l2.4,0.8l2.4,0.8c0.8,0.2,1.6,0.5,2.4,0.7l2.4,0.7
				c0.8,0.2,1.6,0.5,2.4,0.6l4.9,1.1c0.8,0.2,1.7,0.3,2.5,0.5l2.5,0.4l7.5-46.5l-1.6-0.3c-0.5-0.1-1.1-0.2-1.6-0.3l-3.2-0.7
				c-0.5-0.1-1.1-0.3-1.6-0.4l-1.6-0.4l-1.6-0.4l-1.6-0.5l-1.6-0.5c-0.5-0.2-1-0.3-1.6-0.5l-3.1-1.2c-0.5-0.2-1-0.4-1.5-0.6
				l-1.5-0.7l-1.5-0.7c-0.5-0.2-1-0.5-1.5-0.7c-4-1.9-7.7-4.2-11.3-6.7c-3.6-2.5-7-5.3-10.1-8.3l-32.5,34c4.9,4.6,10.1,9,15.6,12.8
				c5.5,3.8,11.3,7.4,17.4,10.3c0.8,0.4,1.5,0.8,2.3,1.1l2.3,1l2.3,1C157.4,331.2,158.1,331.6,158.9,331.9z"/>
			<path class="st1" d="M268.1,143.5c0.2,0.2,0.4,0.4,0.6,0.6l1.2,1.1l1.2,1.1c0.4,0.4,0.7,0.8,1.1,1.2l1.1,1.2
				c0.4,0.4,0.8,0.8,1.1,1.2l2.1,2.5c2.7,3.4,5.3,7,7.5,10.7c2.2,3.8,4.1,7.7,5.8,11.8l1.2,3.1c0.4,1,0.7,2.1,1,3.1
				c0.4,1,0.6,2.1,0.9,3.1l0.4,1.6l0.1,0.4l0.1,0.4l0.2,0.8l45.8-11l-0.3-1.2l-0.1-0.6l-0.2-0.6l-0.7-2.4c-0.5-1.6-0.9-3.2-1.4-4.8
				c-0.5-1.6-1-3.2-1.6-4.8l-1.8-4.7c-2.6-6.2-5.5-12.3-9-18.1c-3.5-5.8-7.3-11.3-11.6-16.5l-3.3-3.9c-0.5-0.7-1.1-1.2-1.7-1.9
				l-1.7-1.8c-0.6-0.6-1.1-1.2-1.7-1.8l-1.8-1.8l-1.8-1.8c-0.3-0.3-0.6-0.6-0.9-0.9L299,108l-31.5,35L268.1,143.5z"/>
			<path class="st1" d="M160.2,135.8l1-0.7l1-0.6l2-1.2l0.5-0.3c0.2-0.1,0.3-0.2,0.5-0.3l1-0.6l-11.6-20.4l-1.3,0.7
				c-0.2,0.1-0.4,0.2-0.6,0.4l-0.6,0.4l-2.5,1.6l-1.3,0.8l-1.2,0.8l-2.4,1.7l13.7,19L160.2,135.8z"/>
			<polygon class="st1" points="212.4,97.2 209.5,97.1 209.4,120.6 211.8,120.6 212.9,120.7 214.1,120.7 215.4,97.3 213.9,97.2 			
				"/>
			<polygon class="st1" points="221.8,97.9 219.2,121.2 221.5,121.4 223.8,121.8 227.7,98.7 224.8,98.2 			"/>
			<polygon class="st1" points="235.5,100.3 234.1,100 228.8,122.8 229.9,123.1 231,123.4 233.3,124 239.8,101.5 236.9,100.7 			"/>
			<polygon class="st1" points="295.8,198 295.9,198.6 295.9,199.2 296.1,201.5 319.5,199.8 319.2,196.9 319.2,196.1 319.1,195.4 
				318.9,193.9 295.6,196.9 			"/>
			<path class="st1" d="M132.9,166.1l0.6-1c0.8-1.3,1.5-2.7,2.4-4L96,136c-1.3,2-2.5,4.1-3.6,6.1l-0.9,1.5c-0.3,0.5-0.5,1.1-0.8,1.6
				l-1.6,3.2l42.4,20.8l1-2.1C132.6,166.8,132.7,166.5,132.9,166.1z"/>
		</g>
		<g>
			<path class="st1" d="M97.4,196.8l0.5-4.7l0.8-4.7c1.2-6.2,2.8-12.3,5-18.2l1.7-4.4c0.6-1.4,1.3-2.9,1.9-4.3l0.5-1.1l0.5-1.1
				l1.1-2.1c0.4-0.7,0.7-1.4,1.1-2.1l1.2-2.1c3.1-5.5,6.6-10.7,10.7-15.6l-5.1-4.2c-4.3,5.1-8,10.7-11.3,16.5l-1.2,2.2
				c-0.4,0.7-0.8,1.5-1.1,2.2l-1.1,2.2l-0.6,1.1l-0.5,1.1c-0.7,1.5-1.4,3-2,4.6l-1.8,4.7c-2.3,6.3-4,12.7-5.3,19.3
				c-0.3,1.6-0.6,3.3-0.8,4.9l-0.6,5c-0.3,3.3-0.5,6.7-0.5,10l6.6,0.1C96.9,203.1,97.2,199.9,97.4,196.8z"/>
			<path class="st1" d="M164.9,317.9l4.7,1.8l4.7,1.6c0.4,0.1,0.8,0.3,1.2,0.4l1.2,0.3l2.4,0.7c6.4,1.7,13,2.9,19.6,3.5l0.6-6.5
				c-6.3-0.6-12.5-1.7-18.6-3.3l-2.3-0.6l-1.1-0.3c-0.4-0.1-0.7-0.2-1.1-0.4l-4.5-1.5l-4.4-1.7c-0.4-0.1-0.7-0.3-1.1-0.4l-1.1-0.5
				l-2.2-1c-5.7-2.6-11.3-5.6-16.5-9.1c-5.2-3.5-10.1-7.5-14.7-11.8c-18.3-17.3-30.4-41-33.8-65.9l-6.5,0.9
				c3.6,26.4,16.4,51.4,35.8,69.8c4.8,4.6,10,8.8,15.5,12.5c5.5,3.7,11.4,6.9,17.4,9.7l2.3,1l1.1,0.5
				C164.1,317.6,164.5,317.8,164.9,317.9z"/>
			<path class="st1" d="M265.5,304.9l-2.1,1.2c-0.7,0.4-1.4,0.8-2.1,1.1l-4.2,2.1l-4.3,1.9c-5.8,2.4-11.8,4.4-17.9,5.8
				c-1.5,0.3-3.1,0.7-4.6,1l-2.3,0.4c-0.8,0.1-1.5,0.3-2.3,0.4l-4.7,0.6l-4.7,0.4l0.4,6.6l5-0.4l5-0.6c0.8-0.1,1.6-0.3,2.5-0.4
				l2.5-0.4c1.6-0.3,3.3-0.7,4.9-1c6.5-1.5,12.8-3.6,19-6.1l4.6-2c1.5-0.7,3-1.5,4.5-2.2c0.8-0.4,1.5-0.8,2.2-1.2l2.2-1.2
				c1.5-0.8,2.9-1.7,4.3-2.6c5.6-3.6,10.9-7.6,15.9-12l3.6-3.4c1.2-1.2,2.3-2.4,3.5-3.6c0.3-0.3,0.6-0.6,0.9-0.9l0.8-0.9l1.6-1.9
				l0.8-0.9c0.3-0.3,0.6-0.6,0.8-1l1.5-2l1.5-2c0.3-0.3,0.5-0.7,0.7-1l0.7-1l1.4-2l0.7-1l0.7-1.1c0.9-1.4,1.8-2.8,2.7-4.2l2.5-4.3
				c3.2-5.9,5.9-12,8.1-18.2l1.6-4.7c0.5-1.6,0.9-3.2,1.3-4.8c0.1-0.4,0.2-0.8,0.3-1.2l0.3-1.2l0.5-2.4l0.3-1.2
				c0.1-0.4,0.2-0.8,0.2-1.2l0.4-2.5l0.4-2.5c0.1-0.4,0.1-0.8,0.2-1.2l0.1-1.2l0.3-2.5l0.1-1.2c0-0.4,0.1-0.8,0.1-1.2
				c0.1-1.7,0.2-3.3,0.3-5l0.1-5c0-6.7-0.6-13.3-1.8-19.9c-0.5-3.3-1.3-6.5-2.1-9.8l-1.4-4.8l-1.6-4.7c-2.2-6.3-5-12.4-8.2-18.2
				c-1.6-2.9-3.4-5.7-5.2-8.5l-2.9-4.1l-3-4c-4.2-5.2-8.8-10-13.7-14.5l-1.9-1.6c-0.6-0.5-1.2-1.1-1.9-1.6l-3.9-3.1l-4.1-2.9
				c-0.7-0.5-1.4-0.9-2.1-1.4l-2.1-1.3c-5.7-3.5-11.6-6.6-17.7-9.2l-4.7-1.8c-0.4-0.1-0.8-0.3-1.2-0.4l-1.2-0.4l-2.4-0.8l-2,6.3
				l2.2,0.7l1.1,0.4c0.4,0.1,0.7,0.3,1.1,0.4l4.4,1.7c5.8,2.4,11.4,5.3,16.7,8.7l2,1.3c0.7,0.4,1.3,0.8,2,1.3l3.8,2.7l3.7,2.9
				c0.6,0.5,1.2,1,1.8,1.5l1.8,1.6c4.7,4.2,9,8.8,13,13.7l2.9,3.7l2.7,3.9c1.7,2.6,3.4,5.3,4.9,8.1c3,5.5,5.6,11.3,7.7,17.2l1.5,4.5
				l1.3,4.5c0.8,3.1,1.5,6.1,2,9.2c1.1,6.2,1.6,12.5,1.7,18.8l-0.1,4.7c-0.1,1.6-0.2,3.1-0.3,4.7c0,0.4,0,0.8-0.1,1.2l-0.1,1.2
				l-0.3,2.3l-0.1,1.2c0,0.4-0.1,0.8-0.2,1.2l-0.4,2.3l-0.4,2.3c-0.1,0.4-0.2,0.8-0.2,1.2l-0.3,1.2l-0.5,2.3l-0.3,1.2
				c-0.1,0.4-0.2,0.8-0.3,1.1l-1.2,4.6l-1.5,4.5c-2.1,5.9-4.6,11.7-7.6,17.2l-2.3,4.1c-0.8,1.3-1.7,2.7-2.5,4l-0.6,1l-0.7,1
				l-1.4,1.9l-0.7,1c-0.2,0.3-0.4,0.6-0.7,0.9l-1.5,1.8l-1.5,1.9c-0.2,0.3-0.5,0.6-0.8,0.9l-0.8,0.9l-1.6,1.8l-0.8,0.9
				c-0.3,0.3-0.5,0.6-0.8,0.9c-1.1,1.1-2.2,2.3-3.3,3.4l-3.4,3.2c-4.7,4.2-9.7,8-15,11.4C268.2,303.3,266.9,304.2,265.5,304.9z"/>
			<path class="st1" d="M151.7,111.2l4.1-2.3c0.7-0.4,1.4-0.7,2.1-1.1l2.1-1.1c1.4-0.7,2.9-1.3,4.3-2l-2.6-6
				c-1.5,0.7-3.1,1.3-4.5,2.1l-2.2,1.1c-0.7,0.4-1.5,0.7-2.2,1.2c-1.5,0.8-2.9,1.6-4.4,2.5l-4.2,2.7c-5.6,3.7-10.8,7.8-15.7,12.3
				l4.5,4.8c4.6-4.3,9.6-8.2,14.9-11.7L151.7,111.2z"/>
			<path class="st1" d="M191.3,96.7c0.4-0.1,0.8-0.2,1.2-0.2l1.2-0.2l2.3-0.3c1.6-0.2,3.1-0.3,4.7-0.5l-0.5-6.6
				c-1.7,0.1-3.3,0.2-5,0.5l-2.5,0.3l-1.2,0.2c-0.4,0.1-0.8,0.1-1.2,0.2c-1.6,0.3-3.3,0.6-4.9,0.9l-4.9,1.1l1.6,6.4l4.6-1.1
				C188.1,97.3,189.7,97,191.3,96.7z"/>
			<path class="st1" d="M223.4,96.2c1.6,0.1,3.1,0.5,4.7,0.7l1.1-6.5c-1.6-0.3-3.3-0.6-4.9-0.7l-2.5-0.3c-0.8-0.1-1.7-0.2-2.5-0.2
				l-0.6,6.6c0.8,0,1.6,0.2,2.4,0.2L223.4,96.2z"/>
		</g>
		<g>
			<path class="st1" d="M119.4,101.8l-4.2-4.9c7.8-6.6,16.2-12.3,25.2-17.2c9-4.8,18.5-8.7,28.2-11.6l1.8,6.2
				c6.8-2,13.7-3.4,20.6-4.4l-1.7-12.9c-18.2,2.4-35.9,8.2-52,16.9c-16.2,8.7-30.7,20.3-42.7,34.2l9.8,8.5c2.3-2.6,4.7-5.2,7.2-7.7
				C114.1,106.4,116.7,104.1,119.4,101.8z"/>
			<path class="st1" d="M70.4,208.1c-0.1-8.4,0.7-16.8,2.2-25c1.5-8.2,3.7-16.4,6.7-24.2c3-7.9,6.6-15.5,10.9-22.7L79,129.6
				c-4.7,7.9-8.7,16.2-11.9,24.8c-3.2,8.6-5.7,17.5-7.3,26.5c-1.6,9-2.4,18.2-2.4,27.4c0,9.2,0.9,18.3,2.6,27.3l12.8-2.4
				C71.3,224.9,70.4,216.5,70.4,208.1z M61.3,181.1c2.9-16.4,8.7-32.4,16.8-47l8.7,4.9l-0.7,1.3c-0.2,0.4-0.5,0.9-0.7,1.3l-1.4,2.6
				l-1.3,2.6c-0.4,0.9-0.8,1.8-1.2,2.7c-1.6,3.6-3.1,7.2-4.4,10.8c-1.3,3.7-2.5,7.4-3.5,11.2c-1,3.8-1.8,7.6-2.5,11.4
				c-2.8,15.3-2.9,31.1-0.5,46.5l-9.9,1.6C58.2,214.5,58.3,197.5,61.3,181.1z"/>
			<path class="st1" d="M131.2,337.9c2.3,1.4,4.7,2.7,7.1,4l6.1-11.5c-7.4-3.9-14.5-8.5-21.1-13.7c-6.6-5.2-12.7-11-18.2-17.3
				c-11.1-12.6-19.8-27.2-25.7-42.9l-12.2,4.6c1,2.6,2,5.2,3.1,7.7l-5.9,2.6c1.7,3.8,3.5,7.5,5.4,11.1c1.9,3.6,4,7.2,6.2,10.6
				l5.5-3.5c0.5,0.8,1,1.6,1.5,2.3l1.6,2.3c0.5,0.8,1.1,1.5,1.6,2.3c0.5,0.8,1.1,1.5,1.7,2.2l5.2-3.9c1.1,1.5,2.3,3,3.5,4.5l1.8,2.2
				c0.6,0.7,1.2,1.4,1.9,2.1c2.5,2.8,5.1,5.6,7.8,8.2l-4.5,4.7c2.7,2.6,5.6,5.2,8.5,7.6l-4.2,5c3.2,2.6,6.4,5.1,9.8,7.5
				c3.4,2.4,6.8,4.6,10.3,6.7L131.2,337.9z"/>
			<path class="st1" d="M299.2,330l1.9-1.4l-6.7-8.8c2.9-2.2,5.8-4.5,8.5-7c2.7-2.4,5.4-5,7.9-7.6l8,7.7c1.2-1.2,2.4-2.5,3.5-3.8
				c0.6-0.6,1.1-1.3,1.7-1.9l1.7-1.9l11.2,9.4c2.8-3.3,5.4-6.7,8-10.3c2.5-3.5,4.9-7.2,7.1-10.9l-12.6-7.6c0.9-1.5,1.7-2.9,2.5-4.4
				c0.4-0.7,0.8-1.5,1.2-2.2l1.2-2.3l-10.1-5.2c3.3-6.5,6.2-13.3,8.5-20.2l10.8,3.6c0.3-0.7,0.5-1.5,0.7-2.2l0.7-2.2l0.6-2.2
				c0.2-0.7,0.4-1.5,0.6-2.2l-12.6-3.3c-1.1,4-2.3,8.1-3.8,12c-1.4,3.9-3,7.8-4.8,11.6c-3.6,7.6-7.8,14.9-12.7,21.7
				c-9.7,13.6-22,25.5-35.9,34.8l7.2,10.8c1.3-0.9,2.6-1.7,3.8-2.6L299.2,330z"/>
			<path class="st1" d="M360.6,220.2l4.8,0.4c0.2-2.4,0.3-4.7,0.4-7.1l-4.8-0.2c0.2-6.2,0.1-12.5-0.5-18.7l12.4-1.1
				c-0.1-1.2-0.2-2.5-0.4-3.7c-0.1-1.2-0.3-2.5-0.4-3.7l-12.4,1.6c-0.2-1.6-0.4-3.2-0.7-4.7l-0.4-2.4l-0.5-2.3l-0.2-1.2l-0.3-1.2
				l-0.5-2.3l-0.6-2.3l-0.3-1.2l-0.3-1.2l4.7-1.2c-0.6-2.3-1.3-4.6-2-6.8l-4.6,1.4c-1.9-6-4.1-11.9-6.7-17.6l11.4-5.1
				c-1-2.3-2.1-4.5-3.2-6.7l-11.1,5.7c-2.9-5.6-6.1-11.1-9.6-16.3l4-2.7l-1-1.5c-0.3-0.5-0.7-1-1-1.4c-0.7-1-1.4-1.9-2.1-2.9
				l-3.9,2.9l-1.3,1l-9.1,6.8c10,13.4,17.6,28.7,22.2,44.8c4.6,16.1,6.3,33.1,4.9,49.8l11.3,0.9L360.6,220.2z"/>
			<path class="st1" d="M238.4,71.8c8.2,1.8,16.2,4.3,24,7.5c7.8,3.2,15.2,7.1,22.3,11.7c7.1,4.5,13.7,9.7,19.8,15.5l2.5-2.7
				c-6.8-6.4-14.2-12.1-22.2-17.1l3-4.8c8.3,5.1,16,11.1,23.1,17.7l2.5-2.7c-6.7-6.3-13.9-12-21.6-16.9c-7.7-5-15.9-9.2-24.3-12.7
				l-3.9-1.5c-1.3-0.5-2.6-1-3.9-1.4l2.4-6.9l-3.4-1.2l-3.4-1.1l-2.1,7c-1.4-0.4-2.9-0.8-4.3-1.2l-2.2-0.6c-0.7-0.2-1.4-0.4-2.2-0.5
				l1.7-7.2c-1.2-0.3-2.3-0.6-3.5-0.8l-3.5-0.7l-1.4,7.2c-1.4-0.2-2.8-0.5-4.2-0.7c-1.4-0.2-2.8-0.5-4.3-0.6l1-7.3
				c-2.4-0.3-4.8-0.6-7.2-0.8l-0.6,7.3l-2.1-0.2l-1.1-0.1l-1.1-0.1l-2.1-0.1c-0.7,0-1.4,0-2.1-0.1l-0.4,13
				C221.8,69.1,230.2,70.1,238.4,71.8z"/>
			<path class="st1" d="M216.3,346.3c-8.4,0.4-16.8,0.1-25.1-1c-8.3-1.1-16.5-2.9-24.5-5.5l-4,12.4c1.5,0.5,3.1,1,4.6,1.4l2.3,0.7
				l2.3,0.6l-1.4,5.7l1.2,0.3l1.2,0.3l1.4-5.7c1.4,0.3,2.8,0.7,4.2,0.9l2.1,0.4l2.1,0.4l-0.6,3.4c0.8,0.1,1.6,0.3,2.4,0.4l0.6-3.4
				c1.4,0.2,2.9,0.5,4.3,0.6l2.1,0.3c0.7,0.1,1.4,0.2,2.2,0.2l-0.6,5.8c0.8,0.1,1.6,0.2,2.5,0.2l0.5-5.8l2.2,0.2l1.1,0.1l1.1,0.1
				l2.2,0.1c0.7,0,1.4,0,2.2,0.1l-0.1,3.5c0.8,0,1.6,0.1,2.4,0.1l0-3.5c2.9,0,5.8,0,8.7-0.1l0.3,5.8c0.8,0,1.6-0.1,2.5-0.1l-0.3-5.8
				c2.9-0.2,5.8-0.4,8.6-0.8l0.4,3.5c0.8-0.1,1.6-0.2,2.4-0.3l-0.5-3.4c2.9-0.4,5.7-0.8,8.6-1.4l1.1,5.7c0.8-0.2,1.6-0.3,2.4-0.5
				l-1.2-5.7l2.1-0.5l1.1-0.2l1.1-0.3l2.1-0.5c0.7-0.2,1.4-0.4,2.1-0.6l0.9,3.4c0.8-0.2,1.6-0.4,2.3-0.6l-1-3.3
				c1.4-0.4,2.8-0.8,4.2-1.3l2.1-0.7c0.7-0.2,1.4-0.5,2.1-0.7l1.9,5.5c0.8-0.3,1.6-0.5,2.3-0.8l-2-5.5c1.5-0.6,3-1.1,4.5-1.7
				c1.5-0.6,3-1.2,4.4-1.9l-5.2-11.9C249.7,341.5,233.1,345.4,216.3,346.3z M172.4,353.4l-2.5-0.7l-2.5-0.7l2.8-9.6l2.3,0.7l2.3,0.6
				l-1,4.1l-1.5-0.4l-0.4,1.5l1.5,0.4L172.4,353.4z M183.1,355.7l-2.1-0.4l-2.1-0.4c-1.4-0.3-2.8-0.6-4.2-0.9l1-4.1l1.5,0.4l0.3-1.5
				l-1.5-0.4l1-4.1c1.3,0.3,2.6,0.6,3.9,0.9l2,0.4l2,0.4l-0.7,4.2l-1.5-0.3l-0.3,1.5l1.6,0.3L183.1,355.7z M193.9,357.2
				c-0.7-0.1-1.4-0.1-2.1-0.2l-2.1-0.3c-1.4-0.2-2.8-0.4-4.2-0.6l0.7-4.2l1.6,0.2l0.2-1.5l-1.5-0.2l0.7-4.2c1.3,0.2,2.6,0.4,4,0.6
				l2,0.3c0.7,0.1,1.3,0.1,2,0.2l-0.4,4.2l-1.6-0.2l-0.2,1.5l1.6,0.2L193.9,357.2z M202.7,357.8l-2.1-0.1l-1.1-0.1l-1.1-0.1
				l-2.1-0.2l0.4-4.2l1.6,0.1l0.1-1.5l-1.6-0.1l0.4-4.2l2,0.2l1,0.1l1,0.1l2,0.1c0.7,0,1.3,0,2,0.1l-0.1,4.2l-1.6,0l-0.1,1.5l1.6,0
				l-0.1,4.2C204.1,357.9,203.4,357.9,202.7,357.8z M207.2,358l0.1-4.2l1.6,0l0-1.5l-1.6,0l0.1-4.2c2.7,0,5.3,0,8-0.1l0.2,4.2
				l-1.6,0.1l0,1.5l1.6-0.1l0.2,4.2C212.9,358,210,358,207.2,358z M218.1,357.7l-0.3-4.2l1.6-0.1l-0.1-1.5l-1.6,0.1l-0.3-4.2
				c2.7-0.2,5.3-0.4,8-0.7l0.5,4.2l-1.5,0.2l0.2,1.5l1.6-0.2l0.5,4.2C223.8,357.3,220.9,357.5,218.1,357.7z M237.4,355.3
				c-2.8,0.6-5.6,1-8.5,1.4l-0.6-4.2l1.6-0.2l-0.2-1.5l-1.6,0.2l-0.6-4.2c2.6-0.4,5.3-0.8,7.9-1.3l0.8,4.2l-1.5,0.3l0.3,1.5l1.5-0.3
				L237.4,355.3z M248.1,352.9c-0.7,0.2-1.4,0.4-2.1,0.5l-2.1,0.5l-1,0.3l-1,0.2l-2.1,0.5l-0.9-4.1l1.5-0.3l-0.3-1.5l-1.5,0.3
				l-0.9-4.1l2-0.4l1-0.2l1-0.2l1.9-0.5c0.6-0.2,1.3-0.3,1.9-0.5l1.1,4.1l-1.5,0.4l0.4,1.5l1.5-0.4L248.1,352.9z M258.6,349.6
				c-0.7,0.2-1.4,0.5-2,0.7l-2,0.7c-1.4,0.5-2.7,0.8-4.1,1.2l-1.2-4.1l1.5-0.4l-0.4-1.4l-1.5,0.4l-1.2-4.1c1.3-0.4,2.6-0.7,3.8-1.2
				l1.9-0.6c0.6-0.2,1.3-0.4,1.9-0.7l1.4,4l-1.5,0.5l0.5,1.4l1.5-0.5L258.6,349.6z M265.6,347c-0.8,0.3-1.6,0.7-2.4,1l-2.4,0.9
				l-1.5-4l1.5-0.6l-0.5-1.4l-1.5,0.5l-1.5-4l2.3-0.8c0.8-0.3,1.5-0.6,2.3-0.9L265.6,347z"/>
		</g>
		<g>
			<path class="st1" d="M214.5,387.7c12-0.3,23.9-1.9,35.6-4.6l-0.7-2.9c-11.5,2.7-23.2,4.2-35,4.6L214.5,387.7z M232,383.5
				c4.7-0.6,9.3-1.4,14-2.4l0.5,2.4c-4.7,1-9.4,1.8-14.1,2.4c-4.7,0.6-9.5,1-14.3,1.3l-0.1-2.4C222.6,384.6,227.3,384.1,232,383.5z"
				/>
			<path class="st1" d="M154.3,379.1c11.4,3.7,23.2,6.2,35.1,7.5l0.3-3c-11.7-1.3-23.3-3.8-34.5-7.4L154.3,379.1z"/>
			<path class="st1" d="M132.2,367c-10.6-5.1-20.7-11.3-30.1-18.4l-1.8,2.4c9.5,7.2,19.8,13.5,30.6,18.7L132.2,367z M112.2,359l-3-2
				l-0.7-0.5l-0.7-0.5l-1.5-1l-1.5-1l-1.4-1.1l1.4-2l1.4,1l1.5,1l1.5,1l0.7,0.5l0.7,0.5l3,1.9l3,1.9c4,2.5,8.2,4.8,12.4,6.9
				l-1.1,2.2c-4.3-2.2-8.4-4.5-12.5-7L112.2,359z"/>
			<path class="st1" d="M61.3,304.9l-2.5,1.7c6.6,10,14.1,19.4,22.6,27.9l2.1-2.1C75.2,324,67.8,314.8,61.3,304.9z"/>
			<path class="st1" d="M389.4,209.2c0-1.5,0-2.9,0-4.4l-3,0c0,1.4,0,2.9,0,4.3c0,1.4-0.1,2.9-0.1,4.3l3,0.1
				C389.3,212.1,389.4,210.6,389.4,209.2z"/>
			<path class="st1" d="M385.4,188.8c0.1,0.7,0.1,1.4,0.2,2.2l0.2,2.2c0.1,0.7,0.1,1.4,0.2,2.2l3-0.2c-0.1-0.7-0.1-1.5-0.2-2.2
				l-0.2-2.2c-0.1-0.7-0.1-1.5-0.2-2.2l-0.3-2.2l-3,0.4L385.4,188.8z"/>
			<path class="st1" d="M382.9,172.9c0.3,1.4,0.6,2.8,0.8,4.3l3-0.5c-0.2-1.5-0.5-2.9-0.8-4.3c-0.3-1.4-0.6-2.9-0.9-4.3l-2.9,0.7
				C382.3,170,382.6,171.4,382.9,172.9z"/>
			<path class="st1" d="M381.3,154.3c-0.5-1.4-0.9-2.8-1.4-4.2l-2.9,1c0.5,1.4,0.9,2.8,1.3,4.1c0.4,1.4,0.8,2.8,1.2,4.2l2.9-0.8
				C382.1,157.1,381.7,155.7,381.3,154.3z M377.8,152.7l2.6-0.8c0.5,1.7,1.1,3.3,1.6,5l-2.6,0.8C378.8,156,378.3,154.3,377.8,152.7z
				"/>
			<path class="st1" d="M375.7,138.9c-0.3-0.7-0.6-1.4-0.9-2l-0.9-2l-0.9-2l-2.8,1.3l0.9,2l0.9,2c0.3,0.7,0.6,1.3,0.9,2l0.8,2
				l2.8-1.1L375.7,138.9z"/>
			<path class="st1" d="M366.1,125.5l2.7-1.4c-1.4-2.6-2.8-5.2-4.3-7.7l-2.6,1.5C363.4,120.4,364.8,122.9,366.1,125.5z"/>
			<polygon class="st1" points="356.9,109.8 359.4,108.1 356.9,104.4 354.3,100.8 351.9,102.6 354.4,106.2 			"/>
			<path class="st1" d="M118.9,51.9c-10.4,6-20.1,13-29.1,21l2,2.3c8.8-7.8,18.4-14.7,28.6-20.6L118.9,51.9z"/>
			<path class="st1" d="M175.9,30.7c-11.8,2.2-23.3,5.6-34.4,10.2l1.1,2.8c10.9-4.4,22.3-7.8,33.8-10L175.9,30.7z"/>
			<path class="st1" d="M236.7,29.6c-11.8-1.8-23.9-2.5-35.8-1.9l0.1,3c11.8-0.6,23.6,0.1,35.2,1.9L236.7,29.6z"/>
			<path class="st1" d="M294.4,48.9c-5.3-2.8-10.7-5.4-16.2-7.7c-5.5-2.3-11.2-4.3-16.9-6l-0.9,2.9c5.6,1.7,11.2,3.7,16.6,5.9
				c5.4,2.3,10.8,4.8,16,7.6L294.4,48.9z"/>
		</g>
		<g>
			<path class="st1" d="M394.1,283.9c-0.2,0.5-0.4,1-0.7,1.5l-1.3,3.1c-0.5,1-0.9,2-1.4,3.1c-3.7,8.1-8.1,16-12.8,23.6
				c-2.4,3.8-4.9,7.5-7.6,11.1c-1.3,1.8-2.7,3.6-4.1,5.3l-2.1,2.6l-1.1,1.3l-1.1,1.3c-11.5,13.7-25,25.8-39.8,35.9l5.6,8.2
				c15.5-10.6,29.6-23.3,41.8-37.7l1.1-1.3l1.1-1.4c0.7-0.9,1.5-1.8,2.2-2.7c1.4-1.9,2.9-3.7,4.3-5.6c2.8-3.8,5.4-7.7,8-11.6
				c5-7.9,9.6-16.2,13.5-24.7c0.5-1.1,1-2.1,1.5-3.2l1.4-3.2c0.2-0.5,0.5-1.1,0.7-1.6l0.7-1.6l1.3-3.3l1.2-3.3l0.6-1.7l0.6-1.7
				l1.1-3.3l1.1-3.4l0.5-1.7l0.5-1.7l1-3.4l0.9-3.4l0.4-1.7l0.4-1.7l0.8-3.4l0.7-3.5l0.4-1.7l0.3-1.7l0.6-3.5
				c3.1-18.6,3.7-37.5,1.7-56.2c-2-18.7-6.5-37.1-13.3-54.6c-6.8-17.5-16.1-34.1-27.3-49.2c-11.2-15.1-24.5-28.6-39.4-40.2
				c-14.8-11.6-31.3-21-48.6-28.2l-3.4-1.3l-1.7-0.7l-1.7-0.6l-3.4-1.3l-3.4-1.2c-0.6-0.2-1.1-0.4-1.7-0.6l-1.7-0.5
				c-1.2-0.4-2.3-0.7-3.5-1.1c-2.3-0.7-4.7-1.4-7-1.9l-2.5,9.7c2.2,0.6,4.5,1.2,6.7,1.9c1.1,0.3,2.2,0.7,3.3,1l1.7,0.5
				c0.6,0.2,1.1,0.4,1.6,0.6l3.3,1.1l3.3,1.2l1.6,0.6l1.6,0.6l3.2,1.3c16.5,6.9,32.2,15.9,46.3,26.9c14.1,11,26.8,23.9,37.5,38.3
				c10.7,14.4,19.5,30.2,26,46.8c6.5,16.7,10.8,34.2,12.7,52c1.9,17.8,1.3,35.9-1.6,53.5l-0.6,3.3l-0.3,1.7l-0.3,1.6l-0.7,3.3
				l-0.8,3.3l-0.4,1.6l-0.4,1.6l-0.8,3.2l-0.9,3.2l-0.5,1.6l-0.5,1.6l-1,3.2l-1.1,3.2l-0.5,1.6l-0.6,1.6l-1.2,3.2l-1.2,3.1
				L394.1,283.9z"/>
			<path class="st1" d="M134.1,403.7l3.3,1.2l1.7,0.6l1.7,0.6l3.3,1.1l3.4,1.1l1.7,0.5l1.7,0.5l3.4,1l3.4,0.9l1.7,0.4l1.7,0.4
				l3.4,0.8l3.5,0.7l1.7,0.4l1.7,0.3l3.5,0.6l3.5,0.5l1.7,0.3l1.7,0.2l3.5,0.4l3.5,0.4c18.7,1.8,37.7,1.2,56.2-2.1l-1.7-9.8
				c-17.6,3.1-35.7,3.7-53.5,2l-3.3-0.3l-3.3-0.4l-1.7-0.2l-1.7-0.3l-3.3-0.5l-3.3-0.6l-1.7-0.3l-1.6-0.3l-3.3-0.7l-3.3-0.8
				l-1.6-0.4l-1.6-0.4l-3.2-0.8l-3.2-0.9l-1.6-0.5l-1.6-0.5l-3.2-1l-3.2-1.1l-1.6-0.5l-1.6-0.6l-3.2-1.2c-16.7-6.5-32.6-15-47-25.7
				c-1.8-1.3-3.6-2.7-5.3-4.1c-0.9-0.7-1.7-1.4-2.6-2.1l-1.3-1.1l-1.3-1.1l-2.6-2.2l-2.5-2.2l-1.2-1.1l-1.2-1.2
				c-0.8-0.8-1.6-1.5-2.4-2.3c-1.6-1.6-3.2-3.1-4.7-4.8c-0.8-0.8-1.6-1.6-2.3-2.4l-2.3-2.5c-3-3.3-5.9-6.7-8.6-10.3
				c-11.1-14.1-20.3-29.6-27.2-46.2c-6.9-16.5-11.7-33.9-14-51.7c-2.3-17.8-2.3-35.8,0.2-53.6c0.2-1.1,0.3-2.2,0.5-3.3l0.3-1.7
				c0.1-0.6,0.2-1.1,0.3-1.7l0.6-3.3l0.7-3.3l0.3-1.6l0.4-1.6l0.8-3.3l0.8-3.3l0.4-1.6l0.5-1.6l0.9-3.2l1-3.2l0.5-1.6l0.5-1.6
				l1.1-3.2c1.5-4.2,3.1-8.4,4.9-12.5l-9.2-3.9c-1.9,4.3-3.6,8.7-5.2,13.1l-1.1,3.3l-0.6,1.7l-0.5,1.7L8,147.7l-1,3.4l-0.5,1.7
				l-0.4,1.7l-0.9,3.4l-0.8,3.4L4.1,163l-0.4,1.7L3,168.2l-0.6,3.5c-0.1,0.6-0.2,1.2-0.3,1.7l-0.3,1.7c-0.2,1.2-0.4,2.3-0.5,3.5
				c-2.6,18.6-2.7,37.6-0.2,56.2c2.5,18.6,7.5,36.9,14.7,54.3c7.3,17.3,16.9,33.7,28.6,48.4c2.9,3.7,5.9,7.3,9.1,10.8l2.4,2.6
				c0.8,0.9,1.6,1.7,2.4,2.6c1.6,1.7,3.3,3.3,5,5c0.8,0.8,1.7,1.6,2.6,2.4l1.3,1.2l1.3,1.2l2.6,2.4l2.7,2.3l1.3,1.1l1.4,1.1
				c0.9,0.7,1.8,1.5,2.7,2.2c1.9,1.4,3.7,2.9,5.6,4.3C99.9,387.9,116.6,396.9,134.1,403.7z"/>
			<path class="st1" d="M103,38.2l1.2-0.7l2.5-1.5c0.8-0.5,1.7-1,2.5-1.4l-2.1-3.6c4.5-2.6,9-5,13.7-7.2l1.8,3.7
				c0.5-0.3,1-0.5,1.6-0.8l1.6-0.7c1.1-0.5,2.1-1,3.2-1.4l3.2-1.4c1.1-0.5,2.1-0.9,3.2-1.3c1.1-0.4,2.1-0.9,3.2-1.3l3.3-1.2
				c2.2-0.7,4.4-1.5,6.6-2.2l-1.3-3.9c5.3-1.7,10.6-3.2,16-4.4l0.9,4c0.9-0.2,1.9-0.4,2.8-0.6l2.8-0.6l2.8-0.5
				c0.9-0.2,1.9-0.4,2.8-0.5l-1.7-9.8c-1,0.2-2,0.4-3,0.5l-3,0.6l-2.9,0.6c-1,0.2-2,0.4-2.9,0.7l0.9,4c-5.4,1.2-10.8,2.8-16.1,4.5
				l-1.3-3.9c-2.3,0.7-4.6,1.5-6.9,2.3l-3.4,1.3c-1.1,0.4-2.3,0.9-3.4,1.3c-1.1,0.5-2.3,0.9-3.4,1.4l-3.3,1.4
				c-1.1,0.5-2.2,1-3.3,1.5l-1.7,0.8c-0.5,0.3-1.1,0.5-1.6,0.8l1.8,3.7c-4.7,2.2-9.3,4.7-13.8,7.3l-2.1-3.6c-0.9,0.5-1.7,1-2.6,1.5
				L99,29l-1.3,0.8l-1.3,0.8l-2.5,1.6l5.5,8.3l2.4-1.6L103,38.2z"/>
		</g>
	</g>
	<g>
		<g>
			<path class="st2" d="M222.1,177.2l2.1-5.1c-4.7-2-9.7-3-14.8-3c-5.1,0-10.1,1-14.8,2.9c-4.7,1.9-9,4.8-12.6,8.4
				c-3.6,3.6-6.5,7.9-8.4,12.6l-0.4,1.1c-0.1,0.4-0.3,0.7-0.4,1.1l5.2,1.8c0.1-0.3,0.2-0.6,0.4-1l0.4-1c1.7-4,4.1-7.7,7.2-10.8
				c3.1-3.1,6.8-5.5,10.8-7.2c4-1.7,8.4-2.5,12.7-2.5C213.8,174.6,218.1,175.5,222.1,177.2z"/>
			<path class="st2" d="M237.2,181c-1.9-2-4-3.8-6.2-5.3l-3.1,4.6c1.9,1.3,3.7,2.8,5.3,4.5L237.2,181z"/>
			<path class="st2" d="M247.7,210.3c0.3-4.8-0.2-9.7-1.7-14.3l-5.3,1.7c1.2,4,1.7,8.1,1.5,12.3c-0.3,4.1-1.4,8.2-3.2,11.9l5,2.4
				C246.1,219.9,247.4,215.2,247.7,210.3z"/>
			<path class="st2" d="M228.7,234.3c-3.3,2.4-7.2,4.2-11.2,5.3l1.4,5.4c4.7-1.2,9.1-3.3,13-6.1c3.9-2.8,7.3-6.4,9.9-10.5l-4.7-3
				C234.9,228.8,232.1,231.9,228.7,234.3z"/>
			<path class="st2" d="M213.3,240.4l-0.6,0.1l-0.6,0c-0.4,0-0.8,0.1-1.2,0.1l-1.2,0l-0.3,0l-0.3,0l-0.6,0c-0.4,0-0.8,0-1.2,0
				l-1.2-0.1l-1.2-0.1c-1.6-0.2-3.1-0.5-4.6-0.9l-0.6-0.2c-0.2-0.1-0.4-0.1-0.6-0.2l-1.1-0.4l-1.1-0.4c-0.2-0.1-0.4-0.1-0.5-0.2
				l-0.5-0.2c-1.5-0.6-2.8-1.4-4.2-2.2l-1-0.6c-0.3-0.2-0.6-0.5-1-0.7l-0.5-0.3c-0.2-0.1-0.3-0.2-0.5-0.4c-0.3-0.2-0.6-0.5-0.9-0.7
				c-1.2-1-2.3-2.1-3.4-3.3c-1-1.2-2-2.4-2.9-3.7l-4.6,3.1c1,1.5,2.2,3,3.4,4.3c1.2,1.4,2.6,2.6,4,3.8c0.4,0.3,0.7,0.6,1.1,0.9
				c0.2,0.1,0.4,0.3,0.5,0.4l0.6,0.4c0.4,0.3,0.7,0.5,1.1,0.8l1.2,0.7c1.6,0.9,3.2,1.8,4.9,2.5l0.6,0.3c0.2,0.1,0.4,0.2,0.6,0.3
				l1.3,0.5l1.3,0.4c0.2,0.1,0.4,0.1,0.7,0.2l0.7,0.2c1.8,0.5,3.6,0.8,5.4,1.1l1.4,0.2l1.4,0.1c0.5,0,0.9,0,1.4,0l0.7,0l0.3,0l0.3,0
				l1.4,0c0.5,0,0.9-0.1,1.4-0.1l0.7-0.1l0.7-0.1c0.5-0.1,0.9-0.1,1.4-0.2l-0.9-5.5C214.1,240.3,213.7,240.3,213.3,240.4z"/>
			<path class="st2" d="M176.7,202.2c0.1-0.3,0.1-0.7,0.2-1l-5.4-1.1c-0.1,0.4-0.1,0.8-0.2,1.2l-0.1,0.6c0,0.2-0.1,0.4-0.1,0.6
				l5.5,0.7c0-0.2,0-0.3,0.1-0.5L176.7,202.2z"/>
		</g>
		<g>
			<path class="st3" d="M251.4,204l0.1,1.1c0,0.2,0,0.4,0,0.5l0,0.5l2.9-0.1c0,0.5,0,0.9,0,1.4l0,1.4c0,0.2,0,0.5,0,0.7l0,0.7
				l-0.1,1.4l-2.9-0.3l-0.3,2.2l9.2,1.3c0.1-0.9,0.2-1.8,0.3-2.7l-2.9-0.3l0.1-1.5l0.1-0.8c0-0.3,0-0.5,0-0.8l0-1.5c0-0.5,0-1,0-1.5
				l2.9-0.1l0-0.7c0-0.2,0-0.4,0-0.7l-0.1-1.3L251.4,204z"/>
			<path class="st3" d="M260.2,199l-0.2-1.3l-9.1,1.8l0.2,1.1l0.1,0.5c0,0.2,0,0.4,0.1,0.5l9.2-1.3c0-0.2-0.1-0.4-0.1-0.7L260.2,199
				z"/>
			<path class="st3" d="M159.1,195.6l9,2.2c0.2-0.7,0.4-1.4,0.6-2.1l-8.9-2.6C159.6,193.9,159.3,194.7,159.1,195.6z"/>
			<path class="st3" d="M169.4,193.5l0.8-2.1l0,0l0.9-2l-2.6-1.3c0.8-1.7,1.7-3.3,2.7-4.9l2.5,1.6l0.6-0.9l0.6-0.9l-7.6-5.4
				l-0.8,1.1l-0.7,1.1l2.5,1.6c-1.1,1.7-2,3.5-2.9,5.3l-2.6-1.3l-1.1,2.5l0,0l-1,2.5L169.4,193.5z"/>
			<path class="st3" d="M260,217.3l-9.1-1.8c-0.6,3.2-1.6,6.3-2.9,9.2l8.5,3.8C258,225,259.2,221.2,260,217.3z"/>
			<path class="st3" d="M241.2,235.4l7,6.1c2.6-3,4.8-6.2,6.7-9.7l-8.2-4.3C245.2,230.3,243.3,233,241.2,235.4z"/>
			<path class="st3" d="M182.3,240.2c-0.2-0.1-0.3-0.3-0.5-0.4l-0.9-0.8c-0.3-0.3-0.6-0.6-0.9-0.8l-0.9-0.8l-0.8-0.9
				c-0.3-0.3-0.6-0.6-0.8-0.9l-0.8-0.9c-0.1-0.2-0.3-0.3-0.4-0.5l-0.4-0.5l-7.3,5.7l0.5,0.6c0.1,0.2,0.3,0.4,0.5,0.6l1,1.1
				c0.3,0.4,0.7,0.7,1,1.1l1,1.1l1.1,1c0.4,0.3,0.7,0.7,1.1,1l1.1,1c0.2,0.2,0.4,0.3,0.6,0.5l0.6,0.5l5.8-7.2L182.3,240.2z"/>
			<path class="st3" d="M174,230.9l-0.6-1l-0.3-0.5c-0.1-0.2-0.2-0.4-0.3-0.5l-0.6-1.1l-0.1-0.3c0-0.1-0.1-0.2-0.1-0.3l-0.3-0.5
				l-0.5-1.1l-0.5-1.1c-0.2-0.4-0.3-0.7-0.5-1.1l-14,5.6c0.2,0.5,0.4,1,0.6,1.5l0.7,1.5c0.2,0.5,0.5,1,0.7,1.5l0.4,0.7
				c0.1,0.1,0.1,0.2,0.2,0.4l0.2,0.4l0.8,1.4c0.1,0.2,0.3,0.5,0.4,0.7l0.4,0.7l0.9,1.4c0.3,0.5,0.6,0.9,0.9,1.4l12.4-8.7
				C174.4,231.6,174.2,231.3,174,230.9z"/>
			<path class="st3" d="M169.3,221.3c-1-3.1-1.8-6.2-2.1-9.4l-9.2,0.9c0.4,3.9,1.3,7.8,2.5,11.5L169.3,221.3z"/>
			<path class="st3" d="M167.7,200l-14.9-2.7c-0.8,4.3-1.1,8.7-0.9,13.1l15.1-0.7C166.9,206.4,167.1,203.2,167.7,200z"/>
			<path class="st3" d="M233.8,242.1c-1.9,1.4-4,2.6-6.1,3.6c-2.1,1-4.4,1.9-6.7,2.5c-2.3,0.7-4.6,1.1-7,1.4l1.1,9.2
				c2.9-0.3,5.7-0.9,8.5-1.7c2.8-0.8,5.5-1.8,8.1-3.1c2.6-1.2,5.1-2.7,7.5-4.4c2.4-1.7,4.6-3.6,6.6-5.6l-6.6-6.6
				C237.6,239.2,235.7,240.7,233.8,242.1z"/>
			<path class="st3" d="M228.1,159.6l-1-0.4c-0.3-0.1-0.6-0.2-1-0.3l-1.9-0.6c-0.7-0.2-1.3-0.4-2-0.5c-0.7-0.2-1.3-0.3-2-0.5l-1-0.2
				l-0.2-0.1l-0.3,0l-0.5-0.1l-1-0.2l-0.5-0.1c-0.2,0-0.3-0.1-0.5-0.1l-2-0.2l-0.3,0l-0.3,0l-0.5,0l-1-0.1c-2.7-0.1-5.5-0.1-8.2,0.2
				c-2.7,0.3-5.4,0.8-8,1.5c-2.6,0.7-5.2,1.6-7.7,2.7l-0.9,0.4c-0.3,0.1-0.6,0.3-0.9,0.5l-0.9,0.5l-0.5,0.2l-0.4,0.3
				c-0.6,0.3-1.2,0.7-1.8,1l-1.7,1.1c-2.3,1.5-4.4,3.2-6.5,5l-1.5,1.4c-0.5,0.5-1,1-1.4,1.5l-0.4,0.4c-0.1,0.1-0.2,0.3-0.3,0.4
				l-0.7,0.8l-0.7,0.8l-0.6,0.8l7.3,5.8l0.5-0.7l0.6-0.6l0.6-0.6c0.1-0.1,0.2-0.2,0.3-0.3l0.3-0.3c0.4-0.4,0.8-0.8,1.2-1.2l1.2-1.1
				c1.7-1.5,3.4-2.9,5.3-4.1l1.4-0.9l1.5-0.8l0.4-0.2l0.4-0.2l0.8-0.4c0.3-0.1,0.5-0.3,0.8-0.4l0.8-0.3c2-0.9,4.2-1.7,6.3-2.2
				c2.2-0.6,4.4-1,6.6-1.2c2.2-0.2,4.5-0.3,6.7-0.2l0.8,0.1l0.4,0l0.2,0l0.2,0l1.7,0.2c0.1,0,0.3,0,0.4,0.1l0.4,0.1l0.8,0.1l0.4,0.1
				l0.2,0l0.2,0l0.8,0.2c0.5,0.1,1.1,0.2,1.6,0.4c0.5,0.2,1.1,0.3,1.6,0.4l1.6,0.5c0.3,0.1,0.5,0.2,0.8,0.3l0.8,0.3L228.1,159.6z"/>
			<path class="st3" d="M250.3,197.3l14.7-3.7c-0.3-1-0.5-1.9-0.8-2.9l-14.4,4.5C249.9,195.8,250.1,196.6,250.3,197.3z"/>
			<path class="st3" d="M257,187.9c-0.1-0.2-0.2-0.4-0.3-0.6l-8.5,3.7c0.1,0.2,0.2,0.3,0.2,0.5l0.2,0.5l0.4,1l8.7-3.2l-0.5-1.3
				L257,187.9z"/>
			<path class="st3" d="M246.5,187.4c0.1,0.2,0.2,0.3,0.3,0.5l0.5,1l13.6-6.7l-0.7-1.3c-0.1-0.2-0.2-0.4-0.4-0.7l-0.4-0.7l-13.2,7.4
				L246.5,187.4z"/>
			<path class="st3" d="M243.8,183.2l0.6,0.9c0.2,0.3,0.4,0.6,0.6,0.9l7.9-5c-0.2-0.4-0.5-0.8-0.7-1.1l-0.8-1.1L243.8,183.2z"/>
			<polygon class="st3" points="241.8,180.5 242.1,180.9 242.5,181.4 254.4,172 253.9,171.4 253.4,170.9 252.4,169.7 241.1,179.7 
							"/>
			<path class="st3" d="M238.8,177.3l0.4,0.4c0.1,0.1,0.3,0.3,0.4,0.4l6.6-6.5c-0.1-0.2-0.3-0.3-0.5-0.5l-0.5-0.5l-1-0.9l-6.3,6.8
				L238.8,177.3z"/>
			<path class="st3" d="M235.4,174.3l0.9,0.7l9.6-11.7l-1.2-0.9l-0.6-0.5c-0.2-0.2-0.4-0.3-0.6-0.5l-9,12.1c0.2,0.1,0.3,0.2,0.4,0.3
				L235.4,174.3z"/>
			<path class="st3" d="M237.8,164.6l-1.1-0.7l-0.6-0.4c-0.2-0.1-0.4-0.2-0.6-0.3l-4.7,8c0.2,0.1,0.3,0.2,0.5,0.3l0.5,0.3l0.9,0.6
				L237.8,164.6z"/>
			<path class="st3" d="M235.8,156.7l-1.3-0.7c-0.2-0.1-0.4-0.2-0.7-0.3l-0.7-0.3l-6.3,13.8l0.5,0.2c0.2,0.1,0.3,0.2,0.5,0.2l1,0.5
				L235.8,156.7z"/>
			<path class="st3" d="M184.6,242l-8.8,12.3l1.2,0.9c0.4,0.3,0.8,0.5,1.3,0.8l8.2-12.7c-0.3-0.2-0.6-0.4-0.9-0.6L184.6,242z"/>
			<path class="st3" d="M188.3,244.4l-4.6,8.1c0.4,0.2,0.8,0.4,1.2,0.7l1.2,0.6l4.2-8.3l-1-0.5C188.9,244.7,188.6,244.5,188.3,244.4
				z"/>
			<path class="st3" d="M193.3,246.8c-0.2-0.1-0.3-0.1-0.5-0.2l-0.5-0.2l-6.1,13.9l0.7,0.3c0.2,0.1,0.5,0.2,0.7,0.3l1.4,0.5
				l5.4-14.1L193.3,246.8z"/>
			<path class="st3" d="M196.5,247.9l-2.8,8.8c0.8,0.3,1.7,0.5,2.6,0.8l2.4-9C197.9,248.4,197.2,248.2,196.5,247.9z"/>
			<polygon class="st3" points="201.8,249.3 201.3,249.2 200.8,249.1 197.7,263.9 198.4,264 199.2,264.2 200.6,264.4 202.9,249.5 
							"/>
			<path class="st3" d="M206.3,249.8l-0.5,0c-0.1,0-0.2,0-0.3,0l-0.3,0l-0.9,9.2l0.3,0c0.1,0,0.2,0,0.3,0l0.7,0l1.3,0.1l0.4-9.3
				L206.3,249.8z"/>
			<path class="st3" d="M209.6,250l0.1,15.1c1,0,2-0.1,3-0.1l-0.9-15.1C211.1,249.9,210.3,249.9,209.6,250z"/>
		</g>
		<g>
			<path class="st4" d="M184.2,195.6l0.2-0.4l-1.6-0.8l-0.2,0.5c-0.1,0.2-0.1,0.3-0.2,0.5l-0.4,1l-0.4,1c-0.1,0.2-0.1,0.3-0.2,0.5
				l-0.2,0.5l1.7,0.6l0.2-0.5c0.1-0.2,0.1-0.3,0.2-0.5l0.4-0.9l0.4-0.9C184.1,195.9,184.1,195.8,184.2,195.6z"/>
			<path class="st4" d="M185.9,192.5l0.3-0.4c0.1-0.1,0.2-0.3,0.3-0.4c0.2-0.3,0.4-0.5,0.6-0.8l0.6-0.8l-1.4-1.1l-0.7,0.8
				c-0.2,0.3-0.4,0.6-0.6,0.9c-0.1,0.1-0.2,0.3-0.3,0.4l-0.3,0.4c-0.2,0.3-0.4,0.6-0.6,0.9l1.5,0.9
				C185.6,193.1,185.8,192.8,185.9,192.5z"/>
			<path class="st4" d="M189.8,187.8l0.7-0.7c0.2-0.2,0.5-0.4,0.8-0.7c0.3-0.2,0.5-0.4,0.8-0.6l-1.1-1.4c-0.3,0.2-0.6,0.4-0.8,0.7
				c-0.3,0.2-0.5,0.5-0.8,0.7l-0.8,0.7l-0.7,0.8l1.3,1.2L189.8,187.8z"/>
			<path class="st4" d="M194.5,184.1c0.3-0.2,0.6-0.4,0.9-0.5c0.3-0.2,0.6-0.3,0.9-0.5l0.9-0.4l-0.8-1.6l-1,0.5
				c-0.3,0.2-0.6,0.3-0.9,0.5c-0.3,0.2-0.6,0.4-0.9,0.5c-0.3,0.2-0.6,0.4-0.9,0.6l1,1.5C194,184.4,194.3,184.2,194.5,184.1z"/>
			<path class="st4" d="M202.9,180.6l-0.4-1.7c-1.4,0.3-2.7,0.7-4.1,1.3l0.6,1.6C200.3,181.3,201.6,180.9,202.9,180.6z"/>
			<path class="st4" d="M232.2,223.4l-0.3,0.4c-0.2,0.3-0.4,0.5-0.6,0.8l-0.6,0.8l-0.7,0.8l1.3,1.2l0.7-0.8l0.7-0.8
				c0.2-0.3,0.4-0.6,0.6-0.9l0.3-0.4c0.1-0.1,0.2-0.3,0.3-0.4l-1.5-1C232.4,223.2,232.3,223.3,232.2,223.4z"/>
			<path class="st4" d="M217.3,179.2c-4.1-1.1-8.4-1.4-12.6-0.7l0.3,1.7c3.9-0.6,8-0.4,11.9,0.7c3.8,1.1,7.5,3,10.5,5.6l1.1-1.3
				C225.2,182.3,221.3,180.3,217.3,179.2z"/>
			<path class="st4" d="M181.5,207.1l-1.8,0c-0.2,8.5,3.5,17,9.9,22.6l1.2-1.3C184.8,223.1,181.3,215.1,181.5,207.1z"/>
			<path class="st4" d="M235.6,216.6l1.7,0.6c0.5-1.5,0.9-3.1,1.2-4.7c0.3-1.6,0.4-3.2,0.4-4.8c0-1.6-0.1-3.2-0.4-4.8
				c-0.2-1.6-0.6-3.1-1.1-4.7l-1.7,0.6c0.5,1.4,0.8,2.9,1.1,4.4c0.2,1.5,0.4,3,0.3,4.5c0,1.5-0.1,3-0.4,4.5
				C236.5,213.7,236.1,215.2,235.6,216.6z"/>
			<path class="st4" d="M207.6,235.4l-0.1,1.8c6.4,0.4,12.9-1.4,18.2-4.9l-1-1.5C219.7,234.1,213.6,235.8,207.6,235.4z"/>
		</g>
		<g>
			<polygon class="st2" points="160.8,187.6 160.4,188.5 179.8,196.1 180,195.5 180.3,194.9 161.2,186.6 			"/>
			<path class="st2" d="M181.2,192.9l-12.2-6.3l-0.8,1.6l12.4,5.9C180.9,193.7,181.1,193.3,181.2,192.9z"/>
			<path class="st2" d="M182,191.5c0.1-0.2,0.2-0.4,0.3-0.5l-37.6-23.1c-0.3,0.4-0.5,0.9-0.8,1.3l-0.7,1.3l38.5,21.6L182,191.5z"/>
			<path class="st2" d="M159.6,174.9l23.3,15.3c0.2-0.4,0.5-0.7,0.7-1L160.9,173C160.4,173.6,160,174.2,159.6,174.9z"/>
			<path class="st2" d="M184.9,187.4l-24.1-19.9l-1.5,1.9l24.8,18.9C184.4,188.1,184.6,187.7,184.9,187.4z"/>
			<path class="st2" d="M186.3,185.8l-12.8-12.2c-0.2,0.2-0.5,0.5-0.7,0.7l-0.6,0.7l13.2,11.6l0.4-0.5
				C186.1,186.1,186.2,185.9,186.3,185.8z"/>
			<path class="st2" d="M187.9,184.2l-6.4-7l-1.2,1.1l6.7,6.8C187.3,184.8,187.6,184.5,187.9,184.2z"/>
			<path class="st2" d="M189.1,183.2c0.1-0.1,0.2-0.1,0.2-0.2l0.2-0.2l-3.3-4.1l-0.3,0.2c-0.1,0.1-0.2,0.2-0.3,0.2l-0.6,0.5l3.4,4
				L189.1,183.2z"/>
			<path class="st2" d="M190.9,181.9l0.5-0.4L180.1,165l-0.8,0.6c-0.3,0.2-0.6,0.4-0.8,0.6l11.9,16.1
				C190.5,182.1,190.7,182,190.9,181.9z"/>
			<path class="st2" d="M192.7,180.6c0.2-0.1,0.3-0.2,0.5-0.3l-19.4-33.1c-0.4,0.2-0.8,0.5-1.2,0.7l-1.2,0.7l20.7,32.3L192.7,180.6z
				"/>
			<path class="st2" d="M194.4,179.7c0.1-0.1,0.2-0.1,0.3-0.1l0.6-0.3l-12.4-25l-1,0.5c-0.2,0.1-0.4,0.2-0.5,0.3l-0.5,0.3l13.3,24.5
				L194.4,179.7z"/>
			<path class="st2" d="M192.6,167.1c-0.5,0.2-1.1,0.5-1.6,0.7l5.1,11.1l1.1-0.5L192.6,167.1z"/>
			<path class="st2" d="M198.7,177.8l0.6-0.2l-5.6-16.7l-0.9,0.3c-0.3,0.1-0.6,0.2-0.9,0.3l6.2,16.5
				C198.3,177.9,198.5,177.8,198.7,177.8z"/>
			<path class="st2" d="M201.4,176.9l-8-30.9l-2.4,0.7l9.2,30.5C200.6,177.2,201,177.1,201.4,176.9z"/>
			<polygon class="st2" points="199.7,164.8 202.4,176.7 203,176.6 203.6,176.5 201.4,164.5 200.5,164.6 			"/>
			<path class="st2" d="M205.8,176.1l-2.3-19.9l-2,0.3l3,19.8C204.9,176.3,205.4,176.2,205.8,176.1z"/>
			<path class="st2" d="M207.7,170.7c-0.5,0-1,0.1-1.4,0.1l0.4,5.3c0.4,0,0.8-0.1,1.2-0.1L207.7,170.7z"/>
			<path class="st2" d="M210.2,175.9c0.2-9.3,0.4-18.6,0.6-27.8l-1.2,0c-0.4,0-0.8,0-1.2,0c0.2,9.3,0.4,18.6,0.5,27.8L210.2,175.9z"
				/>
			<path class="st2" d="M212.4,176.1l1.3-13.6c-0.3,0-0.6-0.1-0.9-0.1l-0.9-0.1l-0.8,13.7l0.6,0C212,176.1,212.2,176.1,212.4,176.1z
				"/>
			<path class="st2" d="M214.5,176.4l6.2-36.7c-0.9-0.1-1.8-0.3-2.7-0.4l-4.8,36.9C213.7,176.2,214.1,176.3,214.5,176.4z"/>
			<path class="st2" d="M216.7,176.8l7.5-31l-2.4-0.5l-6.3,31.2C215.9,176.7,216.3,176.7,216.7,176.8z"/>
			<path class="st2" d="M218.2,177.2c0.2,0.1,0.4,0.1,0.6,0.2l5.3-16.8c-0.3-0.1-0.6-0.2-0.9-0.3l-0.9-0.3l-4.7,17L218.2,177.2z"/>
			<path class="st2" d="M220.9,178.2l4.5-11.3c-0.5-0.2-1.1-0.4-1.6-0.6l-4,11.5C220.1,177.9,220.5,178,220.9,178.2z"/>
			<path class="st2" d="M225.3,174.3c-0.4-0.2-0.9-0.4-1.3-0.6l-2.1,4.8c0.4,0.2,0.8,0.3,1.2,0.5L225.3,174.3z"/>
			<path class="st2" d="M224.9,180.1l15.5-27.4l-1.1-0.6c-0.4-0.2-0.7-0.4-1.1-0.6l-14.4,28c0.2,0.1,0.4,0.2,0.6,0.3L224.9,180.1z"
				/>
			<path class="st2" d="M226.8,181.2l11.1-16.7l-1.7-1.1l-10.4,17.1C226.1,180.8,226.5,181,226.8,181.2z"/>
			<path class="st2" d="M228.1,182.2c0.1,0.1,0.2,0.1,0.3,0.2l0.2,0.2l22.7-29.5l-0.5-0.4c-0.2-0.1-0.4-0.3-0.5-0.4l-1.1-0.8
				l-21.5,30.4L228.1,182.2z"/>
			<path class="st2" d="M245.3,163.7l-15.9,19.5c0.2,0.1,0.3,0.3,0.5,0.4l0.5,0.4l16.7-18.8l-0.8-0.7
				C245.9,164.1,245.6,163.9,245.3,163.7z"/>
			<path class="st2" d="M231,184.6c0.3,0.3,0.6,0.6,0.9,0.9l11.5-11.3c-0.4-0.4-0.9-0.9-1.3-1.3L231,184.6z"/>
			<polygon class="st2" points="232.8,186.4 232.9,186.5 233,186.6 233.4,187.1 257.7,166.4 256.9,165.5 256.7,165.2 256.4,165 
				256,164.5 232.6,186.1 			"/>
			<path class="st2" d="M246.6,177.7L234,187.8c0.2,0.3,0.5,0.7,0.8,1l13-9.6L246.6,177.7z"/>
			<polygon class="st2" points="236,190.6 242.2,186.7 241.8,186 241.4,185.4 235.3,189.6 235.7,190.1 			"/>
			<path class="st2" d="M237.1,192.5l25.6-13.8l-1.2-2.1l-25,14.8C236.7,191.8,236.9,192.2,237.1,192.5z"/>
			<polygon class="st2" points="242.7,191.8 242.6,191.7 242.3,191 237.6,193.4 237.9,194 237.9,194.1 238,194.2 238.1,194.5 
				242.9,192.3 242.8,192 			"/>
			<path class="st2" d="M239,196.6l29.9-11.2c-0.3-0.8-0.6-1.6-0.9-2.3l-29.5,12.3C238.7,195.8,238.8,196.2,239,196.6z"/>
			<polygon class="st2" points="263.6,191 263.5,190.5 263.1,189.4 239.3,197.5 239.5,198.1 239.6,198.4 239.7,198.7 263.8,191.5 
							"/>
			<path class="st2" d="M240.2,200.8l13.4-3l-0.2-0.9c-0.1-0.3-0.1-0.6-0.2-0.9l-13.3,3.5c0.1,0.2,0.1,0.4,0.1,0.6L240.2,200.8z"/>
			<path class="st2" d="M245.6,200.8l-5.2,1l0.1,0.6c0,0.2,0.1,0.4,0.1,0.6l5.2-0.8c0-0.2-0.1-0.5-0.1-0.7L245.6,200.8z"/>
			<path class="st2" d="M256.9,203.9c-0.1-0.6-0.1-1.3-0.2-1.9l-16,1.9c0.1,0.4,0.1,0.8,0.1,1.2L256.9,203.9z"/>
			<path class="st2" d="M241,207.4l31.9-0.3l-0.1-2.5l-31.8,1.5C240.9,206.6,241,207,241,207.4z"/>
			<polygon class="st2" points="248.3,208.5 241,208.3 240.9,209 240.9,209.6 248.3,210 248.3,209.3 			"/>
			<path class="st2" d="M255.5,213.7l0.2-1.8l-14.8-1.4c-0.1,0.4-0.1,0.8-0.1,1.2L255.5,213.7z"/>
			<path class="st2" d="M240.3,213.9l30.8,6.3c0.2-0.8,0.3-1.6,0.4-2.4l-31.1-5.1C240.5,213.1,240.4,213.5,240.3,213.9z"/>
			<path class="st2" d="M239.8,216.1l9.7,2.7l0.2-0.8c0.1-0.3,0.2-0.5,0.2-0.8l-9.8-2.3c0,0.2-0.1,0.4-0.2,0.6L239.8,216.1z"/>
			<path class="st2" d="M239.1,218.2l35,12.5c0.3-0.9,0.6-1.7,0.8-2.6L239.5,217C239.4,217.4,239.3,217.8,239.1,218.2z"/>
			<polygon class="st2" points="262.7,230.9 263.2,229.9 263.6,228.8 238.8,219.1 238.6,219.7 238.3,220.3 			"/>
			<path class="st2" d="M237.3,222.3l27.9,14.5c0.4-0.7,0.8-1.5,1.1-2.2l-28.5-13.4L237.3,222.3z"/>
			<path class="st2" d="M251.8,232.6l0.5-0.8l-15.4-8.6l-0.3,0.5c-0.1,0.2-0.2,0.4-0.3,0.5l15,9.2
				C251.5,233.2,251.6,232.9,251.8,232.6z"/>
			<path class="st2" d="M244.2,230.6l-8.4-5.5c-0.2,0.4-0.5,0.7-0.7,1l8.2,5.9C243.6,231.5,243.9,231,244.2,230.6z"/>
			<path class="st2" d="M238.7,230l-4.2-3.2c-0.3,0.3-0.5,0.6-0.8,1l4.1,3.4C238.1,230.8,238.4,230.4,238.7,230z"/>
			<path class="st2" d="M232.7,229c-0.1,0.2-0.3,0.3-0.4,0.4l21.1,20c0.3-0.3,0.6-0.6,0.8-0.9l0.8-0.9l-21.8-19.2L232.7,229z"/>
			<path class="st2" d="M230.7,231l11.9,13l1.4-1.3l-12.4-12.5C231.3,230.4,231,230.7,230.7,231z"/>
			<path class="st2" d="M236.7,241.5c0.1-0.1,0.2-0.2,0.3-0.3l0.7-0.6l-7.8-9l-0.5,0.4c-0.1,0.1-0.2,0.1-0.2,0.2l-0.2,0.2l7.4,9.3
				L236.7,241.5z"/>
			<path class="st2" d="M232,239.4c0.2-0.1,0.4-0.3,0.6-0.4l-4.4-5.9c-0.2,0.1-0.3,0.2-0.5,0.4l-0.5,0.4l4.2,6.1L232,239.4z"/>
			<path class="st2" d="M228.6,239.1l0.6-0.4l-2.8-4.4l-0.5,0.3c-0.2,0.1-0.3,0.2-0.5,0.3l2.7,4.5
				C228.2,239.4,228.4,239.2,228.6,239.1z"/>
			<path class="st2" d="M223.4,236l11.9,23.9c0.7-0.3,1.4-0.7,2-1.1l-12.8-23.4C224.2,235.6,223.8,235.8,223.4,236z"/>
			<path class="st2" d="M225.2,246.2l1.5-0.7l-4.2-9.2c-0.4,0.2-0.8,0.3-1.1,0.5L225.2,246.2z"/>
			<path class="st2" d="M219.9,237.5l-0.6,0.2l10.1,30.2l1.2-0.4c0.4-0.1,0.8-0.3,1.2-0.4l-11.3-29.8
				C220.3,237.3,220.1,237.4,219.9,237.5z"/>
			<path class="st2" d="M217.2,238.3l4.9,18.8l1.9-0.5l-5.6-18.6C218,238.1,217.6,238.2,217.2,238.3z"/>
			<path class="st2" d="M217.7,248.5l0.8-0.2l-2.2-9.8l-0.6,0.1c-0.2,0-0.4,0.1-0.6,0.1l1.8,9.9
				C217.1,248.6,217.4,248.6,217.7,248.5z"/>
			<path class="st2" d="M212.8,239.1l2.9,25l2.2-0.3l-3.8-24.9C213.7,239,213.2,239,212.8,239.1z"/>
			<path class="st2" d="M211.5,258.7c0.7,0,1.3-0.1,2-0.1l-1.6-19.4c-0.4,0-0.8,0.1-1.2,0.1L211.5,258.7z"/>
			<path class="st2" d="M209.1,239.3l-0.6,0l-1,38.6l1.4,0c0.5,0,0.9,0,1.4,0l-0.5-38.6C209.5,239.3,209.3,239.3,209.1,239.3z"/>
			<path class="st2" d="M206.9,239.2c-0.2,0-0.4,0-0.6,0l-3,31.3c0.4,0.1,0.8,0.1,1.2,0.1l1.2,0.1l1.8-31.4L206.9,239.2z"/>
			<path class="st2" d="M204.1,238.9l-5.6,33.4c0.9,0.1,1.7,0.3,2.6,0.4l4.3-33.6C204.9,239,204.5,238.9,204.1,238.9z"/>
			<path class="st2" d="M201.9,238.4l-4.1,17.1l1.9,0.4l3.5-17.3C202.7,238.6,202.3,238.5,201.9,238.4z"/>
			<path class="st2" d="M200.4,238c-0.2-0.1-0.4-0.1-0.6-0.2l-8.1,25.4c0.4,0.1,0.7,0.2,1.1,0.3l1.1,0.3l7.1-25.7L200.4,238z"/>
			<path class="st2" d="M198.6,237.4l-0.3-0.1l-0.6-0.2l-1.9,4.9l0.7,0.3l0.3,0.1c0.1,0,0.2,0.1,0.3,0.1l1.7-5
				C198.7,237.5,198.7,237.5,198.6,237.4z"/>
			<polygon class="st2" points="190.5,246.9 192.1,247.6 196.8,236.7 195.6,236.2 			"/>
			<path class="st2" d="M193.7,235.2l-15.5,27.4l1.1,0.6c0.4,0.2,0.7,0.4,1.1,0.6l14.4-28l-0.6-0.3L193.7,235.2z"/>
			<path class="st2" d="M192.8,234.7c-0.3-0.2-0.7-0.5-1-0.7l-8.8,13.4l1.6,1L192.8,234.7z"/>
			<polygon class="st2" points="190.5,233.1 190.2,232.9 190,232.7 173.8,253.9 174.2,254.2 174.7,254.6 175.6,255.2 191,233.5 			
				"/>
			<path class="st2" d="M181,240.8l0.3,0.3c0.1,0.1,0.2,0.2,0.3,0.3l7.5-9.2c-0.1-0.1-0.2-0.1-0.2-0.2l-0.2-0.2l-0.5-0.4l-7.9,8.9
				L181,240.8z"/>
			<path class="st2" d="M186.7,229.8l-23.2,22.7c0.6,0.6,1.2,1.2,1.8,1.8l22.3-23.6L186.7,229.8z"/>
			<path class="st2" d="M172.4,240.4c0.2,0.2,0.4,0.5,0.7,0.7l12.9-11.9c-0.1-0.2-0.3-0.3-0.4-0.5l-0.4-0.5l-13.4,11.4L172.4,240.4z
				"/>
			<path class="st2" d="M183.8,226.5l-4.2,3.1c0.3,0.4,0.6,0.8,0.9,1.2l4.1-3.3C184.3,227.1,184.1,226.8,183.8,226.5z"/>
			<path class="st2" d="M182.9,225.2c-0.1-0.2-0.2-0.4-0.3-0.5l-21.2,13.5c0.2,0.3,0.4,0.6,0.6,0.9l0.6,0.9l20.7-14.3L182.9,225.2z"
				/>
			<path class="st2" d="M171,228.4l0.8,1.5l10.2-6.1c-0.2-0.4-0.4-0.7-0.6-1.1L171,228.4z"/>
			<path class="st2" d="M180.5,220.7l-21,9.5c0.3,0.7,0.6,1.3,0.9,1.9l20.6-10.4C180.8,221.5,180.6,221.1,180.5,220.7z"/>
			<path class="st2" d="M170.8,223.8l9.3-3.9c-0.2-0.4-0.3-0.8-0.5-1.2l-9.5,3.5C170.4,222.7,170.6,223.3,170.8,223.8z"/>
			<polygon class="st2" points="179.1,217.2 179,216.9 178.9,216.6 148.1,225.7 148.3,226.3 148.5,226.9 148.9,228.1 179.3,217.8 
							"/>
			<path class="st2" d="M160.6,219.9c0,0.2,0.1,0.3,0.1,0.5l17.9-4.7c0-0.1-0.1-0.2-0.1-0.3l-0.1-0.3l-0.1-0.6l-18.1,4l0.2,1
				L160.6,219.9z"/>
			<path class="st2" d="M153.2,216.6l0.1,0.6l0.2,1.1l24.7-4.7l-0.1-0.6l-0.1-0.3c0-0.1,0-0.2,0-0.3l-24.9,3.7
				C153.1,216.2,153.1,216.4,153.2,216.6z"/>
			<path class="st2" d="M163.9,213l13.9-1.7c-0.1-0.4-0.1-0.8-0.1-1.2l-14,1.1C163.8,211.8,163.8,212.4,163.9,213z"/>
			<path class="st2" d="M177.6,207.9l-33,0.3l0.1,2.5l33-1.6C177.6,208.7,177.6,208.3,177.6,207.9z"/>
			<polygon class="st2" points="154.6,206.4 177.6,206.9 177.6,206.3 177.7,205.7 154.7,204.3 154.6,205.3 			"/>
			<path class="st2" d="M167.7,203.8l10,0.9c0.1-0.4,0.1-0.8,0.1-1.2l-10-1.3L167.7,203.8z"/>
			<path class="st2" d="M178.2,201.6l0.1-0.3l-5.2-1.1l-0.1,0.4c0,0.1,0,0.2-0.1,0.4l-0.1,0.7l5.2,0.9l0.1-0.6
				C178.1,201.8,178.2,201.7,178.2,201.6z"/>
			<path class="st2" d="M178.6,199.8l0.2-0.6l-13.5-3.8l-0.2,0.9l-0.1,0.4c0,0.1-0.1,0.3-0.1,0.4l13.6,3.2c0-0.1,0-0.2,0.1-0.3
				L178.6,199.8z"/>
			<path class="st2" d="M152.5,190l26.5,8.3c0.1-0.4,0.3-0.8,0.4-1.2l-26.2-9.3L152.5,190z"/>
		</g>
		<g>
			<path class="st2" d="M168.3,243l-11.1,9.5c3.2,3.7,6.8,7.1,10.8,10.1l8.7-11.7C173.7,248.7,170.8,246,168.3,243z"/>
			<path class="st2" d="M155.3,212.2l-29.2,2.5c0.8,9.5,3.3,18.9,7.3,27.6l26.6-12.2C157.4,224.5,155.8,218.4,155.3,212.2z"/>
			<path class="st2" d="M189.8,258.1l-5.3,13.6c4.6,1.8,9.4,3.1,14.3,3.8l2.2-14.4C197.2,260.6,193.4,259.6,189.8,258.1z"/>
			<path class="st2" d="M263.3,211.3l14.6,1c0.3-4.9,0.1-9.9-0.6-14.8l-14.4,2.2C263.4,203.5,263.6,207.4,263.3,211.3z"/>
			<path class="st2" d="M256.3,138.6c-5-3.4-10.3-6.2-15.8-8.4l-11,27.2c3.6,1.5,7.1,3.3,10.3,5.5L256.3,138.6z"/>
			<path class="st2" d="M223.2,155.3l3.8-14.1c-4.8-1.3-9.7-2-14.6-2.3l-0.6,14.6C215.6,153.7,219.4,154.3,223.2,155.3z"/>
			<path class="st2" d="M152.8,168.3c-2.8,4.1-5.2,8.4-7.1,13c-0.4,1.2-0.9,2.3-1.3,3.5l13.8,4.9l1-2.7c1.5-3.6,3.4-7,5.6-10.2
				L152.8,168.3z"/>
			<path class="st2" d="M209.7,261.8l-1.5,0l-0.7,0c-0.2,0-0.5,0-0.7,0l-1.5-0.1l-2.2,29.2l2.2,0.1c0.4,0,0.7,0,1.1,0l1.1,0l2.3,0
				l2.2-0.1l-1-29.3L209.7,261.8z"/>
			<path class="st2" d="M243.5,249.6l-1.6,1.2c-0.5,0.4-1.1,0.8-1.7,1.2l-0.8,0.6c-0.1,0.1-0.3,0.2-0.4,0.3l-0.4,0.3l-0.9,0.5
				l-0.4,0.3l-0.2,0.1l-0.2,0.1l-1.8,1c-0.3,0.2-0.6,0.3-0.9,0.5l-0.9,0.5c-0.3,0.1-0.6,0.3-0.9,0.5l-0.9,0.4
				c-1.2,0.6-2.5,1-3.8,1.5l-1.9,0.6l-0.5,0.2l-0.5,0.1l-1,0.3c-2.6,0.7-5.3,1.3-8,1.6l1.7,14.5c3.4-0.4,6.8-1.1,10.2-2l1.2-0.4
				l0.6-0.2l0.6-0.2l2.5-0.8c1.6-0.6,3.2-1.2,4.8-1.9l1.2-0.5c0.4-0.2,0.8-0.4,1.2-0.6l1.2-0.6c0.4-0.2,0.8-0.4,1.2-0.6l2.3-1.3
				l0.3-0.2l0.3-0.2l0.5-0.3l1.1-0.7l0.5-0.3c0.2-0.1,0.4-0.2,0.5-0.4l1.1-0.7c0.7-0.5,1.4-1,2.1-1.5c0.7-0.5,1.4-1.1,2.1-1.6l2-1.7
				l-9.6-11L243.5,249.6z"/>
			<path class="st2" d="M245.9,167.7c0.1,0.1,0.2,0.2,0.4,0.4l1.5,1.4c0.5,0.5,0.9,1,1.4,1.5c0.5,0.5,0.9,1,1.3,1.5
				c0.4,0.5,0.9,1,1.3,1.6c0.4,0.5,0.8,1.1,1.2,1.6l1.2,1.7c0.1,0.1,0.2,0.3,0.3,0.4l0.3,0.4l0.5,0.9l0.5,0.9l0.5,0.9l0.5,0.9
				l0.3,0.4l0.2,0.5l0.9,1.8l0.8,1.9l0.2,0.5c0.1,0.2,0.1,0.3,0.2,0.5l0.4,1l0.4,1c0.1,0.3,0.2,0.6,0.3,1l0.3,1
				c0.1,0.3,0.2,0.6,0.3,1l0.6,2l14.1-3.7l-0.7-2.5c-0.1-0.4-0.3-0.8-0.4-1.2l-0.4-1.2c-0.1-0.4-0.3-0.8-0.4-1.2l-0.5-1.2l-0.5-1.2
				c-0.1-0.2-0.2-0.4-0.2-0.6l-0.3-0.6l-1.1-2.4l-1.2-2.3l-0.3-0.6l-0.3-0.6l-0.6-1.1l-0.6-1.1l-0.7-1.1l-0.7-1.1l-0.3-0.5
				c-0.1-0.2-0.2-0.4-0.4-0.5l-1.5-2.1c-0.5-0.7-1.1-1.4-1.6-2.1c-0.5-0.7-1.1-1.3-1.6-2c-0.6-0.7-1.1-1.3-1.7-1.9
				c-0.6-0.6-1.2-1.3-1.8-1.9l-1.9-1.8c-0.2-0.1-0.3-0.3-0.5-0.4l-0.5-0.4l-1-0.9l-9.6,11l0.8,0.7L245.9,167.7z"/>
			<path class="st2" d="M286.6,239l1.1-2.9c0.2-0.5,0.4-1,0.5-1.5l0.5-1.5l0.5-1.5c0.1-0.5,0.3-1,0.4-1.5l0.4-1.5
				c0.1-0.5,0.3-1,0.4-1.5l0.7-3.1c0.1-0.5,0.2-1,0.3-1.5l0.3-1.6l-28.9-4.7l-0.2,1c-0.1,0.3-0.1,0.7-0.2,1l-0.4,2
				c-0.1,0.3-0.2,0.7-0.3,1l-0.3,1l-0.3,1l-0.3,1l-0.3,1c-0.1,0.3-0.2,0.7-0.3,1l-0.7,1.9c-0.1,0.3-0.3,0.6-0.4,0.9l-0.4,0.9
				l-0.4,0.9c-0.1,0.3-0.3,0.6-0.5,0.9c-1.2,2.5-2.6,4.8-4.2,7c-1.5,2.2-3.3,4.3-5.2,6.3l21.2,20.2c2.9-3,5.6-6.3,8-9.7
				c2.4-3.5,4.6-7,6.4-10.8c0.2-0.5,0.5-0.9,0.7-1.4l0.6-1.4l0.6-1.4C286.2,239.9,286.5,239.5,286.6,239z"/>
			<path class="st2" d="M169.3,171c0.1-0.1,0.2-0.2,0.4-0.4l0.7-0.7l0.7-0.7c0.2-0.2,0.5-0.5,0.7-0.7l0.7-0.7
				c0.3-0.2,0.5-0.5,0.8-0.7l1.6-1.3c2.1-1.7,4.4-3.3,6.7-4.7c2.4-1.4,4.8-2.6,7.3-3.6l1.9-0.7c0.6-0.2,1.3-0.4,1.9-0.7
				c0.6-0.2,1.3-0.4,2-0.6l1-0.3l0.2-0.1l0.2-0.1l0.5-0.1l-6.8-28.5l-0.8,0.2l-0.4,0.1l-0.4,0.1l-1.5,0.4c-1,0.3-2,0.6-3,0.9
				c-1,0.3-2,0.7-3,1l-2.9,1.1c-3.9,1.6-7.6,3.5-11.3,5.6c-3.6,2.2-7,4.6-10.3,7.2l-2.4,2c-0.4,0.3-0.8,0.7-1.2,1.1l-1.1,1.1
				c-0.4,0.4-0.8,0.7-1.1,1.1l-1.1,1.1l-1.1,1.1c-0.2,0.2-0.4,0.4-0.5,0.6l-0.5,0.6l21.8,19.6L169.3,171z"/>
			<path class="st2" d="M164.5,238.2l-0.4-0.6l-0.4-0.6l-0.8-1.2l-0.2-0.3c-0.1-0.1-0.1-0.2-0.2-0.3l-0.4-0.6l-12.7,7.2l0.5,0.8
				c0.1,0.1,0.1,0.3,0.2,0.4l0.2,0.4l1,1.6l0.5,0.8l0.5,0.8l1.1,1.5l11.8-8.5L164.5,238.2z"/>
			<polygon class="st2" points="140.5,205.7 140.5,207.5 155.1,207.5 155.1,206.1 155.1,205.3 155.2,204.6 140.6,203.8 140.5,204.7 
							"/>
			<polygon class="st2" points="140.9,199.8 155.5,201.5 155.6,200 155.9,198.6 141.5,196.1 141.2,198 			"/>
			<polygon class="st2" points="142.5,191.3 142.3,192.2 156.5,195.5 156.6,194.8 156.8,194.1 157.2,192.7 143.2,188.6 142.7,190.4 
							"/>
			<polygon class="st2" points="203.3,153.8 203.7,153.7 204,153.7 205.5,153.6 204.4,139 202.6,139.2 202.1,139.2 201.7,139.3 
				200.8,139.4 202.6,153.9 			"/>
			<path class="st2" d="M183.5,255.2l-0.6-0.4c-0.8-0.5-1.7-0.9-2.5-1.5l-15.7,24.9c1.2,0.8,2.5,1.5,3.8,2.3l1,0.5
				c0.3,0.2,0.7,0.3,1,0.5l2,1l13-26.4l-1.3-0.6C183.9,255.4,183.7,255.3,183.5,255.2z"/>
		</g>
		<g>
			<path class="st4" d="M202.6,277.3l-2.9-0.3l-2.9-0.5c-3.9-0.7-7.7-1.8-11.3-3.1l-2.7-1.1c-0.9-0.4-1.8-0.8-2.7-1.2l-0.7-0.3
				l-0.7-0.3l-1.3-0.7c-0.4-0.2-0.9-0.4-1.3-0.7l-1.3-0.7c-3.4-1.9-6.7-4.1-9.7-6.6l-2.6,3.2c3.2,2.7,6.7,5,10.3,7l1.4,0.8
				c0.5,0.2,0.9,0.5,1.4,0.7l1.4,0.7l0.7,0.4l0.7,0.3c0.9,0.4,1.9,0.8,2.8,1.3l2.9,1.1c3.9,1.4,7.9,2.5,12,3.3c1,0.2,2,0.3,3.1,0.5
				l3.1,0.4c2.1,0.2,4.1,0.3,6.2,0.3l0-4.1C206.5,277.6,204.5,277.4,202.6,277.3z"/>
			<path class="st4" d="M278,235.3l1.1-2.9l1-3c0.1-0.2,0.2-0.5,0.2-0.7l0.2-0.7l0.4-1.5c1.1-4,1.8-8.1,2.2-12.2l-4.1-0.4
				c-0.4,3.9-1.1,7.8-2,11.6l-0.4,1.4l-0.2,0.7c-0.1,0.2-0.1,0.5-0.2,0.7l-0.9,2.8l-1.1,2.7c-0.1,0.2-0.2,0.5-0.3,0.7l-0.3,0.7
				l-0.6,1.3c-1.6,3.6-3.5,7-5.7,10.3c-2.2,3.2-4.7,6.3-7.4,9.1c-10.8,11.4-25.5,18.9-41,21.1l0.6,4.1c16.4-2.3,32-10.2,43.4-22.3
				c2.9-3,5.5-6.2,7.8-9.7c2.3-3.4,4.3-7.1,6-10.9l0.6-1.4l0.3-0.7C277.8,235.8,277.9,235.5,278,235.3z"/>
			<path class="st4" d="M269.9,172.6l0.7,1.3c0.2,0.4,0.5,0.8,0.7,1.3l1.3,2.6l1.2,2.7c1.5,3.6,2.7,7.4,3.6,11.2
				c0.2,1,0.5,1.9,0.6,2.9l0.3,1.4c0.1,0.5,0.2,1,0.2,1.4l0.4,2.9l0.2,2.9l4.1-0.3l-0.3-3.1l-0.4-3.1c-0.1-0.5-0.2-1-0.3-1.5
				l-0.3-1.5c-0.2-1-0.4-2-0.7-3c-1-4-2.2-8-3.8-11.8l-1.3-2.8c-0.5-0.9-0.9-1.9-1.4-2.8c-0.2-0.5-0.5-0.9-0.7-1.4l-0.8-1.4
				c-0.5-0.9-1.1-1.8-1.6-2.7c-2.2-3.5-4.7-6.8-7.5-9.9l-2.1-2.3c-0.7-0.7-1.5-1.4-2.2-2.2c-0.2-0.2-0.4-0.4-0.6-0.5l-0.6-0.5
				l-1.2-1L257,151c-0.2-0.2-0.4-0.3-0.6-0.5l-1.2-1l-1.2-1c-0.2-0.2-0.4-0.3-0.6-0.5l-0.6-0.5l-1.3-0.9l-0.6-0.5l-0.7-0.4
				c-0.9-0.6-1.7-1.1-2.6-1.7l-2.7-1.5c-3.6-2-7.4-3.7-11.4-5l-3-1c-1-0.3-2-0.5-3-0.8c-0.3-0.1-0.5-0.1-0.8-0.2l-0.8-0.2l-1.5-0.3
				l-0.8-0.2c-0.3-0.1-0.5-0.1-0.8-0.2l-1.5-0.3l-1.5-0.3c-0.3,0-0.5-0.1-0.8-0.1l-0.8-0.1l-1.5-0.2l-0.8-0.1c-0.3,0-0.5,0-0.8-0.1
				c-1-0.1-2.1-0.1-3.1-0.2l-3.1-0.1c-4.1,0-8.3,0.4-12.4,1.1c-2,0.3-4.1,0.8-6.1,1.3l-3,0.8l-3,1c-3.9,1.4-7.7,3.1-11.3,5.1
				c-1.8,1-3.6,2.1-5.3,3.2l-2.6,1.8l-2.5,1.9c-3.2,2.6-6.3,5.5-9,8.5l-1,1.2c-0.3,0.4-0.7,0.8-1,1.2l-1.9,2.4l-1.8,2.5
				c-0.3,0.4-0.6,0.9-0.9,1.3l-0.8,1.3c-2.2,3.5-4.1,7.2-5.7,11l-1.1,2.9c-0.1,0.2-0.2,0.5-0.3,0.7l-0.2,0.7l-0.5,1.5l3.9,1.2
				l0.5-1.4l0.2-0.7c0.1-0.2,0.2-0.5,0.3-0.7l1.1-2.7c1.5-3.6,3.3-7.1,5.4-10.4l0.8-1.2c0.3-0.4,0.5-0.8,0.8-1.2l1.7-2.4l1.8-2.3
				c0.3-0.4,0.6-0.8,0.9-1.1l1-1.1c2.6-2.9,5.5-5.6,8.5-8.1l2.3-1.8l2.4-1.7c1.6-1.1,3.3-2.1,5-3c3.4-1.9,7-3.5,10.7-4.8l2.8-0.9
				l2.8-0.8c1.9-0.5,3.8-0.9,5.7-1.2c3.9-0.7,7.8-1,11.7-1l2.9,0c1,0.1,2,0.1,2.9,0.2c0.2,0,0.5,0,0.7,0.1l0.7,0.1l1.5,0.2l0.7,0.1
				c0.2,0,0.5,0.1,0.7,0.1l1.4,0.2l1.4,0.2c0.2,0,0.5,0.1,0.7,0.1l0.7,0.2l1.4,0.3l0.7,0.2c0.2,0.1,0.5,0.1,0.7,0.2l2.8,0.8l2.8,0.9
				c3.7,1.3,7.3,2.9,10.7,4.8l2.6,1.5c0.8,0.5,1.7,1.1,2.5,1.6l0.6,0.4l0.6,0.4l1.2,0.9l0.6,0.4c0.2,0.1,0.4,0.3,0.6,0.4l1.2,0.9
				l1.2,0.9c0.2,0.1,0.4,0.3,0.6,0.5l0.6,0.5l1.1,1l0.6,0.5c0.2,0.2,0.4,0.3,0.5,0.5c0.7,0.7,1.4,1.4,2.1,2l2,2.1
				c2.6,2.9,5,6.1,7.1,9.4C268.8,171,269.4,171.8,269.9,172.6z"/>
			<path class="st4" d="M149.2,243.5l-1.4-2.6c-0.3-0.4-0.5-0.9-0.7-1.3l-0.7-1.3c-0.5-0.9-0.8-1.8-1.2-2.7l-3.8,1.6
				c0.4,0.9,0.8,1.9,1.3,2.8l0.7,1.4c0.2,0.5,0.5,0.9,0.7,1.4c0.5,0.9,1,1.8,1.5,2.7l1.7,2.6c2.3,3.5,4.9,6.8,7.7,9.8l3-2.8
				c-2.7-2.9-5.1-6-7.3-9.3L149.2,243.5z"/>
			<path class="st4" d="M140.2,218.9c0-0.2-0.1-0.5-0.1-0.7l-0.1-0.7l-0.2-1.5c-0.1-1-0.2-2-0.3-2.9l-4.1,0.3c0.1,1,0.1,2.1,0.3,3.1
				l0.2,1.5l0.1,0.8c0,0.3,0.1,0.5,0.1,0.8c0.2,1,0.4,2,0.6,3.1l0.7,3l4-1l-0.7-2.9C140.6,220.8,140.4,219.8,140.2,218.9z"/>
			<path class="st4" d="M139.9,198.8c0.1-1,0.3-1.9,0.4-2.9l-4-0.7c-0.2,1-0.4,2-0.5,3.1l-0.2,1.5c-0.1,0.5-0.1,1-0.2,1.6l4.1,0.3
				c0-0.5,0.1-1,0.1-1.5L139.9,198.8z"/>
		</g>
		<g>
			<path class="st2" d="M143.4,263.6l-3.1,2.6c-4.1-4.8-7.7-10.1-10.7-15.7c-3-5.6-5.4-11.5-7.2-17.6l3.9-1.1
				c-1.2-4.2-2.1-8.5-2.7-12.8l-8,1.1c1.5,11.3,5.1,22.3,10.5,32.4c5.4,10.1,12.6,19.1,21.3,26.6l5.3-6.1c-1.6-1.4-3.3-2.9-4.8-4.5
				C146.3,266.9,144.8,265.3,143.4,263.6z"/>
			<path class="st2" d="M209.6,294.1c-5.2,0-10.4-0.4-15.6-1.4c-5.1-0.9-10.2-2.3-15.1-4.2c-4.9-1.8-9.6-4.1-14.1-6.8l-4.1,6.9
				c4.9,2.9,10.1,5.4,15.4,7.4c5.3,2,10.9,3.5,16.5,4.5c5.6,1,11.3,1.5,17,1.5c5.7,0,11.4-0.6,17-1.6l-1.5-8
				C220,293.6,214.8,294.1,209.6,294.1z M192.8,299.8c-10.2-1.8-20.2-5.4-29.2-10.5l3-5.4l0.8,0.4c0.3,0.1,0.5,0.3,0.8,0.4l1.6,0.8
				l1.6,0.8c0.5,0.3,1.1,0.5,1.7,0.8c2.2,1,4.5,1.9,6.8,2.7c2.3,0.8,4.6,1.5,7,2.2c2.3,0.6,4.7,1.2,7.1,1.6c9.6,1.7,19.4,1.8,29,0.3
				l1,6.1C213.6,301.7,203,301.6,192.8,299.8z"/>
			<path class="st2" d="M290.4,256.2c0.9-1.4,1.7-2.9,2.5-4.4l-7.2-3.8c-2.4,4.6-5.3,9-8.5,13.1c-3.2,4.1-6.8,7.9-10.7,11.3
				c-7.8,6.9-16.9,12.3-26.7,16l2.9,7.6c1.6-0.6,3.2-1.3,4.8-2l1.6,3.7c2.3-1,4.6-2.2,6.9-3.4c2.3-1.2,4.5-2.5,6.6-3.9l-2.2-3.4
				c0.5-0.3,1-0.6,1.5-0.9l1.4-1c0.5-0.3,0.9-0.7,1.4-1c0.5-0.3,0.9-0.7,1.4-1l-2.4-3.2c0.9-0.7,1.9-1.4,2.8-2.2l1.4-1.1
				c0.5-0.4,0.9-0.8,1.3-1.2c1.8-1.6,3.5-3.2,5.1-4.9l2.9,2.8c1.6-1.7,3.2-3.5,4.7-5.3l3.1,2.6c1.6-2,3.2-4,4.7-6.1
				c1.5-2.1,2.9-4.2,4.2-6.4L290.4,256.2z"/>
			<path class="st2" d="M285.5,151.6l-0.9-1.2l-5.5,4.2c-1.4-1.8-2.8-3.6-4.3-5.3c-1.5-1.7-3.1-3.3-4.7-4.9l4.8-5
				c-0.8-0.7-1.5-1.5-2.3-2.2c-0.4-0.4-0.8-0.7-1.2-1.1l-1.2-1l5.9-7c-2.1-1.7-4.2-3.4-6.4-5c-2.2-1.6-4.5-3-6.8-4.4l-4.7,7.8
				c-0.9-0.5-1.8-1.1-2.7-1.6c-0.5-0.3-0.9-0.5-1.4-0.8l-1.4-0.7l-3.2,6.3c-4-2.1-8.3-3.8-12.6-5.3l2.2-6.7
				c-0.5-0.2-0.9-0.3-1.4-0.4l-1.4-0.4l-1.4-0.4c-0.5-0.1-0.9-0.3-1.4-0.4l-2.1,7.8c2.5,0.7,5,1.5,7.5,2.3c2.5,0.9,4.9,1.9,7.2,3
				c4.7,2.2,9.3,4.9,13.5,7.9c8.5,6.1,15.9,13.7,21.6,22.4l6.7-4.5c-0.5-0.8-1.1-1.6-1.6-2.4L285.5,151.6z"/>
			<path class="st2" d="M217.1,113.4l0.3-3c-1.5-0.1-2.9-0.2-4.4-0.3l-0.1,3c-3.9-0.1-7.8-0.1-11.6,0.3l-0.7-7.7
				c-0.8,0.1-1.5,0.1-2.3,0.2c-0.8,0.1-1.5,0.2-2.3,0.3l1,7.7c-1,0.1-2,0.3-2.9,0.4l-1.5,0.2l-1.5,0.3l-0.7,0.1l-0.7,0.2l-1.5,0.3
				l-1.4,0.4L186,116l-0.7,0.2l-0.8-2.9c-1.4,0.4-2.8,0.8-4.2,1.2l0.9,2.9c-3.7,1.2-7.4,2.5-11,4.2l-3.2-7.1c-1.4,0.6-2.8,1.3-4.2,2
				l3.5,6.9c-3.5,1.8-6.9,3.8-10.2,6l-1.7-2.5l-0.9,0.6c-0.3,0.2-0.6,0.4-0.9,0.6c-0.6,0.4-1.2,0.8-1.8,1.3l1.8,2.4l0.6,0.8l4.2,5.7
				c8.4-6.2,17.9-11,27.9-13.8c10-2.9,20.6-4,31-3.1l0.6-7L217.1,113.4z"/>
			<path class="st2" d="M124.7,189.5c1.1-5.1,2.7-10.1,4.7-14.9c2-4.8,4.4-9.5,7.3-13.9c2.8-4.4,6.1-8.5,9.6-12.3l-1.7-1.6
				c-4,4.2-7.5,8.9-10.6,13.8l-3-1.9c3.2-5.1,6.9-10,11-14.4l-1.7-1.6c-3.9,4.2-7.4,8.7-10.5,13.5c-3.1,4.8-5.7,9.9-7.9,15.2l-1,2.4
				c-0.3,0.8-0.6,1.6-0.9,2.4l-4.3-1.5l-0.7,2.1l-0.7,2.1l4.4,1.3c-0.3,0.9-0.5,1.8-0.8,2.7l-0.3,1.3c-0.1,0.4-0.2,0.9-0.3,1.3
				l-4.5-1.1c-0.2,0.7-0.3,1.5-0.5,2.2l-0.4,2.2l4.5,0.9c-0.2,0.9-0.3,1.8-0.5,2.6c-0.1,0.9-0.3,1.8-0.4,2.7l-4.5-0.6
				c-0.2,1.5-0.4,3-0.5,4.5l4.6,0.4l-0.1,1.3l-0.1,0.7l0,0.7l-0.1,1.3c0,0.4,0,0.9,0,1.3l8.1,0.2C123,199.8,123.6,194.6,124.7,189.5
				z"/>
			<path class="st2" d="M295.6,203.2c0.3,5.2,0.1,10.4-0.6,15.6c-0.7,5.2-1.8,10.3-3.4,15.2l7.7,2.5c0.3-1,0.6-1.9,0.9-2.9l0.4-1.4
				l0.4-1.5l3.5,0.9l0.2-0.7l0.2-0.7l-3.5-0.8c0.2-0.9,0.4-1.8,0.6-2.6l0.3-1.3l0.2-1.3l2.1,0.4c0.1-0.5,0.2-1,0.3-1.5l-2.1-0.3
				c0.1-0.9,0.3-1.8,0.4-2.7l0.2-1.3c0.1-0.4,0.1-0.9,0.1-1.3l3.6,0.4c0-0.5,0.1-1,0.1-1.5l-3.6-0.3l0.1-1.3l0.1-0.7l0-0.7l0.1-1.3
				c0-0.4,0-0.9,0-1.3l2.2,0.1c0-0.5,0-1,0-1.5l-2.2,0c0-1.8,0-3.6-0.1-5.4l3.6-0.2c0-0.5,0-1-0.1-1.5l-3.6,0.2
				c-0.1-1.8-0.3-3.6-0.5-5.4l2.1-0.3c-0.1-0.5-0.1-1-0.2-1.5l-2.1,0.3c-0.2-1.8-0.5-3.6-0.9-5.3l3.6-0.7c-0.1-0.5-0.2-1-0.3-1.5
				l-3.6,0.7l-0.3-1.3l-0.1-0.7l-0.2-0.7l-0.3-1.3c-0.1-0.4-0.2-0.9-0.3-1.3l2.1-0.6c-0.1-0.5-0.3-1-0.4-1.5l-2.1,0.6
				c-0.3-0.9-0.5-1.7-0.8-2.6l-0.4-1.3c-0.1-0.4-0.3-0.9-0.4-1.3l3.4-1.2c-0.2-0.5-0.3-1-0.5-1.4l-3.4,1.2c-0.3-0.9-0.7-1.9-1.1-2.8
				c-0.4-0.9-0.8-1.8-1.2-2.8l-7.4,3.2C292.7,182.5,295.1,192.8,295.6,203.2z M300,230.6l-0.4,1.6l-0.4,1.6l-6-1.7l0.4-1.5l0.4-1.5
				l2.6,0.7l-0.2,0.9l0.9,0.2l0.2-1L300,230.6z M301.5,223.9l-0.2,1.3l-0.3,1.3c-0.2,0.9-0.4,1.7-0.6,2.6l-2.6-0.6l0.2-1l-0.9-0.2
				l-0.2,0.9l-2.6-0.6c0.2-0.8,0.4-1.6,0.5-2.4l0.3-1.2l0.2-1.2l2.6,0.5l-0.2,1l0.9,0.2l0.2-1L301.5,223.9z M302.4,217.2
				c0,0.4-0.1,0.9-0.1,1.3l-0.2,1.3c-0.1,0.9-0.3,1.8-0.4,2.6l-2.6-0.4l0.1-1l-0.9-0.1l-0.1,1l-2.6-0.4c0.1-0.8,0.3-1.6,0.4-2.5
				l0.2-1.2c0.1-0.4,0.1-0.8,0.1-1.2l2.6,0.3l-0.1,1l0.9,0.1l0.1-1L302.4,217.2z M302.8,211.7l-0.1,1.3l0,0.7l-0.1,0.7l-0.1,1.3
				l-2.6-0.2l0.1-1l-0.9-0.1l-0.1,1l-2.6-0.2l0.1-1.2l0-0.6l0-0.6l0.1-1.2c0-0.4,0-0.8,0-1.2l2.6,0.1l0,1l0.9,0l0-1l2.6,0.1
				C302.8,210.9,302.8,211.3,302.8,211.7z M302.9,208.9l-2.6,0l0-1l-0.9,0l0,1l-2.6,0c0-1.7,0-3.3-0.1-5l2.6-0.1l0,1l0.9,0l0-1
				l2.6-0.1C302.9,205.4,302.9,207.2,302.9,208.9z M302.7,202.1l-2.6,0.2l-0.1-1l-0.9,0.1l0.1,1l-2.6,0.2c-0.1-1.7-0.2-3.3-0.4-5
				l2.6-0.3l0.1,1l0.9-0.1l-0.1-1l2.6-0.3C302.5,198.6,302.6,200.4,302.7,202.1z M301.2,190.1c0.3,1.7,0.6,3.5,0.9,5.3l-2.6,0.3
				l-0.1-1l-0.9,0.1l0.1,1l-2.6,0.3c-0.2-1.6-0.5-3.3-0.8-4.9l2.6-0.5l0.2,1l0.9-0.2l-0.2-1L301.2,190.1z M299.7,183.5
				c0.1,0.4,0.2,0.9,0.3,1.3l0.3,1.3l0.2,0.6l0.1,0.7l0.3,1.3l-2.6,0.5l-0.2-1l-0.9,0.2l0.2,1l-2.6,0.5l-0.3-1.2l-0.1-0.6l-0.1-0.6
				l-0.3-1.2c-0.1-0.4-0.2-0.8-0.3-1.2l2.5-0.7l0.3,0.9l0.9-0.2l-0.3-0.9L299.7,183.5z M297.7,176.9c0.1,0.4,0.3,0.8,0.4,1.3
				l0.4,1.3c0.3,0.8,0.5,1.7,0.8,2.6l-2.5,0.7l-0.3-0.9l-0.9,0.3l0.3,0.9l-2.5,0.7c-0.2-0.8-0.5-1.6-0.7-2.4l-0.4-1.2
				c-0.1-0.4-0.3-0.8-0.4-1.2l2.5-0.9l0.3,0.9l0.9-0.3l-0.3-0.9L297.7,176.9z M296.1,172.5c0.2,0.5,0.4,1,0.6,1.5l0.6,1.5l-2.5,0.9
				l-0.3-0.9l-0.9,0.3l0.3,0.9l-2.5,0.9l-0.5-1.4c-0.2-0.5-0.4-0.9-0.6-1.4L296.1,172.5z"/>
		</g>
		<g>
			<path class="st3" d="M321.4,204.4c-0.2-7.5-1.2-14.9-2.9-22.2l-1.8,0.4c1.7,7.1,2.6,14.5,2.8,21.8L321.4,204.4z M318.8,193.5
				c-0.4-2.9-0.9-5.8-1.5-8.7l1.5-0.3c0.6,2.9,1.1,5.9,1.5,8.8c0.4,3,0.6,5.9,0.8,8.9l-1.5,0.1C319.5,199.3,319.2,196.4,318.8,193.5
				z"/>
			<path class="st3" d="M316,241.9c2.3-7.1,3.9-14.4,4.7-21.8l-1.9-0.2c-0.8,7.3-2.4,14.5-4.6,21.5L316,241.9z"/>
			<path class="st3" d="M308.5,255.6c-3.2,6.6-7,12.9-11.5,18.7l1.5,1.1c4.5-5.9,8.4-12.3,11.7-19.1L308.5,255.6z M303.5,268
				l-1.2,1.9l-0.3,0.5l-0.3,0.5l-0.6,0.9l-0.6,0.9l-0.7,0.9l-1.2-0.9l0.7-0.9l0.6-0.9l0.6-0.9l0.3-0.5l0.3-0.5l1.2-1.8l1.2-1.9
				c1.5-2.5,3-5.1,4.3-7.7l1.3,0.7c-1.4,2.7-2.8,5.3-4.4,7.8L303.5,268z"/>
			<path class="st3" d="M269.9,299.7l1,1.6c6.2-4.1,12.1-8.8,17.4-14.1l-1.3-1.3C281.7,291.1,276,295.7,269.9,299.7z"/>
			<path class="st3" d="M210.3,95.5c-0.9,0-1.8,0-2.8,0l0,1.9c0.9,0,1.8,0,2.7,0c0.9,0,1.8,0,2.7,0.1l0.1-1.9
				C212.1,95.5,211.2,95.5,210.3,95.5z"/>
			<path class="st3" d="M197.5,98c0.4-0.1,0.9-0.1,1.3-0.1l1.3-0.1c0.4,0,0.9-0.1,1.3-0.1l-0.1-1.9c-0.5,0-0.9,0.1-1.4,0.1l-1.4,0.1
				c-0.5,0-0.9,0.1-1.4,0.1l-1.4,0.2l0.2,1.9L197.5,98z"/>
			<path class="st3" d="M187.6,99.5c0.9-0.2,1.8-0.4,2.7-0.5l-0.3-1.9c-0.9,0.2-1.8,0.3-2.7,0.5c-0.9,0.2-1.8,0.4-2.7,0.6l0.4,1.8
				C185.9,99.9,186.8,99.7,187.6,99.5z"/>
			<path class="st3" d="M176.1,100.5c-0.9,0.3-1.7,0.5-2.6,0.8l0.6,1.8c0.9-0.3,1.7-0.6,2.6-0.8c0.9-0.3,1.7-0.5,2.6-0.8l-0.5-1.8
				C177.8,100,176.9,100.3,176.1,100.5z M175.1,102.7l-0.5-1.6c1-0.3,2.1-0.7,3.1-1l0.5,1.6C177.1,102.1,176.1,102.4,175.1,102.7z"
				/>
			<path class="st3" d="M166.5,104c-0.4,0.2-0.8,0.4-1.3,0.5l-1.3,0.5l-1.3,0.6l0.8,1.7l1.2-0.6l1.2-0.5c0.4-0.2,0.8-0.4,1.2-0.5
				l1.3-0.5l-0.7-1.7L166.5,104z"/>
			<path class="st3" d="M158.1,110l-0.9-1.7c-1.6,0.8-3.2,1.7-4.8,2.7l1,1.6C155,111.7,156.5,110.8,158.1,110z"/>
			<polygon class="st3" points="148.4,115.7 147.3,114.2 145,115.7 142.8,117.3 143.9,118.8 146.1,117.3 			"/>
			<path class="st3" d="M112.3,263.9c3.7,6.5,8.1,12.5,13.1,18.1l1.4-1.2c-4.9-5.5-9.2-11.5-12.8-17.8L112.3,263.9z"/>
			<path class="st3" d="M99.1,228.4c1.4,7.3,3.5,14.5,6.3,21.4l1.7-0.7c-2.8-6.8-4.8-13.9-6.2-21.1L99.1,228.4z"/>
			<path class="st3" d="M98.5,190.6c-1.1,7.4-1.5,14.9-1.2,22.3l1.9-0.1c-0.3-7.3,0-14.7,1.2-21.9L98.5,190.6z"/>
			<path class="st3" d="M110.5,154.6c-1.8,3.3-3.4,6.7-4.8,10.1c-1.4,3.4-2.7,7-3.8,10.5l1.8,0.5c1.1-3.5,2.3-7,3.7-10.4
				c1.4-3.4,3-6.7,4.7-9.9L110.5,154.6z"/>
		</g>
		<g>
			<path class="st5" d="M256.8,92.5c0.3,0.1,0.6,0.3,1,0.4l1.9,0.8c0.6,0.3,1.3,0.6,1.9,0.9c5.1,2.3,10,5,14.7,8
				c2.3,1.5,4.7,3.1,6.9,4.7c1.1,0.8,2.2,1.7,3.3,2.5l1.6,1.3l0.8,0.7l0.8,0.7c8.5,7.2,16,15.6,22.3,24.8l5.1-3.5
				c-6.6-9.7-14.5-18.5-23.5-26l-0.8-0.7l-0.9-0.7c-0.6-0.5-1.1-0.9-1.7-1.4c-1.2-0.9-2.3-1.8-3.5-2.7c-2.3-1.7-4.8-3.4-7.2-5
				c-4.9-3.1-10.1-6-15.4-8.4c-0.7-0.3-1.3-0.6-2-0.9l-2-0.9c-0.3-0.1-0.7-0.3-1-0.4l-1-0.4l-2-0.8l-2.1-0.8l-1-0.4l-1-0.4l-2.1-0.7
				l-2.1-0.7l-1-0.3l-1.1-0.3l-2.1-0.6l-2.1-0.6l-1.1-0.3l-1.1-0.3l-2.1-0.5l-2.1-0.4l-1.1-0.2l-1.1-0.2l-2.2-0.4
				c-11.6-1.9-23.4-2.3-35-1.1c-11.6,1.2-23.1,4-34,8.3c-10.9,4.3-21.2,10-30.6,17c-9.4,7-17.8,15.3-25,24.5
				c-7.2,9.2-13.1,19.5-17.6,30.3l-0.8,2.1l-0.4,1.1l-0.4,1.1l-0.8,2.1l-0.7,2.1c-0.1,0.4-0.2,0.7-0.4,1.1l-0.3,1.1
				c-0.2,0.7-0.5,1.4-0.7,2.2c-0.4,1.5-0.8,2.9-1.2,4.4l6,1.6c0.3-1.4,0.8-2.8,1.2-4.2c0.2-0.7,0.4-1.4,0.6-2.1l0.3-1
				c0.1-0.3,0.2-0.7,0.3-1l0.7-2l0.7-2l0.4-1l0.4-1l0.8-2c4.3-10.3,9.9-20.1,16.7-28.8c6.8-8.8,14.9-16.7,23.8-23.3
				c8.9-6.7,18.8-12.1,29.2-16.2c10.4-4.1,21.3-6.7,32.4-7.9c11.1-1.2,22.3-0.8,33.3,1l2.1,0.4l1,0.2l1,0.2l2,0.4l2,0.5l1,0.2l1,0.3
				l2,0.5l2,0.6l1,0.3l1,0.3l2,0.6l2,0.7l1,0.3l1,0.4l2,0.7l1.9,0.8L256.8,92.5z"/>
			<path class="st5" d="M331.4,254.4l0.8-2.1l0.4-1l0.4-1l0.7-2.1l0.7-2.1l0.3-1l0.3-1.1l0.6-2.1l0.6-2.1l0.3-1.1l0.3-1.1l0.5-2.1
				l0.4-2.1l0.2-1.1l0.2-1.1l0.4-2.2l0.3-2.2l0.2-1.1l0.1-1.1l0.3-2.2l0.2-2.2c1.1-11.7,0.7-23.5-1.3-35l-6.1,1.1
				c1.9,11,2.3,22.2,1.2,33.3l-0.2,2.1l-0.3,2.1l-0.1,1l-0.2,1l-0.3,2.1l-0.4,2.1l-0.2,1l-0.2,1l-0.4,2l-0.5,2l-0.2,1l-0.3,1l-0.5,2
				l-0.6,2l-0.3,1l-0.3,1l-0.6,2l-0.7,2l-0.3,1l-0.4,1l-0.7,2c-4,10.4-9.4,20.3-16,29.3c-0.8,1.1-1.7,2.2-2.5,3.3
				c-0.4,0.5-0.9,1.1-1.3,1.6l-0.7,0.8l-0.7,0.8l-1.4,1.6l-1.4,1.6l-0.7,0.8l-0.7,0.8c-0.5,0.5-1,1-1.4,1.5c-1,1-1.9,2-3,2.9
				c-0.5,0.5-1,1-1.5,1.4l-1.5,1.4c-2.1,1.9-4.2,3.7-6.4,5.4c-8.8,6.9-18.5,12.6-28.7,16.9c-10.3,4.3-21.1,7.3-32.2,8.7
				c-11.1,1.4-22.3,1.4-33.3-0.1c-0.7-0.1-1.4-0.2-2.1-0.3l-1-0.2c-0.3-0.1-0.7-0.1-1-0.2l-2.1-0.4l-2-0.4l-1-0.2l-1-0.2l-2-0.5
				l-2-0.5l-1-0.3l-1-0.3l-2-0.6l-2-0.6l-1-0.3l-1-0.3l-2-0.7c-2.6-1-5.2-1.9-7.8-3.1l-2.5,5.7c2.7,1.2,5.4,2.2,8.2,3.2l2.1,0.7
				l1,0.4l1,0.3l2.1,0.7l2.1,0.6l1.1,0.3l1.1,0.3l2.1,0.5l2.1,0.5l1.1,0.2l1.1,0.2l2.2,0.4l2.2,0.4c0.4,0.1,0.7,0.1,1.1,0.2l1.1,0.2
				c0.7,0.1,1.4,0.2,2.2,0.3c11.6,1.6,23.4,1.7,35,0.1c11.6-1.5,23-4.6,33.8-9.2c10.8-4.5,21-10.5,30.2-17.8
				c2.3-1.8,4.5-3.7,6.7-5.7l1.6-1.5c0.5-0.5,1.1-1,1.6-1.5c1.1-1,2.1-2.1,3.1-3.1c0.5-0.5,1-1.1,1.5-1.6l0.8-0.8l0.7-0.8l1.5-1.6
				l1.4-1.7l0.7-0.8l0.7-0.9c0.5-0.6,0.9-1.1,1.4-1.7c0.9-1.2,1.8-2.3,2.7-3.5C321.5,275.7,327.1,265.3,331.4,254.4z"/>
			<path class="st5" d="M103.8,273.8l-0.5-0.8l-0.9-1.5c-0.3-0.5-0.6-1-0.9-1.5l-2.2,1.3c-1.6-2.8-3.1-5.6-4.5-8.5l2.3-1.1
				c-0.2-0.3-0.3-0.6-0.5-1l-0.4-1c-0.3-0.7-0.6-1.3-0.9-2l-0.9-2c-0.3-0.7-0.5-1.3-0.8-2c-0.3-0.7-0.5-1.3-0.8-2l-0.8-2
				c-0.5-1.4-1-2.7-1.4-4.1l-2.4,0.8c-1-3.3-2-6.6-2.8-10l2.5-0.6c-0.1-0.6-0.3-1.2-0.4-1.7l-0.4-1.7l-0.3-1.8
				c-0.1-0.6-0.2-1.2-0.3-1.8l-6.1,1.1c0.1,0.6,0.2,1.2,0.3,1.8l0.4,1.8l0.4,1.8c0.1,0.6,0.3,1.2,0.4,1.8l2.5-0.6
				c0.8,3.4,1.7,6.7,2.8,10l-2.4,0.8c0.4,1.4,1,2.9,1.5,4.3l0.8,2.1c0.3,0.7,0.5,1.4,0.8,2.1c0.3,0.7,0.6,1.4,0.9,2.1l0.9,2.1
				c0.3,0.7,0.6,1.4,0.9,2.1l0.5,1c0.2,0.3,0.3,0.7,0.5,1l2.3-1.1c1.4,2.9,2.9,5.8,4.5,8.6l-2.2,1.3c0.3,0.5,0.6,1.1,0.9,1.6l1,1.6
				l0.5,0.8l0.5,0.8l1,1.6l5.2-3.4l-1-1.5L103.8,273.8z"/>
		</g>
	</g>
</g>
<rect x="35.2" y="107.4" class="st6" width="357.6" height="238.4"/>
<g>
	<g>
		<polygon class="st7" points="209.3,254.7 212.4,250.4 218.1,242.6 216.9,232.7 209.3,243 201.8,232.9 200.6,242.8 206.2,250.4 		
			"/>
		<polygon class="st8" points="222.5,209.5 222.5,217.8 228.5,217.8 230.5,217.8 234.8,217.8 234.8,209.8 234.8,209.5 		"/>
		<polygon class="st8" points="199.7,203.1 205.2,205.4 201.8,232.9 209.3,243 216.9,232.7 213.5,205.4 218.8,203.2 209.2,185 		"/>
		<linearGradient id="SVGID_1_" gradientUnits="userSpaceOnUse" x1="209.2836" y1="177.1033" x2="209.2836" y2="224.8846">
			<stop  offset="0" style="stop-color:#FFFFFF"/>
			<stop  offset="0.4308" style="stop-color:#FFFFFF"/>
			<stop  offset="0.4664" style="stop-color:#CECFD1"/>
			<stop  offset="1" style="stop-color:#EBEBEA"/>
		</linearGradient>
		<path class="st9" d="M236.1,217.8L236.1,217.8l12.7-17.4l-13.1-26.2l-26.5,3.9l-25.8-3.9l-13.8,26.3l30.9,42.4l1.2-9.9l-25.4-32.6
			l4-7l18.2,11.9l1.1-2.1l9.5-18.1l9.6,18.1l1.1,2.1l18.2-12l4.1,7.1l-6.1,7.9h0.1v1.3V217.8z M197.8,202.4L182,190.5l5.8-10.1
			l18.4,3.5L197.8,202.4z M220.7,202.4l-8.3-18.4l18.4-3.6l5.7,10L220.7,202.4z"/>
		<polygon class="st2" points="230.5,219.2 227.4,219.2 216.9,232.7 218.1,242.6 235.2,219.2 234.8,219.2 		"/>
		<rect x="224.1" y="214.5" class="st2" width="9.1" height="1.5"/>
		<rect x="224.1" y="211.8" class="st2" width="6.3" height="1.5"/>
		
			<radialGradient id="SVGID_2_" cx="-560.7818" cy="357.8145" r="11.8151" gradientTransform="matrix(0.9243 -0.3302 0.4717 1.3063 585.2966 -466.022)" gradientUnits="userSpaceOnUse">
			<stop  offset="0" style="stop-color:#FFFFFF"/>
			<stop  offset="9.471746e-02" style="stop-color:#F3F3F3;stop-opacity:0.9053"/>
			<stop  offset="0.2662" style="stop-color:#D4D3D4;stop-opacity:0.7338"/>
			<stop  offset="0.4949" style="stop-color:#A09FA1;stop-opacity:0.5051"/>
			<stop  offset="0.7687" style="stop-color:#5A585B;stop-opacity:0.2313"/>
			<stop  offset="1" style="stop-color:#1A171B;stop-opacity:0"/>
		</radialGradient>
		<path class="st10" d="M246.7,182.7c3.1,8.5,0.7,17.2-5.4,19.3c-6,2.2-13.4-3-16.5-11.5c-3.1-8.5-0.7-17.2,5.3-19.3
			C236.2,169,243.6,174.1,246.7,182.7z"/>
	</g>
	<g>
		<linearGradient id="SVGID_3_" gradientUnits="userSpaceOnUse" x1="123.979" y1="267.758" x2="123.979" y2="285.3158">
			<stop  offset="0" style="stop-color:#FFFFFF"/>
			<stop  offset="0.4308" style="stop-color:#FFFFFF"/>
			<stop  offset="0.4664" style="stop-color:#CECFD1"/>
			<stop  offset="1" style="stop-color:#EBEBEA"/>
		</linearGradient>
		<path class="st11" d="M116.5,269.4V281c0,3.1,2.2,5.2,5.6,5.2h9.3v-3.2h-9.3c-1.1,0-1.9-0.8-1.9-1.9v-11.6c0-1.1,0.8-1.9,1.9-1.9
			h8.2l1.1-1.1v-2.2h-9.3C118.8,264.2,116.5,266.3,116.5,269.4z"/>
		<linearGradient id="SVGID_4_" gradientUnits="userSpaceOnUse" x1="141.7878" y1="267.7584" x2="141.7878" y2="285.3183">
			<stop  offset="0" style="stop-color:#FFFFFF"/>
			<stop  offset="0.4308" style="stop-color:#FFFFFF"/>
			<stop  offset="0.4664" style="stop-color:#CECFD1"/>
			<stop  offset="1" style="stop-color:#EBEBEA"/>
		</linearGradient>
		<path class="st12" d="M150.7,264.2h-3.3l-5.3,12.6l-6.2-12.6h-3.2v2l7.5,14.7l-0.1,0.2c-0.8,1.7-1.5,2-2.3,2h-2.5v3.2h2.5
			c3.7,0,5.2-2.6,6.1-4.5l6.7-15.6V264.2z"/>
		<linearGradient id="SVGID_5_" gradientUnits="userSpaceOnUse" x1="161.1954" y1="267.7578" x2="161.1954" y2="285.315">
			<stop  offset="0" style="stop-color:#FFFFFF"/>
			<stop  offset="0.4308" style="stop-color:#FFFFFF"/>
			<stop  offset="0.4664" style="stop-color:#CECFD1"/>
			<stop  offset="1" style="stop-color:#EBEBEA"/>
		</linearGradient>
		<path class="st13" d="M168.9,264.2h-13.2l-1.5,16.3c-0.1,1.2-1.1,2-1.5,2.3h-2.2v7.3h3.1l0.6-4h13.8l0.6,4h3.1v-7.3h-2.9V264.2z
			 M165.2,267.5v15.4h-8.2c0.4-0.5,0.7-1.3,0.8-2.1l1.2-13.3H165.2z"/>
		<linearGradient id="SVGID_6_" gradientUnits="userSpaceOnUse" x1="180.819" y1="267.758" x2="180.819" y2="285.3158">
			<stop  offset="0" style="stop-color:#FFFFFF"/>
			<stop  offset="0.4308" style="stop-color:#FFFFFF"/>
			<stop  offset="0.4664" style="stop-color:#CECFD1"/>
			<stop  offset="1" style="stop-color:#EBEBEA"/>
		</linearGradient>
		<path class="st14" d="M182.6,264.2h-9.2v2.2l1.1,1.1h8.2c1.1,0,1.9,0.8,1.9,1.9v4.1h-7.9v3.2h7.9v4.2c0,1.1-0.8,1.9-1.9,1.9h-9.2
			v3.2h9.2c3.4,0,5.6-2,5.6-5.2v-11.6C188.3,266.3,186,264.2,182.6,264.2z"/>
		<linearGradient id="SVGID_7_" gradientUnits="userSpaceOnUse" x1="201.2394" y1="267.758" x2="201.2394" y2="285.3158">
			<stop  offset="0" style="stop-color:#FFFFFF"/>
			<stop  offset="0.4308" style="stop-color:#FFFFFF"/>
			<stop  offset="0.4664" style="stop-color:#CECFD1"/>
			<stop  offset="1" style="stop-color:#EBEBEA"/>
		</linearGradient>
		<polygon class="st15" points="208.6,266.3 208.6,264.2 205.4,264.2 200.5,273.5 196.8,273.5 196.8,264.2 193.1,264.2 193.1,286.1 
			196.8,286.1 196.8,276.7 200.5,276.7 206.2,286.1 209.3,286.1 209.3,284 203.6,275 		"/>
		<linearGradient id="SVGID_8_" gradientUnits="userSpaceOnUse" x1="219.3382" y1="267.758" x2="219.3382" y2="285.3158">
			<stop  offset="0" style="stop-color:#FFFFFF"/>
			<stop  offset="0.4308" style="stop-color:#FFFFFF"/>
			<stop  offset="0.4664" style="stop-color:#CECFD1"/>
			<stop  offset="1" style="stop-color:#EBEBEA"/>
		</linearGradient>
		<path class="st16" d="M211.9,269.4V281c0,3.1,2.2,5.2,5.6,5.2h9.2v-3.2h-9.2c-1.1,0-1.9-0.8-1.9-1.9v-11.6c0-1.1,0.8-1.9,1.9-1.9
			h8.2l1.1-1.1v-2.2h-9.2C214.1,264.2,211.9,266.3,211.9,269.4z"/>
		<linearGradient id="SVGID_9_" gradientUnits="userSpaceOnUse" x1="238.3031" y1="267.758" x2="238.3031" y2="285.3158">
			<stop  offset="0" style="stop-color:#FFFFFF"/>
			<stop  offset="0.4308" style="stop-color:#FFFFFF"/>
			<stop  offset="0.4664" style="stop-color:#CECFD1"/>
			<stop  offset="1" style="stop-color:#EBEBEA"/>
		</linearGradient>
		<polygon class="st17" points="230.4,286.1 234,286.1 234,267.5 242.6,267.5 242.6,286.1 246.2,286.1 246.2,264.2 230.4,264.2 		
			"/>
		<linearGradient id="SVGID_10_" gradientUnits="userSpaceOnUse" x1="258.944" y1="267.758" x2="258.944" y2="285.3158">
			<stop  offset="0" style="stop-color:#FFFFFF"/>
			<stop  offset="0.4308" style="stop-color:#FFFFFF"/>
			<stop  offset="0.4664" style="stop-color:#CECFD1"/>
			<stop  offset="1" style="stop-color:#EBEBEA"/>
		</linearGradient>
		<polygon class="st18" points="251.6,286.1 266.3,286.1 266.3,282.9 255.3,282.9 255.3,276.6 263.8,276.6 263.8,273.3 255.3,273.3 
			255.3,267.5 265.2,267.5 266.3,266.4 266.3,264.2 251.6,264.2 		"/>
		<linearGradient id="SVGID_11_" gradientUnits="userSpaceOnUse" x1="277.6248" y1="267.758" x2="277.6248" y2="285.3158">
			<stop  offset="0" style="stop-color:#FFFFFF"/>
			<stop  offset="0.4308" style="stop-color:#FFFFFF"/>
			<stop  offset="0.4664" style="stop-color:#CECFD1"/>
			<stop  offset="1" style="stop-color:#EBEBEA"/>
		</linearGradient>
		<path class="st19" d="M279.7,264.2h-9.8v21.9h3.7v-6.9h6.2c3.4,0,5.6-2,5.6-5.2v-4.6C285.4,266.3,283.1,264.2,279.7,264.2z
			 M273.6,267.5h6.2c1.1,0,1.9,0.8,1.9,1.9v4.6c0,1.1-0.8,1.9-1.9,1.9h-6.2V267.5z"/>
		<linearGradient id="SVGID_12_" gradientUnits="userSpaceOnUse" x1="295.7186" y1="267.758" x2="295.7186" y2="285.3158">
			<stop  offset="0" style="stop-color:#FFFFFF"/>
			<stop  offset="0.4308" style="stop-color:#FFFFFF"/>
			<stop  offset="0.4664" style="stop-color:#CECFD1"/>
			<stop  offset="1" style="stop-color:#EBEBEA"/>
		</linearGradient>
		<polygon class="st20" points="287.5,264.2 287.5,267.5 293.9,267.5 293.9,286.1 297.6,286.1 297.6,267.5 302.9,267.5 303.9,266.4 
			303.9,264.2 		"/>
	</g>
	
		<radialGradient id="SVGID_13_" cx="396.9272" cy="2127.1218" r="9.4565" gradientTransform="matrix(10.4093 0 0 0.694 -3922.447 -1201.6085)" gradientUnits="userSpaceOnUse">
		<stop  offset="0" style="stop-color:#FFFFFF"/>
		<stop  offset="9.471746e-02" style="stop-color:#F3F3F3;stop-opacity:0.9053"/>
		<stop  offset="0.2662" style="stop-color:#D4D3D4;stop-opacity:0.7338"/>
		<stop  offset="0.4949" style="stop-color:#A09FA1;stop-opacity:0.5051"/>
		<stop  offset="0.7687" style="stop-color:#5A585B;stop-opacity:0.2313"/>
		<stop  offset="1" style="stop-color:#1A171B;stop-opacity:0"/>
	</radialGradient>
	<path class="st21" d="M307.7,274.6c0,3.6-44.1,6.6-98.4,6.6c-54.4,0-98.4-2.9-98.4-6.6c0-3.6,44.1-6.6,98.4-6.6
		C263.6,268.1,307.7,271,307.7,274.6z"/>
</g>
</svg>
