<?xml version="1.0" encoding="utf-8"?>
<!-- Generator: Adobe Illustrator 22.0.1, SVG Export Plug-In . SVG Version: 6.00 Build 0)  -->
<svg version="1.1" id="Слой_1" xmlns="http://www.w3.org/2000/svg" xmlns:xlink="http://www.w3.org/1999/xlink" x="0px" y="0px"
	 viewBox="0 0 200 120" style="enable-background:new 0 0 200 120;" xml:space="preserve">
<style type="text/css">
	.st0{fill:#60A55E;}
	.st1{fill:#308A2D;}
	.st2{fill:url(#SVGID_1_);}
	.st3{fill:#FFFFFF;}
	.st4{opacity:0.72;fill:url(#SVGID_2_);}
	.st5{fill:url(#SVGID_3_);}
	.st6{fill:url(#SVGID_4_);}
	.st7{fill:url(#SVGID_5_);}
	.st8{fill:url(#SVGID_6_);}
	.st9{fill:url(#SVGID_7_);}
	.st10{fill:url(#SVGID_8_);}
	.st11{fill:url(#SVGID_9_);}
	.st12{fill:url(#SVGID_10_);}
	.st13{fill:url(#SVGID_11_);}
	.st14{fill:url(#SVGID_12_);}
	.st15{opacity:0.2;fill:url(#SVGID_13_);}
	.st16{fill:url(#SVGID_14_);}
	.st17{opacity:0.72;fill:url(#SVGID_15_);}
	.st18{fill:url(#SVGID_16_);}
	.st19{fill:url(#SVGID_17_);}
	.st20{fill:url(#SVGID_18_);}
	.st21{fill:url(#SVGID_19_);}
	.st22{fill:url(#SVGID_20_);}
	.st23{fill:url(#SVGID_21_);}
	.st24{fill:url(#SVGID_22_);}
	.st25{fill:url(#SVGID_23_);}
	.st26{fill:url(#SVGID_24_);}
	.st27{fill:url(#SVGID_25_);}
	.st28{opacity:0.2;fill:url(#SVGID_26_);}
	.st29{fill:url(#SVGID_27_);}
	.st30{opacity:0.72;fill:url(#SVGID_28_);}
	.st31{fill:url(#SVGID_29_);}
	.st32{fill:url(#SVGID_30_);}
	.st33{fill:url(#SVGID_31_);}
	.st34{fill:url(#SVGID_32_);}
	.st35{fill:url(#SVGID_33_);}
	.st36{fill:url(#SVGID_34_);}
	.st37{fill:url(#SVGID_35_);}
	.st38{fill:url(#SVGID_36_);}
	.st39{fill:url(#SVGID_37_);}
	.st40{fill:url(#SVGID_38_);}
	.st41{opacity:0.2;fill:url(#SVGID_39_);}
</style>
<g>
	<g>
		<polygon class="st0" points="100.3,84.7 103.4,80.4 109.1,72.6 107.9,62.7 100.3,73 92.8,62.9 91.6,72.8 97.2,80.4 		"/>
		<polygon class="st1" points="113.5,39.5 113.5,47.8 119.5,47.8 121.5,47.8 125.8,47.8 125.8,39.8 125.8,39.5 		"/>
		<polygon class="st1" points="90.7,33.1 96.2,35.4 92.8,62.9 100.3,73 107.9,62.7 104.5,35.4 109.8,33.2 100.2,15 		"/>
		<linearGradient id="SVGID_1_" gradientUnits="userSpaceOnUse" x1="100.2836" y1="7.1033" x2="100.2836" y2="54.8846">
			<stop  offset="0" style="stop-color:#FFFFFF"/>
			<stop  offset="0.4308" style="stop-color:#FFFFFF"/>
			<stop  offset="0.4664" style="stop-color:#CECFD1"/>
			<stop  offset="1" style="stop-color:#EBEBEA"/>
		</linearGradient>
		<path class="st2" d="M127.1,47.8L127.1,47.8l12.7-17.4L126.8,4.2l-26.5,3.9L74.5,4.2L60.7,30.5l30.9,42.4l1.2-9.9L67.4,30.3l4-7
			l18.2,11.9l1.1-2.1l9.5-18.1l9.6,18.1l1.1,2.1l18.2-12l4.1,7.1l-6.1,7.9h0.1v1.3V47.8z M88.8,32.4L73,20.5l5.8-10.1L97.2,14
			L88.8,32.4z M111.7,32.4L103.3,14l18.4-3.6l5.7,10L111.7,32.4z"/>
		<polygon class="st3" points="121.5,49.2 118.4,49.2 107.9,62.7 109.1,72.6 126.2,49.2 125.8,49.2 		"/>
		<rect x="115.1" y="44.5" class="st3" width="9.1" height="1.5"/>
		<rect x="115.1" y="41.8" class="st3" width="6.3" height="1.5"/>
		
			<radialGradient id="SVGID_2_" cx="-662.9028" cy="194.4957" r="11.8151" gradientTransform="matrix(0.9243 -0.3302 0.4717 1.3063 647.7246 -456.399)" gradientUnits="userSpaceOnUse">
			<stop  offset="0" style="stop-color:#FFFFFF"/>
			<stop  offset="9.471746e-02" style="stop-color:#F3F3F3;stop-opacity:0.9053"/>
			<stop  offset="0.2662" style="stop-color:#D4D3D4;stop-opacity:0.7338"/>
			<stop  offset="0.4949" style="stop-color:#A09FA1;stop-opacity:0.5051"/>
			<stop  offset="0.7687" style="stop-color:#5A585B;stop-opacity:0.2313"/>
			<stop  offset="1" style="stop-color:#1A171B;stop-opacity:0"/>
		</radialGradient>
		<path class="st4" d="M137.7,12.7c3.1,8.5,0.7,17.2-5.4,19.3c-6,2.2-13.4-3-16.5-11.5c-3.1-8.5-0.7-17.2,5.3-19.3
			C127.2-1,134.6,4.1,137.7,12.7z"/>
	</g>
	<g>
		<linearGradient id="SVGID_3_" gradientUnits="userSpaceOnUse" x1="14.979" y1="97.758" x2="14.979" y2="115.3158">
			<stop  offset="0" style="stop-color:#FFFFFF"/>
			<stop  offset="0.4308" style="stop-color:#FFFFFF"/>
			<stop  offset="0.4664" style="stop-color:#CECFD1"/>
			<stop  offset="1" style="stop-color:#EBEBEA"/>
		</linearGradient>
		<path class="st5" d="M7.5,99.4V111c0,3.1,2.2,5.2,5.6,5.2h9.3v-3.2h-9.3c-1.1,0-1.9-0.8-1.9-1.9V99.4c0-1.1,0.8-1.9,1.9-1.9h8.2
			l1.1-1.1v-2.2h-9.3C9.8,94.2,7.5,96.3,7.5,99.4z"/>
		<linearGradient id="SVGID_4_" gradientUnits="userSpaceOnUse" x1="32.7878" y1="97.7584" x2="32.7878" y2="115.3183">
			<stop  offset="0" style="stop-color:#FFFFFF"/>
			<stop  offset="0.4308" style="stop-color:#FFFFFF"/>
			<stop  offset="0.4664" style="stop-color:#CECFD1"/>
			<stop  offset="1" style="stop-color:#EBEBEA"/>
		</linearGradient>
		<path class="st6" d="M41.7,94.2h-3.3l-5.3,12.6l-6.2-12.6h-3.2v2l7.5,14.7l-0.1,0.2c-0.8,1.7-1.5,2-2.3,2h-2.5v3.2h2.5
			c3.7,0,5.2-2.6,6.1-4.5l6.7-15.6V94.2z"/>
		<linearGradient id="SVGID_5_" gradientUnits="userSpaceOnUse" x1="52.1954" y1="97.7578" x2="52.1954" y2="115.315">
			<stop  offset="0" style="stop-color:#FFFFFF"/>
			<stop  offset="0.4308" style="stop-color:#FFFFFF"/>
			<stop  offset="0.4664" style="stop-color:#CECFD1"/>
			<stop  offset="1" style="stop-color:#EBEBEA"/>
		</linearGradient>
		<path class="st7" d="M59.9,94.2H46.7l-1.5,16.3c-0.1,1.2-1.1,2-1.5,2.3h-2.2v7.3h3.1l0.6-4h13.8l0.6,4h3.1v-7.3h-2.9V94.2z
			 M56.2,97.5v15.4h-8.2c0.4-0.5,0.7-1.3,0.8-2.1l1.2-13.3H56.2z"/>
		<linearGradient id="SVGID_6_" gradientUnits="userSpaceOnUse" x1="71.819" y1="97.758" x2="71.819" y2="115.3158">
			<stop  offset="0" style="stop-color:#FFFFFF"/>
			<stop  offset="0.4308" style="stop-color:#FFFFFF"/>
			<stop  offset="0.4664" style="stop-color:#CECFD1"/>
			<stop  offset="1" style="stop-color:#EBEBEA"/>
		</linearGradient>
		<path class="st8" d="M73.6,94.2h-9.2v2.2l1.1,1.1h8.2c1.1,0,1.9,0.8,1.9,1.9v4.1h-7.9v3.2h7.9v4.2c0,1.1-0.8,1.9-1.9,1.9h-9.2v3.2
			h9.2c3.4,0,5.6-2,5.6-5.2V99.4C79.3,96.3,77,94.2,73.6,94.2z"/>
		<linearGradient id="SVGID_7_" gradientUnits="userSpaceOnUse" x1="92.2394" y1="97.758" x2="92.2394" y2="115.3158">
			<stop  offset="0" style="stop-color:#FFFFFF"/>
			<stop  offset="0.4308" style="stop-color:#FFFFFF"/>
			<stop  offset="0.4664" style="stop-color:#CECFD1"/>
			<stop  offset="1" style="stop-color:#EBEBEA"/>
		</linearGradient>
		<polygon class="st9" points="99.6,96.3 99.6,94.2 96.4,94.2 91.5,103.5 87.8,103.5 87.8,94.2 84.1,94.2 84.1,116.1 87.8,116.1 
			87.8,106.7 91.5,106.7 97.2,116.1 100.3,116.1 100.3,114 94.6,105 		"/>
		<linearGradient id="SVGID_8_" gradientUnits="userSpaceOnUse" x1="110.3382" y1="97.758" x2="110.3382" y2="115.3158">
			<stop  offset="0" style="stop-color:#FFFFFF"/>
			<stop  offset="0.4308" style="stop-color:#FFFFFF"/>
			<stop  offset="0.4664" style="stop-color:#CECFD1"/>
			<stop  offset="1" style="stop-color:#EBEBEA"/>
		</linearGradient>
		<path class="st10" d="M102.9,99.4V111c0,3.1,2.2,5.2,5.6,5.2h9.2v-3.2h-9.2c-1.1,0-1.9-0.8-1.9-1.9V99.4c0-1.1,0.8-1.9,1.9-1.9
			h8.2l1.1-1.1v-2.2h-9.2C105.1,94.2,102.9,96.3,102.9,99.4z"/>
		<linearGradient id="SVGID_9_" gradientUnits="userSpaceOnUse" x1="129.3031" y1="97.758" x2="129.3031" y2="115.3158">
			<stop  offset="0" style="stop-color:#FFFFFF"/>
			<stop  offset="0.4308" style="stop-color:#FFFFFF"/>
			<stop  offset="0.4664" style="stop-color:#CECFD1"/>
			<stop  offset="1" style="stop-color:#EBEBEA"/>
		</linearGradient>
		<polygon class="st11" points="121.4,116.1 125,116.1 125,97.5 133.6,97.5 133.6,116.1 137.2,116.1 137.2,94.2 121.4,94.2 		"/>
		<linearGradient id="SVGID_10_" gradientUnits="userSpaceOnUse" x1="149.944" y1="97.758" x2="149.944" y2="115.3158">
			<stop  offset="0" style="stop-color:#FFFFFF"/>
			<stop  offset="0.4308" style="stop-color:#FFFFFF"/>
			<stop  offset="0.4664" style="stop-color:#CECFD1"/>
			<stop  offset="1" style="stop-color:#EBEBEA"/>
		</linearGradient>
		<polygon class="st12" points="142.6,116.1 157.3,116.1 157.3,112.9 146.3,112.9 146.3,106.6 154.8,106.6 154.8,103.3 146.3,103.3 
			146.3,97.5 156.2,97.5 157.3,96.4 157.3,94.2 142.6,94.2 		"/>
		<linearGradient id="SVGID_11_" gradientUnits="userSpaceOnUse" x1="168.6248" y1="97.758" x2="168.6248" y2="115.3158">
			<stop  offset="0" style="stop-color:#FFFFFF"/>
			<stop  offset="0.4308" style="stop-color:#FFFFFF"/>
			<stop  offset="0.4664" style="stop-color:#CECFD1"/>
			<stop  offset="1" style="stop-color:#EBEBEA"/>
		</linearGradient>
		<path class="st13" d="M170.7,94.2h-9.8v21.9h3.7v-6.9h6.2c3.4,0,5.6-2,5.6-5.2v-4.6C176.4,96.3,174.1,94.2,170.7,94.2z
			 M164.6,97.5h6.2c1.1,0,1.9,0.8,1.9,1.9v4.6c0,1.1-0.8,1.9-1.9,1.9h-6.2V97.5z"/>
		<linearGradient id="SVGID_12_" gradientUnits="userSpaceOnUse" x1="186.7186" y1="97.758" x2="186.7186" y2="115.3158">
			<stop  offset="0" style="stop-color:#FFFFFF"/>
			<stop  offset="0.4308" style="stop-color:#FFFFFF"/>
			<stop  offset="0.4664" style="stop-color:#CECFD1"/>
			<stop  offset="1" style="stop-color:#EBEBEA"/>
		</linearGradient>
		<polygon class="st14" points="178.5,94.2 178.5,97.5 184.9,97.5 184.9,116.1 188.6,116.1 188.6,97.5 193.9,97.5 194.9,96.4 
			194.9,94.2 		"/>
	</g>
	
		<radialGradient id="SVGID_13_" cx="287.0232" cy="1948.3033" r="9.4565" gradientTransform="matrix(10.4093 0 0 0.694 -2887.4241 -1247.5085)" gradientUnits="userSpaceOnUse">
		<stop  offset="0" style="stop-color:#FFFFFF"/>
		<stop  offset="9.471746e-02" style="stop-color:#F3F3F3;stop-opacity:0.9053"/>
		<stop  offset="0.2662" style="stop-color:#D4D3D4;stop-opacity:0.7338"/>
		<stop  offset="0.4949" style="stop-color:#A09FA1;stop-opacity:0.5051"/>
		<stop  offset="0.7687" style="stop-color:#5A585B;stop-opacity:0.2313"/>
		<stop  offset="1" style="stop-color:#1A171B;stop-opacity:0"/>
	</radialGradient>
	<path class="st15" d="M198.7,104.6c0,3.6-44.1,6.6-98.4,6.6c-54.4,0-98.4-2.9-98.4-6.6c0-3.6,44.1-6.6,98.4-6.6
		C154.6,98.1,198.7,101,198.7,104.6z"/>
</g>
<g>
	<g>
		<polygon class="st0" points="100.3,83.7 103.4,79.4 109.1,71.6 107.9,61.7 100.3,72 92.8,61.9 91.6,71.8 97.2,79.4 		"/>
		<polygon class="st1" points="113.5,38.5 113.5,46.8 119.5,46.8 121.5,46.8 125.8,46.8 125.8,38.8 125.8,38.5 		"/>
		<polygon class="st1" points="90.7,32.1 96.2,34.4 92.8,61.9 100.3,72 107.9,61.7 104.5,34.4 109.8,32.2 100.2,14 		"/>
		<linearGradient id="SVGID_14_" gradientUnits="userSpaceOnUse" x1="100.2836" y1="6.1033" x2="100.2836" y2="53.8846">
			<stop  offset="0" style="stop-color:#FFFFFF"/>
			<stop  offset="0.4308" style="stop-color:#FFFFFF"/>
			<stop  offset="0.4664" style="stop-color:#CECFD1"/>
			<stop  offset="1" style="stop-color:#EBEBEA"/>
		</linearGradient>
		<path class="st16" d="M127.1,46.8L127.1,46.8l12.7-17.4L126.8,3.2l-26.5,3.9L74.5,3.2L60.7,29.5l30.9,42.4l1.2-9.9L67.4,29.3l4-7
			l18.2,11.9l1.1-2.1l9.5-18.1l9.6,18.1l1.1,2.1l18.2-12l4.1,7.1l-6.1,7.9h0.1v1.3V46.8z M88.8,31.4L73,19.5l5.8-10.1L97.2,13
			L88.8,31.4z M111.7,31.4L103.3,13l18.4-3.6l5.7,10L111.7,31.4z"/>
		<polygon class="st3" points="121.5,48.2 118.4,48.2 107.9,61.7 109.1,71.6 126.2,48.2 125.8,48.2 		"/>
		<rect x="115.1" y="43.5" class="st3" width="9.1" height="1.5"/>
		<rect x="115.1" y="40.8" class="st3" width="6.3" height="1.5"/>
		
			<radialGradient id="SVGID_15_" cx="-662.5568" cy="193.8176" r="11.8151" gradientTransform="matrix(0.9243 -0.3302 0.4717 1.3063 647.7246 -456.399)" gradientUnits="userSpaceOnUse">
			<stop  offset="0" style="stop-color:#FFFFFF"/>
			<stop  offset="9.471746e-02" style="stop-color:#F3F3F3;stop-opacity:0.9053"/>
			<stop  offset="0.2662" style="stop-color:#D4D3D4;stop-opacity:0.7338"/>
			<stop  offset="0.4949" style="stop-color:#A09FA1;stop-opacity:0.5051"/>
			<stop  offset="0.7687" style="stop-color:#5A585B;stop-opacity:0.2313"/>
			<stop  offset="1" style="stop-color:#1A171B;stop-opacity:0"/>
		</radialGradient>
		<path class="st17" d="M137.7,11.7c3.1,8.5,0.7,17.2-5.4,19.3c-6,2.2-13.4-3-16.5-11.5c-3.1-8.5-0.7-17.2,5.3-19.3
			C127.2-2,134.6,3.1,137.7,11.7z"/>
	</g>
	<g>
		<linearGradient id="SVGID_16_" gradientUnits="userSpaceOnUse" x1="14.979" y1="96.758" x2="14.979" y2="114.3158">
			<stop  offset="0" style="stop-color:#FFFFFF"/>
			<stop  offset="0.4308" style="stop-color:#FFFFFF"/>
			<stop  offset="0.4664" style="stop-color:#CECFD1"/>
			<stop  offset="1" style="stop-color:#EBEBEA"/>
		</linearGradient>
		<path class="st18" d="M7.5,98.4V110c0,3.1,2.2,5.2,5.6,5.2h9.3v-3.2h-9.3c-1.1,0-1.9-0.8-1.9-1.9V98.4c0-1.1,0.8-1.9,1.9-1.9h8.2
			l1.1-1.1v-2.2h-9.3C9.8,93.2,7.5,95.3,7.5,98.4z"/>
		<linearGradient id="SVGID_17_" gradientUnits="userSpaceOnUse" x1="32.7878" y1="96.7584" x2="32.7878" y2="114.3183">
			<stop  offset="0" style="stop-color:#FFFFFF"/>
			<stop  offset="0.4308" style="stop-color:#FFFFFF"/>
			<stop  offset="0.4664" style="stop-color:#CECFD1"/>
			<stop  offset="1" style="stop-color:#EBEBEA"/>
		</linearGradient>
		<path class="st19" d="M41.7,93.2h-3.3l-5.3,12.6l-6.2-12.6h-3.2v2l7.5,14.7l-0.1,0.2c-0.8,1.7-1.5,2-2.3,2h-2.5v3.2h2.5
			c3.7,0,5.2-2.6,6.1-4.5l6.7-15.6V93.2z"/>
		<linearGradient id="SVGID_18_" gradientUnits="userSpaceOnUse" x1="52.1954" y1="96.7578" x2="52.1954" y2="114.315">
			<stop  offset="0" style="stop-color:#FFFFFF"/>
			<stop  offset="0.4308" style="stop-color:#FFFFFF"/>
			<stop  offset="0.4664" style="stop-color:#CECFD1"/>
			<stop  offset="1" style="stop-color:#EBEBEA"/>
		</linearGradient>
		<path class="st20" d="M59.9,93.2H46.7l-1.5,16.3c-0.1,1.2-1.1,2-1.5,2.3h-2.2v7.3h3.1l0.6-4h13.8l0.6,4h3.1v-7.3h-2.9V93.2z
			 M56.2,96.5v15.4h-8.2c0.4-0.5,0.7-1.3,0.8-2.1l1.2-13.3H56.2z"/>
		<linearGradient id="SVGID_19_" gradientUnits="userSpaceOnUse" x1="71.819" y1="96.758" x2="71.819" y2="114.3158">
			<stop  offset="0" style="stop-color:#FFFFFF"/>
			<stop  offset="0.4308" style="stop-color:#FFFFFF"/>
			<stop  offset="0.4664" style="stop-color:#CECFD1"/>
			<stop  offset="1" style="stop-color:#EBEBEA"/>
		</linearGradient>
		<path class="st21" d="M73.6,93.2h-9.2v2.2l1.1,1.1h8.2c1.1,0,1.9,0.8,1.9,1.9v4.1h-7.9v3.2h7.9v4.2c0,1.1-0.8,1.9-1.9,1.9h-9.2
			v3.2h9.2c3.4,0,5.6-2,5.6-5.2V98.4C79.3,95.3,77,93.2,73.6,93.2z"/>
		<linearGradient id="SVGID_20_" gradientUnits="userSpaceOnUse" x1="92.2394" y1="96.758" x2="92.2394" y2="114.3158">
			<stop  offset="0" style="stop-color:#FFFFFF"/>
			<stop  offset="0.4308" style="stop-color:#FFFFFF"/>
			<stop  offset="0.4664" style="stop-color:#CECFD1"/>
			<stop  offset="1" style="stop-color:#EBEBEA"/>
		</linearGradient>
		<polygon class="st22" points="99.6,95.3 99.6,93.2 96.4,93.2 91.5,102.5 87.8,102.5 87.8,93.2 84.1,93.2 84.1,115.1 87.8,115.1 
			87.8,105.7 91.5,105.7 97.2,115.1 100.3,115.1 100.3,113 94.6,104 		"/>
		<linearGradient id="SVGID_21_" gradientUnits="userSpaceOnUse" x1="110.3382" y1="96.758" x2="110.3382" y2="114.3158">
			<stop  offset="0" style="stop-color:#FFFFFF"/>
			<stop  offset="0.4308" style="stop-color:#FFFFFF"/>
			<stop  offset="0.4664" style="stop-color:#CECFD1"/>
			<stop  offset="1" style="stop-color:#EBEBEA"/>
		</linearGradient>
		<path class="st23" d="M102.9,98.4V110c0,3.1,2.2,5.2,5.6,5.2h9.2v-3.2h-9.2c-1.1,0-1.9-0.8-1.9-1.9V98.4c0-1.1,0.8-1.9,1.9-1.9
			h8.2l1.1-1.1v-2.2h-9.2C105.1,93.2,102.9,95.3,102.9,98.4z"/>
		<linearGradient id="SVGID_22_" gradientUnits="userSpaceOnUse" x1="129.3031" y1="96.758" x2="129.3031" y2="114.3158">
			<stop  offset="0" style="stop-color:#FFFFFF"/>
			<stop  offset="0.4308" style="stop-color:#FFFFFF"/>
			<stop  offset="0.4664" style="stop-color:#CECFD1"/>
			<stop  offset="1" style="stop-color:#EBEBEA"/>
		</linearGradient>
		<polygon class="st24" points="121.4,115.1 125,115.1 125,96.5 133.6,96.5 133.6,115.1 137.2,115.1 137.2,93.2 121.4,93.2 		"/>
		<linearGradient id="SVGID_23_" gradientUnits="userSpaceOnUse" x1="149.944" y1="96.758" x2="149.944" y2="114.3158">
			<stop  offset="0" style="stop-color:#FFFFFF"/>
			<stop  offset="0.4308" style="stop-color:#FFFFFF"/>
			<stop  offset="0.4664" style="stop-color:#CECFD1"/>
			<stop  offset="1" style="stop-color:#EBEBEA"/>
		</linearGradient>
		<polygon class="st25" points="142.6,115.1 157.3,115.1 157.3,111.9 146.3,111.9 146.3,105.6 154.8,105.6 154.8,102.3 146.3,102.3 
			146.3,96.5 156.2,96.5 157.3,95.4 157.3,93.2 142.6,93.2 		"/>
		<linearGradient id="SVGID_24_" gradientUnits="userSpaceOnUse" x1="168.6248" y1="96.758" x2="168.6248" y2="114.3158">
			<stop  offset="0" style="stop-color:#FFFFFF"/>
			<stop  offset="0.4308" style="stop-color:#FFFFFF"/>
			<stop  offset="0.4664" style="stop-color:#CECFD1"/>
			<stop  offset="1" style="stop-color:#EBEBEA"/>
		</linearGradient>
		<path class="st26" d="M170.7,93.2h-9.8v21.9h3.7v-6.9h6.2c3.4,0,5.6-2,5.6-5.2v-4.6C176.4,95.3,174.1,93.2,170.7,93.2z
			 M164.6,96.5h6.2c1.1,0,1.9,0.8,1.9,1.9v4.6c0,1.1-0.8,1.9-1.9,1.9h-6.2V96.5z"/>
		<linearGradient id="SVGID_25_" gradientUnits="userSpaceOnUse" x1="186.7186" y1="96.758" x2="186.7186" y2="114.3158">
			<stop  offset="0" style="stop-color:#FFFFFF"/>
			<stop  offset="0.4308" style="stop-color:#FFFFFF"/>
			<stop  offset="0.4664" style="stop-color:#CECFD1"/>
			<stop  offset="1" style="stop-color:#EBEBEA"/>
		</linearGradient>
		<polygon class="st27" points="178.5,93.2 178.5,96.5 184.9,96.5 184.9,115.1 188.6,115.1 188.6,96.5 193.9,96.5 194.9,95.4 
			194.9,93.2 		"/>
	</g>
	
		<radialGradient id="SVGID_26_" cx="287.0232" cy="1946.8624" r="9.4565" gradientTransform="matrix(10.4093 0 0 0.694 -2887.4241 -1247.5085)" gradientUnits="userSpaceOnUse">
		<stop  offset="0" style="stop-color:#FFFFFF"/>
		<stop  offset="9.471746e-02" style="stop-color:#F3F3F3;stop-opacity:0.9053"/>
		<stop  offset="0.2662" style="stop-color:#D4D3D4;stop-opacity:0.7338"/>
		<stop  offset="0.4949" style="stop-color:#A09FA1;stop-opacity:0.5051"/>
		<stop  offset="0.7687" style="stop-color:#5A585B;stop-opacity:0.2313"/>
		<stop  offset="1" style="stop-color:#1A171B;stop-opacity:0"/>
	</radialGradient>
	<path class="st28" d="M198.7,103.6c0,3.6-44.1,6.6-98.4,6.6c-54.4,0-98.4-2.9-98.4-6.6c0-3.6,44.1-6.6,98.4-6.6
		C154.6,97.1,198.7,100,198.7,103.6z"/>
</g>
<g>
	<g>
		<polygon class="st0" points="100.3,83.7 103.4,79.4 109.1,71.6 107.9,61.7 100.3,72 92.8,61.9 91.6,71.8 97.2,79.4 		"/>
		<polygon class="st1" points="113.5,38.5 113.5,46.8 119.5,46.8 121.5,46.8 125.8,46.8 125.8,38.8 125.8,38.5 		"/>
		<polygon class="st1" points="90.7,32.1 96.2,34.4 92.8,61.9 100.3,72 107.9,61.7 104.5,34.4 109.8,32.2 100.2,14 		"/>
		<linearGradient id="SVGID_27_" gradientUnits="userSpaceOnUse" x1="100.2836" y1="6.1033" x2="100.2836" y2="53.8846">
			<stop  offset="0" style="stop-color:#FFFFFF"/>
			<stop  offset="0.4308" style="stop-color:#FFFFFF"/>
			<stop  offset="0.4664" style="stop-color:#CECFD1"/>
			<stop  offset="1" style="stop-color:#EBEBEA"/>
		</linearGradient>
		<path class="st29" d="M127.1,46.8L127.1,46.8l12.7-17.4L126.8,3.2l-26.5,3.9L74.5,3.2L60.7,29.5l30.9,42.4l1.2-9.9L67.4,29.3l4-7
			l18.2,11.9l1.1-2.1l9.5-18.1l9.6,18.1l1.1,2.1l18.2-12l4.1,7.1l-6.1,7.9h0.1v1.3V46.8z M88.8,31.4L73,19.5l5.8-10.1L97.2,13
			L88.8,31.4z M111.7,31.4L103.3,13l18.4-3.6l5.7,10L111.7,31.4z"/>
		<polygon class="st3" points="121.5,48.2 118.4,48.2 107.9,61.7 109.1,71.6 126.2,48.2 125.8,48.2 		"/>
		<rect x="115.1" y="43.5" class="st3" width="9.1" height="1.5"/>
		<rect x="115.1" y="40.8" class="st3" width="6.3" height="1.5"/>
		
			<radialGradient id="SVGID_28_" cx="-662.5568" cy="193.8176" r="11.8151" gradientTransform="matrix(0.9243 -0.3302 0.4717 1.3063 647.7246 -456.399)" gradientUnits="userSpaceOnUse">
			<stop  offset="0" style="stop-color:#FFFFFF"/>
			<stop  offset="9.471746e-02" style="stop-color:#F3F3F3;stop-opacity:0.9053"/>
			<stop  offset="0.2662" style="stop-color:#D4D3D4;stop-opacity:0.7338"/>
			<stop  offset="0.4949" style="stop-color:#A09FA1;stop-opacity:0.5051"/>
			<stop  offset="0.7687" style="stop-color:#5A585B;stop-opacity:0.2313"/>
			<stop  offset="1" style="stop-color:#1A171B;stop-opacity:0"/>
		</radialGradient>
		<path class="st30" d="M137.7,11.7c3.1,8.5,0.7,17.2-5.4,19.3c-6,2.2-13.4-3-16.5-11.5c-3.1-8.5-0.7-17.2,5.3-19.3
			C127.2-2,134.6,3.1,137.7,11.7z"/>
	</g>
	<g>
		<linearGradient id="SVGID_29_" gradientUnits="userSpaceOnUse" x1="14.979" y1="96.758" x2="14.979" y2="114.3158">
			<stop  offset="0" style="stop-color:#FFFFFF"/>
			<stop  offset="0.4308" style="stop-color:#FFFFFF"/>
			<stop  offset="0.4664" style="stop-color:#CECFD1"/>
			<stop  offset="1" style="stop-color:#EBEBEA"/>
		</linearGradient>
		<path class="st31" d="M7.5,98.4V110c0,3.1,2.2,5.2,5.6,5.2h9.3v-3.2h-9.3c-1.1,0-1.9-0.8-1.9-1.9V98.4c0-1.1,0.8-1.9,1.9-1.9h8.2
			l1.1-1.1v-2.2h-9.3C9.8,93.2,7.5,95.3,7.5,98.4z"/>
		<linearGradient id="SVGID_30_" gradientUnits="userSpaceOnUse" x1="32.7878" y1="96.7584" x2="32.7878" y2="114.3183">
			<stop  offset="0" style="stop-color:#FFFFFF"/>
			<stop  offset="0.4308" style="stop-color:#FFFFFF"/>
			<stop  offset="0.4664" style="stop-color:#CECFD1"/>
			<stop  offset="1" style="stop-color:#EBEBEA"/>
		</linearGradient>
		<path class="st32" d="M41.7,93.2h-3.3l-5.3,12.6l-6.2-12.6h-3.2v2l7.5,14.7l-0.1,0.2c-0.8,1.7-1.5,2-2.3,2h-2.5v3.2h2.5
			c3.7,0,5.2-2.6,6.1-4.5l6.7-15.6V93.2z"/>
		<linearGradient id="SVGID_31_" gradientUnits="userSpaceOnUse" x1="52.1954" y1="96.7578" x2="52.1954" y2="114.315">
			<stop  offset="0" style="stop-color:#FFFFFF"/>
			<stop  offset="0.4308" style="stop-color:#FFFFFF"/>
			<stop  offset="0.4664" style="stop-color:#CECFD1"/>
			<stop  offset="1" style="stop-color:#EBEBEA"/>
		</linearGradient>
		<path class="st33" d="M59.9,93.2H46.7l-1.5,16.3c-0.1,1.2-1.1,2-1.5,2.3h-2.2v7.3h3.1l0.6-4h13.8l0.6,4h3.1v-7.3h-2.9V93.2z
			 M56.2,96.5v15.4h-8.2c0.4-0.5,0.7-1.3,0.8-2.1l1.2-13.3H56.2z"/>
		<linearGradient id="SVGID_32_" gradientUnits="userSpaceOnUse" x1="71.819" y1="96.758" x2="71.819" y2="114.3158">
			<stop  offset="0" style="stop-color:#FFFFFF"/>
			<stop  offset="0.4308" style="stop-color:#FFFFFF"/>
			<stop  offset="0.4664" style="stop-color:#CECFD1"/>
			<stop  offset="1" style="stop-color:#EBEBEA"/>
		</linearGradient>
		<path class="st34" d="M73.6,93.2h-9.2v2.2l1.1,1.1h8.2c1.1,0,1.9,0.8,1.9,1.9v4.1h-7.9v3.2h7.9v4.2c0,1.1-0.8,1.9-1.9,1.9h-9.2
			v3.2h9.2c3.4,0,5.6-2,5.6-5.2V98.4C79.3,95.3,77,93.2,73.6,93.2z"/>
		<linearGradient id="SVGID_33_" gradientUnits="userSpaceOnUse" x1="92.2394" y1="96.758" x2="92.2394" y2="114.3158">
			<stop  offset="0" style="stop-color:#FFFFFF"/>
			<stop  offset="0.4308" style="stop-color:#FFFFFF"/>
			<stop  offset="0.4664" style="stop-color:#CECFD1"/>
			<stop  offset="1" style="stop-color:#EBEBEA"/>
		</linearGradient>
		<polygon class="st35" points="99.6,95.3 99.6,93.2 96.4,93.2 91.5,102.5 87.8,102.5 87.8,93.2 84.1,93.2 84.1,115.1 87.8,115.1 
			87.8,105.7 91.5,105.7 97.2,115.1 100.3,115.1 100.3,113 94.6,104 		"/>
		<linearGradient id="SVGID_34_" gradientUnits="userSpaceOnUse" x1="110.3382" y1="96.758" x2="110.3382" y2="114.3158">
			<stop  offset="0" style="stop-color:#FFFFFF"/>
			<stop  offset="0.4308" style="stop-color:#FFFFFF"/>
			<stop  offset="0.4664" style="stop-color:#CECFD1"/>
			<stop  offset="1" style="stop-color:#EBEBEA"/>
		</linearGradient>
		<path class="st36" d="M102.9,98.4V110c0,3.1,2.2,5.2,5.6,5.2h9.2v-3.2h-9.2c-1.1,0-1.9-0.8-1.9-1.9V98.4c0-1.1,0.8-1.9,1.9-1.9
			h8.2l1.1-1.1v-2.2h-9.2C105.1,93.2,102.9,95.3,102.9,98.4z"/>
		<linearGradient id="SVGID_35_" gradientUnits="userSpaceOnUse" x1="129.3031" y1="96.758" x2="129.3031" y2="114.3158">
			<stop  offset="0" style="stop-color:#FFFFFF"/>
			<stop  offset="0.4308" style="stop-color:#FFFFFF"/>
			<stop  offset="0.4664" style="stop-color:#CECFD1"/>
			<stop  offset="1" style="stop-color:#EBEBEA"/>
		</linearGradient>
		<polygon class="st37" points="121.4,115.1 125,115.1 125,96.5 133.6,96.5 133.6,115.1 137.2,115.1 137.2,93.2 121.4,93.2 		"/>
		<linearGradient id="SVGID_36_" gradientUnits="userSpaceOnUse" x1="149.944" y1="96.758" x2="149.944" y2="114.3158">
			<stop  offset="0" style="stop-color:#FFFFFF"/>
			<stop  offset="0.4308" style="stop-color:#FFFFFF"/>
			<stop  offset="0.4664" style="stop-color:#CECFD1"/>
			<stop  offset="1" style="stop-color:#EBEBEA"/>
		</linearGradient>
		<polygon class="st38" points="142.6,115.1 157.3,115.1 157.3,111.9 146.3,111.9 146.3,105.6 154.8,105.6 154.8,102.3 146.3,102.3 
			146.3,96.5 156.2,96.5 157.3,95.4 157.3,93.2 142.6,93.2 		"/>
		<linearGradient id="SVGID_37_" gradientUnits="userSpaceOnUse" x1="168.6248" y1="96.758" x2="168.6248" y2="114.3158">
			<stop  offset="0" style="stop-color:#FFFFFF"/>
			<stop  offset="0.4308" style="stop-color:#FFFFFF"/>
			<stop  offset="0.4664" style="stop-color:#CECFD1"/>
			<stop  offset="1" style="stop-color:#EBEBEA"/>
		</linearGradient>
		<path class="st39" d="M170.7,93.2h-9.8v21.9h3.7v-6.9h6.2c3.4,0,5.6-2,5.6-5.2v-4.6C176.4,95.3,174.1,93.2,170.7,93.2z
			 M164.6,96.5h6.2c1.1,0,1.9,0.8,1.9,1.9v4.6c0,1.1-0.8,1.9-1.9,1.9h-6.2V96.5z"/>
		<linearGradient id="SVGID_38_" gradientUnits="userSpaceOnUse" x1="186.7186" y1="96.758" x2="186.7186" y2="114.3158">
			<stop  offset="0" style="stop-color:#FFFFFF"/>
			<stop  offset="0.4308" style="stop-color:#FFFFFF"/>
			<stop  offset="0.4664" style="stop-color:#CECFD1"/>
			<stop  offset="1" style="stop-color:#EBEBEA"/>
		</linearGradient>
		<polygon class="st40" points="178.5,93.2 178.5,96.5 184.9,96.5 184.9,115.1 188.6,115.1 188.6,96.5 193.9,96.5 194.9,95.4 
			194.9,93.2 		"/>
	</g>
	
		<radialGradient id="SVGID_39_" cx="287.0232" cy="1946.8624" r="9.4565" gradientTransform="matrix(10.4093 0 0 0.694 -2887.4241 -1247.5085)" gradientUnits="userSpaceOnUse">
		<stop  offset="0" style="stop-color:#FFFFFF"/>
		<stop  offset="9.471746e-02" style="stop-color:#F3F3F3;stop-opacity:0.9053"/>
		<stop  offset="0.2662" style="stop-color:#D4D3D4;stop-opacity:0.7338"/>
		<stop  offset="0.4949" style="stop-color:#A09FA1;stop-opacity:0.5051"/>
		<stop  offset="0.7687" style="stop-color:#5A585B;stop-opacity:0.2313"/>
		<stop  offset="1" style="stop-color:#1A171B;stop-opacity:0"/>
	</radialGradient>
	<path class="st41" d="M198.7,103.6c0,3.6-44.1,6.6-98.4,6.6c-54.4,0-98.4-2.9-98.4-6.6c0-3.6,44.1-6.6,98.4-6.6
		C154.6,97.1,198.7,100,198.7,103.6z"/>
</g>
</svg>
